{
.appVersion = "1356";
DisplayStrings = (
"/commaaccentcomb/tcommaaccent",
"/commaaccentcomb",
"/commaaccentcomb/Tcommaaccent",
"",
"/commaturnedabovecomb",
"/commaturnedabovecomb.case",
"/abrevehookabove ªæáàåäâ/abreve/amacron/aogonek ã/abreveacute/abrevedotbelow/abrevegrave/abrevetilde/acircumflexacute/acircumflexdotbelow/acircumflexgrave/acircumflexhookabove/acircumflextilde/adotbelow/ahookabove",
"/caroncomb/zcaron",
"ll/lcaron",
"/lcaron",
"/cedillacomb/Scedilla",
"i/idotbelow",
"/idotless/iogonek",
"I/Iogonek",
"e/circumflexcomb_tildecomb.case",
"/divisionslash"
);
classes = (
{
automatic = 1;

glyphs = (
{
glyphname = onehalf;
lastChange = "2021-06-22 13:13:00 +0000";
layers = (
{
components = (
{
name = two;
transform = "{0.76075, 0, 0, 0.76075, 551, -2}";
},
{
name = one;
transform = "{0.90909, 0, 0, 0.90909, 10, 161}";
}
);
layerId = "C7668D88-AC50-4107-9C4B-DB5D26A8FA6C";
paths = (
{
closed = 1;
nodes = (
"764 600 OFFCURVE",
"728 600 OFFCURVE",
"692 600 CURVE",
"541 400 OFFCURVE",
"390 200 OFFCURVE",
"239 0 CURVE",
"274 0 OFFCURVE",
"311 0 OFFCURVE",
"346 0 CURVE",
"497 200 OFFCURVE",
"649 400 OFFCURVE",
"800 600 CURVE"
);
}
);
width = 1032;
},
{
background = {
components = (
{
name = two;
transform = "{0.76075, 0, 0, 0.76075, 450, -2}";
},
{
name = one;
transform = "{0.90909, 0, 0, 0.90909, 62, 161}";
}
);
paths = (
{
closed = 1;
nodes = (
"578 600 OFFCURVE",
"570 600 OFFCURVE",
"563 600 CURVE",
"442 400 OFFCURVE",
"321 200 OFFCURVE",
"200 0 CURVE",
"207 0 OFFCURVE",
"214 0 OFFCURVE",
"221 0 CURVE",
"342 200 OFFCURVE",
"464 400 OFFCURVE",
"585 600 CURVE"
);
}
);
};
components = (
{
name = two;
transform = "{0.76075, 0, 0, 0.76075, 450, -2}";
},
{
name = one;
transform = "{0.90909, 0, 0, 0.90909, 62, 161}";
}
);
layerId = "B4E8C596-9C01-4F8A-BDA4-90320E25C0E6";
paths = (
{
closed = 1;
nodes = (
"578 600 OFFCURVE",
"570 600 OFFCURVE",
"563 600 CURVE",
"442 400 OFFCURVE",
"321 200 OFFCURVE",
"200 0 CURVE",
"207 0 OFFCURVE",
"214 0 OFFCURVE",
"221 0 CURVE",
"342 200 OFFCURVE",
"464 400 OFFCURVE",
"585 600 CURVE"
);
}
);
width = 850;
}
);
note = onehalf;
unicode = 00BD;
},
{
glyphname = onequarter;
lastChange = "2021-06-22 13:13:00 +0000";
layers = (
{
components = (
{
name = one;
transform = "{0.90909, 0, 0, 0.90909, 10, 161}";
},
{
name = four;
transform = "{0.90909, 0, 0, 0.90909, 508, 0}";
}
);
layerId = "C7668D88-AC50-4107-9C4B-DB5D26A8FA6C";
paths = (
{
closed = 1;
nodes = (
"764 600 OFFCURVE",
"728 600 OFFCURVE",
"692 600 CURVE",
"541 400 OFFCURVE",
"390 200 OFFCURVE",
"239 0 CURVE",
"274 0 OFFCURVE",
"311 0 OFFCURVE",
"346 0 CURVE",
"497 200 OFFCURVE",
"649 400 OFFCURVE",
"800 600 CURVE"
);
}
);
width = 1093;
},
{
background = {
components = (
{
name = one;
transform = "{0.90909, 0, 0, 0.90909, 42, 161}";
},
{
name = four;
transform = "{0.90909, 0, 0, 0.90909, 386, 0}";
}
);
paths = (
{
closed = 1;
nodes = (
"559 600 OFFCURVE",
"551 600 OFFCURVE",
"544 600 CURVE",
"423 400 OFFCURVE",
"302 200 OFFCURVE",
"181 0 CURVE",
"188 0 OFFCURVE",
"195 0 OFFCURVE",
"202 0 CURVE",
"323 200 OFFCURVE",
"445 400 OFFCURVE",
"566 600 CURVE"
);
}
);
};
components = (
{
name = one;
transform = "{0.90909, 0, 0, 0.90909, 42, 161}";
},
{
name = four;
transform = "{0.90909, 0, 0, 0.90909, 386, 0}";
}
);
layerId = "B4E8C596-9C01-4F8A-BDA4-90320E25C0E6";
paths = (
{
closed = 1;
nodes = (
"559 600 OFFCURVE",
"551 600 OFFCURVE",
"544 600 CURVE",
"423 400 OFFCURVE",
"302 200 OFFCURVE",
"181 0 CURVE",
"188 0 OFFCURVE",
"195 0 OFFCURVE",
"202 0 CURVE",
"323 200 OFFCURVE",
"445 400 OFFCURVE",
"566 600 CURVE"
);
}
);
width = 819;
}
);
note = onequarter;
unicode = 00BC;
},
{
glyphname = threequarters;
lastChange = "2021-06-22 13:13:00 +0000";
layers = (
{
components = (
{
name = three;
transform = "{0.82645, 0, 0, 0.82645, -9, 211}";
},
{
name = four;
transform = "{1, 0, 0, 1, 580, 0}";
}
);
layerId = "C7668D88-AC50-4107-9C4B-DB5D26A8FA6C";
paths = (
{
closed = 1;
nodes = (
"751 600 LINE",
"298 0 LINE",
"404 0 LINE",
"858 600 LINE"
);
}
);
width = 1252;
},
{
background = {
components = (
{
name = three;
transform = "{0.82645, 0, 0, 0.82645, 51, 211}";
},
{
name = four;
transform = "{1, 0, 0, 1, 510, 0}";
}
);
paths = (
{
closed = 1;
nodes = (
"680 600 LINE",
"317 0 LINE",
"338 0 LINE",
"702 600 LINE"
);
}
);
};
components = (
{
name = three;
transform = "{0.82645, 0, 0, 0.82645, 51, 211}";
},
{
name = four;
transform = "{1, 0, 0, 1, 510, 0}";
}
);
layerId = "B4E8C596-9C01-4F8A-BDA4-90320E25C0E6";
paths = (
{
closed = 1;
nodes = (
"680 600 LINE",
"317 0 LINE",
"338 0 LINE",
"702 600 LINE"
);
}
);
width = 978;
}
);
note = threequarters;
unicode = 00BE;
},
{
glyphname = brokenbar;
lastChange = "2021-06-22 13:13:00 +0000";
layers = (
{
layerId = "C7668D88-AC50-4107-9C4B-DB5D26A8FA6C";
paths = (
{
closed = 1;
nodes = (
"35 108 LINE",
"35 -159 LINE",
"227 -159 LINE",
"227 108 LINE"
);
},
{
closed = 1;
nodes = (
"35 460 LINE",
"35 208 LINE",
"227 208 LINE",
"227 460 LINE"
);
}
);
width = 262;
},
{
background = {
paths = (
{
closed = 1;
nodes = (
"48 88 LINE",
"48 -159 LINE",
"68 -159 LINE",
"68 88 LINE"
);
},
{
closed = 1;
nodes = (
"48 460 LINE",
"48 208 LINE",
"68 208 LINE",
"68 460 LINE"
);
}
);
};
layerId = "B4E8C596-9C01-4F8A-BDA4-90320E25C0E6";
paths = (
{
closed = 1;
nodes = (
"48 88 LINE",
"48 -159 LINE",
"68 -159 LINE",
"68 88 LINE"
);
},
{
closed = 1;
nodes = (
"48 460 LINE",
"48 208 LINE",
"68 208 LINE",
"68 460 LINE"
);
}
);
width = 148;
}
);
note = brokenbar;
unicode = 00A6;
},
{
glyphname = minus;
lastChange = "2021-06-22 13:13:00 +0000";
layers = (
{
layerId = "C7668D88-AC50-4107-9C4B-DB5D26A8FA6C";
paths = (
{
closed = 1;
nodes = (
"47 118 LINE",
"502 118 LINE",
"502 224 LINE",
"47 224 LINE"
);
}
);
width = 602;
},
{
background = {
paths = (
{
closed = 1;
nodes = (
"52 181 LINE",
"346 181 LINE",
"346 201 LINE",
"52 201 LINE"
);
}
);
};
layerId = "B4E8C596-9C01-4F8A-BDA4-90320E25C0E6";
paths = (
{
closed = 1;
nodes = (
"52 181 LINE",
"346 181 LINE",
"346 201 LINE",
"52 201 LINE"
);
}
);
width = 398;
}
);
note = minus;
unicode = 2212;
},
{
glyphname = multiply;
lastChange = "2021-06-22 13:13:00 +0000";
layers = (
{
background = {
paths = (
{
closed = 1;
nodes = (
"39 72 LINE",
"141 10 LINE",
"225 113 LINE",
"308 11 LINE",
"469 100 LINE",
"385 198 LINE",
"486 350 LINE",
"389 399 LINE",
"301 281 LINE",
"215 399 LINE",
"49 314 LINE",
"134 198 LINE"
);
}
);
};
layerId = "C7668D88-AC50-4107-9C4B-DB5D26A8FA6C";
paths = (
{
closed = 1;
nodes = (
"35 86 LINE",
"126 21 LINE",
"220 123 LINE",
"311 22 LINE",
"405 96 LINE",
"305 200 LINE",
"399 311 LINE",
"308 378 LINE",
"215 273 LINE",
"122 379 LINE",
"32 311 LINE",
"137 194 LINE"
);
}
);
width = 429;
},
{
background = {
paths = (
{
closed = 1;
nodes = (
"44 57 LINE",
"57 45 LINE",
"184 184 LINE",
"306 47 LINE",
"321 61 LINE",
"197 198 LINE",
"337 348 LINE",
"323 361 LINE",
"185 212 LINE",
"52 362 LINE",
"38 350 LINE",
"173 198 LINE"
);
}
);
};
layerId = "B4E8C596-9C01-4F8A-BDA4-90320E25C0E6";
paths = (
{
closed = 1;
nodes = (
"44 57 LINE",
"57 45 LINE",
"184 184 LINE",
"306 47 LINE",
"321 61 LINE",
"197 198 LINE",
"337 348 LINE",
"323 361 LINE",
"185 212 LINE",
"52 362 LINE",
"38 350 LINE",
"173 198 LINE"
);
}
);
width = 372;
}
);
note = multiply;
unicode = 00D7;
},
{
glyphname = Zcaron;
lastChange = "2021-06-22 13:13:00 +0000";
layers = (
{
components = (
{
name = Z;
},
{
name = caroncomb.case;
transform = "{1, 0, 0, 1, 224, 61}";
}
);
layerId = "C7668D88-AC50-4107-9C4B-DB5D26A8FA6C";
width = 630;
},
{
background = {
components = (
{
name = z;
}
);
paths = (
{
closed = 1;
nodes = (
"147 572 LINE",
"127 572 LINE",
"201 460 LINE",
"221 460 LINE",
"295 572 LINE",
"275 572 LINE",
"211 489 LINE"
);
}
);
};
components = (
{
name = Z;
},
{
name = caroncomb.case;
transform = "{1, 0, 0, 1, 177, 61}";
}
);
layerId = "B4E8C596-9C01-4F8A-BDA4-90320E25C0E6";
width = 424;
}
);
note = Zcaron;
unicode = 017D;
},
{
glyphname = exclam;
lastChange = "2021-06-22 13:13:00 +0000";
layers = (
{
layerId = "C7668D88-AC50-4107-9C4B-DB5D26A8FA6C";
paths = (
{
closed = 1;
nodes = (
"181 167 LINE",
"268 427 LINE",
"283 505 LINE",
"135 505 LINE SMOOTH",
"100 505 OFFCURVE",
"67 479 OFFCURVE",
"61 436 CURVE",
"74 167 LINE"
);
},
{
closed = 1;
nodes = (
"5 -1 OFFCURVE",
"44 -4 OFFCURVE",
"102 -4 CURVE SMOOTH",
"161 -4 OFFCURVE",
"200 -1 OFFCURVE",
"208 59 CURVE SMOOTH",
"216 113 OFFCURVE",
"181 122 OFFCURVE",
"124 122 CURVE SMOOTH",
"67 122 OFFCURVE",
"21 115 OFFCURVE",
"13 59 CURVE SMOOTH"
);
}
);
width = 282;
},
{
background = {
paths = (
{
closed = 1;
nodes = (
"77 149 LINE",
"122 407 LINE",
"136 506 LINE",
"133 506 LINE SMOOTH",
"111 506 OFFCURVE",
"110 497 OFFCURVE",
"108 475 CURVE SMOOTH",
"66 149 LINE"
);
},
{
closed = 1;
nodes = (
"34 1 OFFCURVE",
"44 0 OFFCURVE",
"51 0 CURVE SMOOTH",
"58 0 OFFCURVE",
"69 1 OFFCURVE",
"71 15 CURVE SMOOTH",
"73 30 OFFCURVE",
"64 31 OFFCURVE",
"55 31 CURVE SMOOTH",
"46 31 OFFCURVE",
"38 29 OFFCURVE",
"36 15 CURVE SMOOTH"
);
}
);
};
layerId = "B4E8C596-9C01-4F8A-BDA4-90320E25C0E6";
paths = (
{
closed = 1;
nodes = (
"77 149 LINE",
"122 407 LINE",
"136 506 LINE",
"133 506 LINE SMOOTH",
"111 506 OFFCURVE",
"110 497 OFFCURVE",
"108 475 CURVE SMOOTH",
"66 149 LINE"
);
},
{
closed = 1;
nodes = (
"34 1 OFFCURVE",
"44 0 OFFCURVE",
"51 0 CURVE SMOOTH",
"58 0 OFFCURVE",
"69 1 OFFCURVE",
"71 15 CURVE SMOOTH",
"73 30 OFFCURVE",
"64 31 OFFCURVE",
"55 31 CURVE SMOOTH",
"46 31 OFFCURVE",
"38 29 OFFCURVE",
"36 15 CURVE SMOOTH"
);
}
);
width = 150;
}
);
note = exclam;
unicode = 0021;
},
{
glyphname = quotedbl;
lastChange = "2021-06-22 13:13:00 +0000";
layers = (
{
layerId = "C7668D88-AC50-4107-9C4B-DB5D26A8FA6C";
paths = (
{
closed = 1;
nodes = (
"124 343 LINE",
"186 485 LINE",
"73 485 LINE",
"35 343 LINE"
);
},
{
closed = 1;
nodes = (
"283 343 LINE",
"346 485 LINE",
"233 485 LINE",
"194 343 LINE"
);
}
);
width = 381;
},
{
background = {
paths = (
{
closed = 1;
nodes = (
"62 343 LINE",
"105 485 LINE",
"91 485 LINE",
"42 343 LINE"
);
},
{
closed = 1;
nodes = (
"149 343 LINE",
"198 485 LINE",
"178 485 LINE",
"135 343 LINE"
);
}
);
};
layerId = "B4E8C596-9C01-4F8A-BDA4-90320E25C0E6";
paths = (
{
closed = 1;
nodes = (
"62 343 LINE",
"105 485 LINE",
"91 485 LINE",
"42 343 LINE"
);
},
{
closed = 1;
nodes = (
"149 343 LINE",
"198 485 LINE",
"178 485 LINE",
"135 343 LINE"
);
}
);
width = 273;
}
);
note = quotedbl;
unicode = 0022;
},
{
glyphname = numbersign;
lastChange = "2021-06-22 13:13:00 +0000";
layers = (
{
layerId = "C7668D88-AC50-4107-9C4B-DB5D26A8FA6C";
paths = (
{
closed = 1;
nodes = (
"314 -14 LINE",
"402 -14 LINE",
"413 86 LINE",
"511 86 LINE",
"521 173 LINE",
"422 174 LINE",
"433 266 LINE",
"532 266 LINE",
"541 353 LINE",
"441 354 LINE",
"453 460 LINE",
"365 460 LINE",
"354 354 LINE",
"261 354 LINE",
"272 460 LINE",
"184 460 LINE",
"173 355 LINE",
"65 356 LINE",
"56 269 LINE",
"163 268 LINE",
"153 174 LINE",
"45 175 LINE",
"35 88 LINE",
"143 87 LINE",
"133 -14 LINE",
"221 -14 LINE",
"231 87 LINE",
"325 86 LINE"
);
},
{
closed = 1;
nodes = (
"251 267 LINE",
"345 266 LINE",
"334 174 LINE",
"241 174 LINE"
);
}
);
width = 576;
},
{
background = {
paths = (
{
closed = 1;
nodes = (
"271 -15 LINE",
"290 -15 LINE",
"302 121 LINE",
"408 121 LINE",
"408 140 LINE",
"304 140 LINE",
"319 310 LINE",
"432 310 LINE",
"432 329 LINE",
"320 329 LINE",
"332 460 LINE",
"312 460 LINE",
"301 329 LINE",
"192 329 LINE",
"203 459 LINE",
"183 459 LINE",
"172 330 LINE",
"76 330 LINE",
"76 310 LINE",
"171 310 LINE",
"155 140 LINE",
"53 140 LINE",
"53 121 LINE",
"154 121 LINE",
"142 -16 LINE",
"162 -16 LINE",
"175 121 LINE",
"282 121 LINE"
);
},
{
closed = 1;
nodes = (
"191 310 LINE",
"300 310 LINE",
"284 140 LINE",
"175 140 LINE"
);
}
);
};
layerId = "B4E8C596-9C01-4F8A-BDA4-90320E25C0E6";
paths = (
{
closed = 1;
nodes = (
"271 -15 LINE",
"290 -15 LINE",
"302 121 LINE",
"408 121 LINE",
"408 140 LINE",
"304 140 LINE",
"319 310 LINE",
"432 310 LINE",
"432 329 LINE",
"320 329 LINE",
"332 460 LINE",
"312 460 LINE",
"301 329 LINE",
"192 329 LINE",
"203 459 LINE",
"183 459 LINE",
"172 330 LINE",
"76 330 LINE",
"76 310 LINE",
"171 310 LINE",
"155 140 LINE",
"53 140 LINE",
"53 121 LINE",
"154 121 LINE",
"142 -16 LINE",
"162 -16 LINE",
"175 121 LINE",
"282 121 LINE"
);
},
{
closed = 1;
nodes = (
"191 310 LINE",
"300 310 LINE",
"284 140 LINE",
"175 140 LINE"
);
}
);
width = 460;
}
);
note = numbersign;
unicode = 0023;
},
{
glyphname = dollar;
lastChange = "2021-06-22 13:13:00 +0000";
layers = (
{
layerId = "C7668D88-AC50-4107-9C4B-DB5D26A8FA6C";
paths = (
{
closed = 1;
nodes = (
"108 -83 LINE",
"206 58 LINE",
"311 58 OFFCURVE",
"364 59 OFFCURVE",
"412 65 CURVE SMOOTH",
"489 73 OFFCURVE",
"568 101 OFFCURVE",
"581 196 CURVE SMOOTH",
"596 305 OFFCURVE",
"520 319 OFFCURVE",
"426 319 CURVE SMOOTH",
"382 319 OFFCURVE",
"339 319 OFFCURVE",
"295 319 CURVE SMOOTH",
"278 319 OFFCURVE",
"268 320 OFFCURVE",
"271 336 CURVE SMOOTH",
"273 355 OFFCURVE",
"312 364 OFFCURVE",
"349 363 CURVE SMOOTH",
"386 363 OFFCURVE",
"422 352 OFFCURVE",
"422 330 CURVE",
"478 330 OFFCURVE",
"533 330 OFFCURVE",
"589 330 CURVE",
"602 423 OFFCURVE",
"584 453 OFFCURVE",
"476 460 CURVE",
"503 500 OFFCURVE",
"527 536 OFFCURVE",
"553 576 CURVE",
"487 576 LINE",
"461 538 OFFCURVE",
"439 502 OFFCURVE",
"413 464 CURVE",
"396 464 OFFCURVE",
"378 465 OFFCURVE",
"360 465 CURVE SMOOTH",
"181 465 OFFCURVE",
"74 450 OFFCURVE",
"56 323 CURVE SMOOTH",
"39 207 OFFCURVE",
"106 207 OFFCURVE",
"215 207 CURVE SMOOTH",
"258 207 OFFCURVE",
"301 207 OFFCURVE",
"344 207 CURVE SMOOTH",
"355 207 OFFCURVE",
"362 202 OFFCURVE",
"360 190 CURVE SMOOTH",
"357 168 OFFCURVE",
"319 159 OFFCURVE",
"282 159 CURVE SMOOTH",
"241 160 OFFCURVE",
"201 172 OFFCURVE",
"210 194 CURVE",
"153 194 OFFCURVE",
"95 194 OFFCURVE",
"38 194 CURVE",
"24 96 OFFCURVE",
"49 72 OFFCURVE",
"142 62 CURVE",
"109 14 OFFCURVE",
"75 -35 OFFCURVE",
"43 -83 CURVE"
);
}
);
width = 633;
},
{
background = {
paths = (
{
closed = 1;
nodes = (
"27 -83 LINE",
"117 60 LINE",
"129 58 OFFCURVE",
"154 56 OFFCURVE",
"183 56 CURVE SMOOTH",
"282 56 OFFCURVE",
"364 61 OFFCURVE",
"380 177 CURVE SMOOTH",
"394 277 OFFCURVE",
"336 277 OFFCURVE",
"280 277 CURVE",
"239 277 OFFCURVE",
"199 277 OFFCURVE",
"158 277 CURVE",
"104 277 OFFCURVE",
"73 291 OFFCURVE",
"82 351 CURVE SMOOTH",
"94 440 OFFCURVE",
"160 450 OFFCURVE",
"250 450 CURVE SMOOTH",
"362 450 OFFCURVE",
"389 426 OFFCURVE",
"378 345 CURVE",
"384 345 OFFCURVE",
"389 345 OFFCURVE",
"395 345 CURVE",
"404 412 OFFCURVE",
"389 450 OFFCURVE",
"332 459 CURVE",
"356 497 OFFCURVE",
"382 537 OFFCURVE",
"406 575 CURVE",
"388 575 LINE",
"365 538 OFFCURVE",
"338 498 OFFCURVE",
"315 461 CURVE",
"296 464 OFFCURVE",
"275 465 OFFCURVE",
"252 465 CURVE SMOOTH",
"160 465 OFFCURVE",
"79 457 OFFCURVE",
"64 351 CURVE SMOOTH",
"51 259 OFFCURVE",
"117 259 OFFCURVE",
"157 259 CURVE",
"198 259 OFFCURVE",
"239 259 OFFCURVE",
"280 259 CURVE",
"347 259 OFFCURVE",
"372 244 OFFCURVE",
"362 178 CURVE SMOOTH",
"348 73 OFFCURVE",
"266 71 OFFCURVE",
"186 71 CURVE SMOOTH",
"86 71 OFFCURVE",
"43 87 OFFCURVE",
"55 177 CURVE",
"49 177 OFFCURVE",
"44 177 OFFCURVE",
"38 177 CURVE",
"29 111 OFFCURVE",
"46 79 OFFCURVE",
"100 64 CURVE",
"79 29 OFFCURVE",
"30 -48 OFFCURVE",
"8 -83 CURVE"
);
}
);
};
layerId = "B4E8C596-9C01-4F8A-BDA4-90320E25C0E6";
paths = (
{
closed = 1;
nodes = (
"27 -83 LINE",
"117 60 LINE",
"129 58 OFFCURVE",
"154 56 OFFCURVE",
"183 56 CURVE SMOOTH",
"282 56 OFFCURVE",
"364 61 OFFCURVE",
"380 177 CURVE SMOOTH",
"394 277 OFFCURVE",
"336 277 OFFCURVE",
"280 277 CURVE",
"239 277 OFFCURVE",
"199 277 OFFCURVE",
"158 277 CURVE",
"104 277 OFFCURVE",
"73 291 OFFCURVE",
"82 351 CURVE SMOOTH",
"94 440 OFFCURVE",
"160 450 OFFCURVE",
"250 450 CURVE SMOOTH",
"362 450 OFFCURVE",
"389 426 OFFCURVE",
"378 345 CURVE",
"384 345 OFFCURVE",
"389 345 OFFCURVE",
"395 345 CURVE",
"404 412 OFFCURVE",
"389 450 OFFCURVE",
"332 459 CURVE",
"356 497 OFFCURVE",
"382 537 OFFCURVE",
"406 575 CURVE",
"388 575 LINE",
"365 538 OFFCURVE",
"338 498 OFFCURVE",
"315 461 CURVE",
"296 464 OFFCURVE",
"275 465 OFFCURVE",
"252 465 CURVE SMOOTH",
"160 465 OFFCURVE",
"79 457 OFFCURVE",
"64 351 CURVE SMOOTH",
"51 259 OFFCURVE",
"117 259 OFFCURVE",
"157 259 CURVE",
"198 259 OFFCURVE",
"239 259 OFFCURVE",
"280 259 CURVE",
"347 259 OFFCURVE",
"372 244 OFFCURVE",
"362 178 CURVE SMOOTH",
"348 73 OFFCURVE",
"266 71 OFFCURVE",
"186 71 CURVE SMOOTH",
"86 71 OFFCURVE",
"43 87 OFFCURVE",
"55 177 CURVE",
"49 177 OFFCURVE",
"44 177 OFFCURVE",
"38 177 CURVE",
"29 111 OFFCURVE",
"46 79 OFFCURVE",
"100 64 CURVE",
"79 29 OFFCURVE",
"30 -48 OFFCURVE",
"8 -83 CURVE"
);
}
);
width = 410;
}
);
note = dollar;
unicode = 0024;
},
{
glyphname = percent;
lastChange = "2021-06-22 13:13:00 +0000";
layers = (
{
layerId = "C7668D88-AC50-4107-9C4B-DB5D26A8FA6C";
paths = (
{
closed = 1;
nodes = (
"455 460 LINE",
"172 -20 LINE",
"315 -20 LINE",
"598 460 LINE"
);
},
{
closed = 1;
nodes = (
"704 190 OFFCURVE",
"657 202 OFFCURVE",
"583 203 CURVE SMOOTH",
"507 203 OFFCURVE",
"446 193 OFFCURVE",
"433 100 CURVE SMOOTH",
"419 2 OFFCURVE",
"471 1 OFFCURVE",
"548 1 CURVE SMOOTH",
"625 1 OFFCURVE",
"677 2 OFFCURVE",
"691 100 CURVE SMOOTH"
);
},
{
closed = 1;
nodes = (
"577 50 OFFCURVE",
"576 43 OFFCURVE",
"554 43 CURVE SMOOTH",
"532 43 OFFCURVE",
"533 50 OFFCURVE",
"540 101 CURVE SMOOTH",
"547 151 OFFCURVE",
"548 158 OFFCURVE",
"570 158 CURVE SMOOTH",
"592 158 OFFCURVE",
"591 151 OFFCURVE",
"584 101 CURVE SMOOTH"
);
},
{
closed = 1;
nodes = (
"325 446 OFFCURVE",
"279 459 OFFCURVE",
"203 460 CURVE SMOOTH",
"128 460 OFFCURVE",
"67 450 OFFCURVE",
"54 357 CURVE SMOOTH",
"40 259 OFFCURVE",
"92 258 OFFCURVE",
"169 258 CURVE SMOOTH",
"246 258 OFFCURVE",
"298 258 OFFCURVE",
"312 357 CURVE SMOOTH"
);
},
{
closed = 1;
nodes = (
"198 307 OFFCURVE",
"197 300 OFFCURVE",
"175 300 CURVE SMOOTH",
"153 300 OFFCURVE",
"154 307 OFFCURVE",
"161 358 CURVE SMOOTH",
"168 408 OFFCURVE",
"169 414 OFFCURVE",
"191 414 CURVE SMOOTH",
"213 414 OFFCURVE",
"212 408 OFFCURVE",
"205 358 CURVE SMOOTH"
);
}
);
width = 743;
},
{
background = {
paths = (
{
closed = 1;
nodes = (
"364 460 LINE",
"129 0 LINE",
"144 0 LINE",
"379 460 LINE"
);
},
{
closed = 1;
nodes = (
"465 195 OFFCURVE",
"438 210 OFFCURVE",
"391 210 CURVE SMOOTH",
"345 210 OFFCURVE",
"308 198 OFFCURVE",
"294 105 CURVE SMOOTH",
"282 14 OFFCURVE",
"309 0 OFFCURVE",
"355 0 CURVE SMOOTH",
"402 0 OFFCURVE",
"439 11 OFFCURVE",
"452 105 CURVE SMOOTH"
);
},
{
closed = 1;
nodes = (
"425 21 OFFCURVE",
"397 10 OFFCURVE",
"360 10 CURVE SMOOTH",
"323 10 OFFCURVE",
"300 21 OFFCURVE",
"311 105 CURVE SMOOTH",
"323 189 OFFCURVE",
"351 201 OFFCURVE",
"387 201 CURVE SMOOTH",
"424 201 OFFCURVE",
"448 189 OFFCURVE",
"436 105 CURVE SMOOTH"
);
},
{
closed = 1;
nodes = (
"253 445 OFFCURVE",
"226 460 OFFCURVE",
"179 460 CURVE SMOOTH",
"133 460 OFFCURVE",
"96 448 OFFCURVE",
"83 355 CURVE SMOOTH",
"70 264 OFFCURVE",
"97 250 OFFCURVE",
"143 250 CURVE SMOOTH",
"190 250 OFFCURVE",
"227 261 OFFCURVE",
"241 355 CURVE SMOOTH"
);
},
{
closed = 1;
nodes = (
"213 271 OFFCURVE",
"185 260 OFFCURVE",
"148 260 CURVE SMOOTH",
"111 260 OFFCURVE",
"88 271 OFFCURVE",
"100 355 CURVE SMOOTH",
"111 439 OFFCURVE",
"139 451 OFFCURVE",
"175 451 CURVE SMOOTH",
"212 451 OFFCURVE",
"236 439 OFFCURVE",
"225 355 CURVE SMOOTH"
);
}
);
};
layerId = "B4E8C596-9C01-4F8A-BDA4-90320E25C0E6";
paths = (
{
closed = 1;
nodes = (
"364 460 LINE",
"129 0 LINE",
"144 0 LINE",
"379 460 LINE"
);
},
{
closed = 1;
nodes = (
"465 195 OFFCURVE",
"438 210 OFFCURVE",
"391 210 CURVE SMOOTH",
"345 210 OFFCURVE",
"308 198 OFFCURVE",
"294 105 CURVE SMOOTH",
"282 14 OFFCURVE",
"309 0 OFFCURVE",
"355 0 CURVE SMOOTH",
"402 0 OFFCURVE",
"439 11 OFFCURVE",
"452 105 CURVE SMOOTH"
);
},
{
closed = 1;
nodes = (
"425 21 OFFCURVE",
"397 10 OFFCURVE",
"360 10 CURVE SMOOTH",
"323 10 OFFCURVE",
"300 21 OFFCURVE",
"311 105 CURVE SMOOTH",
"323 189 OFFCURVE",
"351 201 OFFCURVE",
"387 201 CURVE SMOOTH",
"424 201 OFFCURVE",
"448 189 OFFCURVE",
"436 105 CURVE SMOOTH"
);
},
{
closed = 1;
nodes = (
"253 445 OFFCURVE",
"226 460 OFFCURVE",
"179 460 CURVE SMOOTH",
"133 460 OFFCURVE",
"96 448 OFFCURVE",
"83 355 CURVE SMOOTH",
"70 264 OFFCURVE",
"97 250 OFFCURVE",
"143 250 CURVE SMOOTH",
"190 250 OFFCURVE",
"227 261 OFFCURVE",
"241 355 CURVE SMOOTH"
);
},
{
closed = 1;
nodes = (
"213 271 OFFCURVE",
"185 260 OFFCURVE",
"148 260 CURVE SMOOTH",
"111 260 OFFCURVE",
"88 271 OFFCURVE",
"100 355 CURVE SMOOTH",
"111 439 OFFCURVE",
"139 451 OFFCURVE",
"175 451 CURVE SMOOTH",
"212 451 OFFCURVE",
"236 439 OFFCURVE",
"225 355 CURVE SMOOTH"
);
}
);
width = 535;
}
);
note = percent;
unicode = 0025;
},
{
glyphname = ampersand;
lastChange = "2021-06-22 13:13:00 +0000";
layers = (
{
layerId = "C7668D88-AC50-4107-9C4B-DB5D26A8FA6C";
paths = (
{
closed = 1;
nodes = (
"678 84 LINE",
"596 124 LINE",
"601 155 OFFCURVE",
"602 188 OFFCURVE",
"601 205 CURVE SMOOTH",
"590 275 OFFCURVE",
"503 276 OFFCURVE",
"397 276 CURVE",
"390 227 LINE",
"355 244 LINE SMOOTH",
"300 272 OFFCURVE",
"287 291 OFFCURVE",
"290 316 CURVE SMOOTH",
"297 364 OFFCURVE",
"412 362 OFFCURVE",
"453 362 CURVE SMOOTH",
"489 362 OFFCURVE",
"568 362 OFFCURVE",
"608 345 CURVE",
"623 447 OFFCURVE",
"577 456 OFFCURVE",
"490 460 CURVE SMOOTH",
"410 464 OFFCURVE",
"279 469 OFFCURVE",
"188 456 CURVE SMOOTH",
"127 447 OFFCURVE",
"95 424 OFFCURVE",
"86 360 CURVE SMOOTH",
"78 300 OFFCURVE",
"87 271 OFFCURVE",
"122 264 CURVE",
"61 255 OFFCURVE",
"32 195 OFFCURVE",
"23 132 CURVE SMOOTH",
"10 38 OFFCURVE",
"41 9 OFFCURVE",
"126 1 CURVE SMOOTH",
"205 -6 OFFCURVE",
"328 -6 OFFCURVE",
"447 1 CURVE SMOOTH",
"502 4 OFFCURVE",
"539 12 OFFCURVE",
"561 33 CURVE",
"595 15 OFFCURVE",
"629 -3 OFFCURVE",
"663 -21 CURVE"
);
},
{
closed = 1;
nodes = (
"309 172 OFFCURVE",
"342 153 OFFCURVE",
"376 135 CURVE",
"365 99 OFFCURVE",
"331 98 OFFCURVE",
"316 98 CURVE SMOOTH",
"310 98 OFFCURVE",
"304 98 OFFCURVE",
"299 99 CURVE SMOOTH",
"271 104 OFFCURVE",
"266 120 OFFCURVE",
"270 149 CURVE SMOOTH",
"272 163 OFFCURVE",
"274 176 OFFCURVE",
"276 190 CURVE"
);
}
);
width = 732;
},
{
background = {
paths = (
{
closed = 1;
nodes = (
"443 23 LINE",
"379 75 LINE",
"388 111 OFFCURVE",
"398 187 OFFCURVE",
"406 242 CURVE SMOOTH",
"408 254 OFFCURVE",
"409 261 OFFCURVE",
"389 261 CURVE",
"364 88 LINE",
"142 271 LINE SMOOTH",
"115 295 OFFCURVE",
"99 320 OFFCURVE",
"104 358 CURVE SMOOTH",
"116 444 OFFCURVE",
"207 448 OFFCURVE",
"269 448 CURVE SMOOTH",
"313 448 OFFCURVE",
"397 442 OFFCURVE",
"420 423 CURVE",
"424 451 OFFCURVE",
"392 455 OFFCURVE",
"365 459 CURVE SMOOTH",
"337 462 OFFCURVE",
"303 464 OFFCURVE",
"271 464 CURVE SMOOTH",
"196 464 OFFCURVE",
"99 460 OFFCURVE",
"84 358 CURVE SMOOTH",
"78 313 OFFCURVE",
"91 293 OFFCURVE",
"111 274 CURVE",
"69 265 OFFCURVE",
"38 204 OFFCURVE",
"30 148 CURVE SMOOTH",
"14 37 OFFCURVE",
"41 10 OFFCURVE",
"94 0 CURVE SMOOTH",
"149 -10 OFFCURVE",
"245 -12 OFFCURVE",
"300 2 CURVE SMOOTH",
"330 10 OFFCURVE",
"356 24 OFFCURVE",
"372 54 CURVE",
"404 27 OFFCURVE",
"429 7 OFFCURVE",
"440 0 CURVE"
);
},
{
closed = 1;
nodes = (
"200 195 OFFCURVE",
"279 129 OFFCURVE",
"359 64 CURVE",
"349 36 OFFCURVE",
"323 23 OFFCURVE",
"294 16 CURVE SMOOTH",
"240 3 OFFCURVE",
"153 4 OFFCURVE",
"104 15 CURVE SMOOTH",
"58 26 OFFCURVE",
"37 54 OFFCURVE",
"50 150 CURVE SMOOTH",
"55 182 OFFCURVE",
"77 253 OFFCURVE",
"120 260 CURVE"
);
}
);
};
layerId = "B4E8C596-9C01-4F8A-BDA4-90320E25C0E6";
paths = (
{
closed = 1;
nodes = (
"443 23 LINE",
"379 75 LINE",
"388 111 OFFCURVE",
"398 187 OFFCURVE",
"406 242 CURVE SMOOTH",
"408 254 OFFCURVE",
"409 261 OFFCURVE",
"389 261 CURVE",
"364 88 LINE",
"142 271 LINE SMOOTH",
"115 295 OFFCURVE",
"99 320 OFFCURVE",
"104 358 CURVE SMOOTH",
"116 444 OFFCURVE",
"207 448 OFFCURVE",
"269 448 CURVE SMOOTH",
"313 448 OFFCURVE",
"397 442 OFFCURVE",
"420 423 CURVE",
"424 451 OFFCURVE",
"392 455 OFFCURVE",
"365 459 CURVE SMOOTH",
"337 462 OFFCURVE",
"303 464 OFFCURVE",
"271 464 CURVE SMOOTH",
"196 464 OFFCURVE",
"99 460 OFFCURVE",
"84 358 CURVE SMOOTH",
"78 313 OFFCURVE",
"91 293 OFFCURVE",
"111 274 CURVE",
"69 265 OFFCURVE",
"38 204 OFFCURVE",
"30 148 CURVE SMOOTH",
"14 37 OFFCURVE",
"41 10 OFFCURVE",
"94 0 CURVE SMOOTH",
"149 -10 OFFCURVE",
"245 -12 OFFCURVE",
"300 2 CURVE SMOOTH",
"330 10 OFFCURVE",
"356 24 OFFCURVE",
"372 54 CURVE",
"404 27 OFFCURVE",
"429 7 OFFCURVE",
"440 0 CURVE"
);
},
{
closed = 1;
nodes = (
"200 195 OFFCURVE",
"279 129 OFFCURVE",
"359 64 CURVE",
"349 36 OFFCURVE",
"323 23 OFFCURVE",
"294 16 CURVE SMOOTH",
"240 3 OFFCURVE",
"153 4 OFFCURVE",
"104 15 CURVE SMOOTH",
"58 26 OFFCURVE",
"37 54 OFFCURVE",
"50 150 CURVE SMOOTH",
"55 182 OFFCURVE",
"77 253 OFFCURVE",
"120 260 CURVE"
);
}
);
width = 497;
}
);
note = ampersand;
unicode = 0026;
},
{
glyphname = parenleft;
lastChange = "2021-06-22 13:13:00 +0000";
layers = (
{
layerId = "C7668D88-AC50-4107-9C4B-DB5D26A8FA6C";
paths = (
{
closed = 1;
nodes = (
"416 535 LINE",
"186 535 OFFCURVE",
"73 491 OFFCURVE",
"34 212 CURVE SMOOTH",
"-7 -81 OFFCURVE",
"98 -98 OFFCURVE",
"327 -98 CURVE",
"337 -22 LINE",
"260 -22 OFFCURVE",
"228 7 OFFCURVE",
"258 215 CURVE SMOOTH",
"287 423 OFFCURVE",
"328 450 OFFCURVE",
"405 450 CURVE"
);
}
);
width = 407;
},
{
background = {
paths = (
{
closed = 1;
nodes = (
"226 522 LINE",
"133 522 OFFCURVE",
"55 478 OFFCURVE",
"22 242 CURVE SMOOTH",
"-11 6 OFFCURVE",
"53 -38 OFFCURVE",
"148 -38 CURVE",
"149 -27 LINE",
"67 -27 OFFCURVE",
"11 19 OFFCURVE",
"42 242 CURVE SMOOTH",
"73 465 OFFCURVE",
"143 509 OFFCURVE",
"225 509 CURVE"
);
}
);
};
layerId = "B4E8C596-9C01-4F8A-BDA4-90320E25C0E6";
paths = (
{
closed = 1;
nodes = (
"226 522 LINE",
"133 522 OFFCURVE",
"55 478 OFFCURVE",
"22 242 CURVE SMOOTH",
"-11 6 OFFCURVE",
"53 -38 OFFCURVE",
"148 -38 CURVE",
"149 -27 LINE",
"67 -27 OFFCURVE",
"11 19 OFFCURVE",
"42 242 CURVE SMOOTH",
"73 465 OFFCURVE",
"143 509 OFFCURVE",
"225 509 CURVE"
);
}
);
width = 228;
}
);
leftKerningGroup = parenleft;
note = parenleft;
unicode = 0028;
},
{
glyphname = parenright;
lastChange = "2021-06-22 13:13:00 +0000";
layers = (
{
layerId = "C7668D88-AC50-4107-9C4B-DB5D26A8FA6C";
paths = (
{
closed = 1;
nodes = (
"68 450 LINE",
"145 450 OFFCURVE",
"178 423 OFFCURVE",
"149 215 CURVE SMOOTH",
"119 7 OFFCURVE",
"79 -22 OFFCURVE",
"2 -22 CURVE",
"-8 -98 LINE",
"221 -98 OFFCURVE",
"330 -81 OFFCURVE",
"371 212 CURVE SMOOTH",
"410 491 OFFCURVE",
"309 535 OFFCURVE",
"79 535 CURVE"
);
}
);
width = 407;
},
{
background = {
paths = (
{
closed = 1;
nodes = (
"60 509 LINE",
"142 509 OFFCURVE",
"198 465 OFFCURVE",
"167 242 CURVE SMOOTH",
"136 19 OFFCURVE",
"66 -27 OFFCURVE",
"-16 -27 CURVE",
"-17 -38 LINE",
"78 -38 OFFCURVE",
"154 6 OFFCURVE",
"187 242 CURVE SMOOTH",
"220 478 OFFCURVE",
"154 522 OFFCURVE",
"61 522 CURVE"
);
}
);
};
layerId = "B4E8C596-9C01-4F8A-BDA4-90320E25C0E6";
paths = (
{
closed = 1;
nodes = (
"60 509 LINE",
"142 509 OFFCURVE",
"198 465 OFFCURVE",
"167 242 CURVE SMOOTH",
"136 19 OFFCURVE",
"66 -27 OFFCURVE",
"-16 -27 CURVE",
"-17 -38 LINE",
"78 -38 OFFCURVE",
"154 6 OFFCURVE",
"187 242 CURVE SMOOTH",
"220 478 OFFCURVE",
"154 522 OFFCURVE",
"61 522 CURVE"
);
}
);
width = 228;
}
);
note = parenright;
unicode = 0029;
},
{
glyphname = asterisk;
lastChange = "2021-06-22 13:13:00 +0000";
layers = (
{
layerId = "C7668D88-AC50-4107-9C4B-DB5D26A8FA6C";
paths = (
{
closed = 1;
nodes = (
"406 171 LINE",
"314 291 LINE",
"477 324 LINE",
"459 430 LINE",
"300 363 LINE",
"340 525 LINE",
"230 525 LINE",
"225 362 LINE",
"85 430 LINE",
"36 324 LINE",
"191 291 LINE",
"65 171 LINE",
"145 106 LINE",
"246 247 LINE",
"308 106 LINE"
);
}
);
width = 511;
},
{
background = {
paths = (
{
closed = 1;
nodes = (
"412 94 LINE",
"285 249 LINE",
"478 300 LINE",
"467 335 LINE",
"280 262 LINE",
"291 462 LINE",
"254 462 LINE",
"266 262 LINE",
"79 334 LINE",
"68 299 LINE",
"262 249 LINE",
"135 93 LINE",
"165 72 LINE",
"273 241 LINE",
"382 72 LINE"
);
}
);
};
layerId = "B4E8C596-9C01-4F8A-BDA4-90320E25C0E6";
paths = (
{
closed = 1;
nodes = (
"412 94 LINE",
"285 249 LINE",
"478 300 LINE",
"467 335 LINE",
"280 262 LINE",
"291 462 LINE",
"254 462 LINE",
"266 262 LINE",
"79 334 LINE",
"68 299 LINE",
"262 249 LINE",
"135 93 LINE",
"165 72 LINE",
"273 241 LINE",
"382 72 LINE"
);
}
);
width = 514;
}
);
note = asterisk;
unicode = 002A;
},
{
glyphname = plus;
lastChange = "2021-06-22 13:13:00 +0000";
layers = (
{
layerId = "C7668D88-AC50-4107-9C4B-DB5D26A8FA6C";
paths = (
{
closed = 1;
nodes = (
"385 -42 LINE",
"409 132 LINE",
"603 132 LINE",
"619 245 LINE",
"425 245 LINE",
"449 418 LINE",
"252 418 LINE",
"228 245 LINE",
"43 245 LINE",
"27 132 LINE",
"212 132 LINE",
"188 -42 LINE"
);
}
);
width = 646;
},
{
background = {
paths = (
{
closed = 1;
nodes = (
"182 0 LINE",
"207 176 LINE",
"346 176 LINE",
"348 193 LINE",
"209 193 LINE",
"232 354 LINE",
"215 354 LINE",
"192 193 LINE",
"54 193 LINE",
"52 176 LINE",
"190 176 LINE",
"165 0 LINE"
);
}
);
};
layerId = "B4E8C596-9C01-4F8A-BDA4-90320E25C0E6";
paths = (
{
closed = 1;
nodes = (
"182 0 LINE",
"207 176 LINE",
"346 176 LINE",
"348 193 LINE",
"209 193 LINE",
"232 354 LINE",
"215 354 LINE",
"192 193 LINE",
"54 193 LINE",
"52 176 LINE",
"190 176 LINE",
"165 0 LINE"
);
}
);
width = 398;
}
);
note = plus;
unicode = 002B;
},
{
glyphname = comma;
lastChange = "2021-06-22 13:13:00 +0000";
layers = (
{
layerId = "C7668D88-AC50-4107-9C4B-DB5D26A8FA6C";
paths = (
{
closed = 1;
nodes = (
"152 -142 LINE",
"192 -92 OFFCURVE",
"247 3 OFFCURVE",
"247 60 CURVE SMOOTH",
"247 114 OFFCURVE",
"211 122 OFFCURVE",
"152 122 CURVE SMOOTH",
"94 122 OFFCURVE",
"47 115 OFFCURVE",
"47 60 CURVE SMOOTH",
"47 17 OFFCURVE",
"68 5 OFFCURVE",
"100 1 CURVE SMOOTH",
"106 1 OFFCURVE",
"112 0 OFFCURVE",
"118 0 CURVE",
"93 -47 OFFCURVE",
"63 -95 OFFCURVE",
"35 -142 CURVE"
);
}
);
width = 282;
},
{
background = {
paths = (
{
closed = 1;
nodes = (
"69 -67 LINE",
"73 -61 OFFCURVE",
"101 -12 OFFCURVE",
"104 13 CURVE SMOOTH",
"106 27 OFFCURVE",
"102 31 OFFCURVE",
"89 31 CURVE SMOOTH",
"75 31 OFFCURVE",
"67 29 OFFCURVE",
"65 15 CURVE SMOOTH",
"63 1 OFFCURVE",
"74 0 OFFCURVE",
"81 0 CURVE SMOOTH",
"82 0 OFFCURVE",
"83 0 OFFCURVE",
"84 0 CURVE",
"82 -10 OFFCURVE",
"70 -43 OFFCURVE",
"58 -67 CURVE"
);
}
);
};
layerId = "B4E8C596-9C01-4F8A-BDA4-90320E25C0E6";
paths = (
{
closed = 1;
nodes = (
"69 -67 LINE",
"73 -61 OFFCURVE",
"101 -12 OFFCURVE",
"104 13 CURVE SMOOTH",
"106 27 OFFCURVE",
"102 31 OFFCURVE",
"89 31 CURVE SMOOTH",
"75 31 OFFCURVE",
"67 29 OFFCURVE",
"65 15 CURVE SMOOTH",
"63 1 OFFCURVE",
"74 0 OFFCURVE",
"81 0 CURVE SMOOTH",
"82 0 OFFCURVE",
"83 0 OFFCURVE",
"84 0 CURVE",
"82 -10 OFFCURVE",
"70 -43 OFFCURVE",
"58 -67 CURVE"
);
}
);
width = 160;
}
);
leftKerningGroup = comma;
note = comma;
rightKerningGroup = comma;
unicode = 002C;
},
{
color = 7;
glyphname = hyphen;
lastChange = "2021-06-22 13:13:00 +0000";
layers = (
{
layerId = "C7668D88-AC50-4107-9C4B-DB5D26A8FA6C";
paths = (
{
closed = 1;
nodes = (
"28 122 LINE",
"345 122 LINE",
"359 228 LINE",
"42 228 LINE"
);
}
);
width = 387;
},
{
background = {
paths = (
{
closed = 1;
nodes = (
"51 196 LINE",
"247 196 LINE",
"249 210 LINE",
"53 210 LINE"
);
}
);
};
layerId = "B4E8C596-9C01-4F8A-BDA4-90320E25C0E6";
paths = (
{
closed = 1;
nodes = (
"51 196 LINE",
"247 196 LINE",
"249 210 LINE",
"53 210 LINE"
);
}
);
width = 300;
}
);
note = hyphen;
unicode = 002D;
},
{
color = 7;
glyphname = period;
lastChange = "2021-06-22 13:13:00 +0000";
layers = (
{
layerId = "C7668D88-AC50-4107-9C4B-DB5D26A8FA6C";
paths = (
{
closed = 1;
nodes = (
"27 -1 OFFCURVE",
"66 -4 OFFCURVE",
"124 -4 CURVE SMOOTH",
"183 -4 OFFCURVE",
"222 -1 OFFCURVE",
"230 59 CURVE SMOOTH",
"238 113 OFFCURVE",
"203 122 OFFCURVE",
"146 122 CURVE SMOOTH",
"89 122 OFFCURVE",
"43 115 OFFCURVE",
"35 59 CURVE SMOOTH"
);
}
);
width = 265;
},
{
background = {
paths = (
{
closed = 1;
nodes = (
"103 1 OFFCURVE",
"114 0 OFFCURVE",
"121 0 CURVE SMOOTH",
"128 0 OFFCURVE",
"138 1 OFFCURVE",
"140 15 CURVE SMOOTH",
"142 30 OFFCURVE",
"133 31 OFFCURVE",
"124 31 CURVE SMOOTH",
"115 31 OFFCURVE",
"107 29 OFFCURVE",
"105 15 CURVE SMOOTH"
);
}
);
};
layerId = "B4E8C596-9C01-4F8A-BDA4-90320E25C0E6";
paths = (
{
closed = 1;
nodes = (
"103 1 OFFCURVE",
"114 0 OFFCURVE",
"121 0 CURVE SMOOTH",
"128 0 OFFCURVE",
"138 1 OFFCURVE",
"140 15 CURVE SMOOTH",
"142 30 OFFCURVE",
"133 31 OFFCURVE",
"124 31 CURVE SMOOTH",
"115 31 OFFCURVE",
"107 29 OFFCURVE",
"105 15 CURVE SMOOTH"
);
}
);
width = 203;
}
);
leftKerningGroup = comma;
note = period;
rightKerningGroup = comma;
unicode = 002E;
},
{
color = 7;
glyphname = slash;
lastChange = "2021-06-22 13:13:00 +0000";
layers = (
{
layerId = "C7668D88-AC50-4107-9C4B-DB5D26A8FA6C";
paths = (
{
closed = 1;
nodes = (
"135 -38 LINE",
"487 559 LINE",
"344 559 LINE",
"-7 -38 LINE"
);
}
);
width = 480;
},
{
background = {
paths = (
{
closed = 1;
nodes = (
"24 -38 LINE",
"341 581 LINE",
"321 581 LINE",
"4 -38 LINE"
);
}
);
};
layerId = "B4E8C596-9C01-4F8A-BDA4-90320E25C0E6";
paths = (
{
closed = 1;
nodes = (
"24 -38 LINE",
"341 581 LINE",
"321 581 LINE",
"4 -38 LINE"
);
}
);
width = 345;
}
);
note = slash;
unicode = 002F;
},
{
color = 7;
glyphname = zero;
lastChange = "2021-06-22 13:13:00 +0000";
layers = (
{
layerId = "C7668D88-AC50-4107-9C4B-DB5D26A8FA6C";
paths = (
{
closed = 1;
nodes = (
"8 28 OFFCURVE",
"104 -8 OFFCURVE",
"262 -8 CURVE SMOOTH",
"419 -8 OFFCURVE",
"546 20 OFFCURVE",
"576 231 CURVE SMOOTH",
"605 435 OFFCURVE",
"508 470 OFFCURVE",
"350 470 CURVE SMOOTH",
"194 470 OFFCURVE",
"67 442 OFFCURVE",
"37 231 CURVE SMOOTH"
);
},
{
closed = 1;
nodes = (
"255 373 OFFCURVE",
"287 394 OFFCURVE",
"331 394 CURVE SMOOTH",
"375 394 OFFCURVE",
"400 373 OFFCURVE",
"380 231 CURVE SMOOTH",
"360 91 OFFCURVE",
"329 69 OFFCURVE",
"285 69 CURVE SMOOTH",
"240 69 OFFCURVE",
"215 91 OFFCURVE",
"235 231 CURVE SMOOTH"
);
}
);
width = 612;
},
{
background = {
paths = (
{
closed = 1;
nodes = (
"11 15 OFFCURVE",
"85 -7 OFFCURVE",
"183 -7 CURVE SMOOTH",
"281 -7 OFFCURVE",
"371 9 OFFCURVE",
"402 231 CURVE SMOOTH",
"432 447 OFFCURVE",
"357 469 OFFCURVE",
"259 469 CURVE SMOOTH",
"162 469 OFFCURVE",
"72 453 OFFCURVE",
"41 231 CURVE SMOOTH"
);
},
{
closed = 1;
nodes = (
"89 426 OFFCURVE",
"151 453 OFFCURVE",
"251 453 CURVE SMOOTH",
"352 453 OFFCURVE",
"408 426 OFFCURVE",
"381 230 CURVE SMOOTH",
"353 35 OFFCURVE",
"290 9 OFFCURVE",
"189 9 CURVE SMOOTH",
"89 9 OFFCURVE",
"34 35 OFFCURVE",
"62 230 CURVE SMOOTH"
);
}
);
};
layerId = "B4E8C596-9C01-4F8A-BDA4-90320E25C0E6";
paths = (
{
closed = 1;
nodes = (
"11 15 OFFCURVE",
"85 -7 OFFCURVE",
"183 -7 CURVE SMOOTH",
"281 -7 OFFCURVE",
"371 9 OFFCURVE",
"402 231 CURVE SMOOTH",
"432 447 OFFCURVE",
"357 469 OFFCURVE",
"259 469 CURVE SMOOTH",
"162 469 OFFCURVE",
"72 453 OFFCURVE",
"41 231 CURVE SMOOTH"
);
},
{
closed = 1;
nodes = (
"89 426 OFFCURVE",
"151 453 OFFCURVE",
"251 453 CURVE SMOOTH",
"352 453 OFFCURVE",
"408 426 OFFCURVE",
"381 230 CURVE SMOOTH",
"353 35 OFFCURVE",
"290 9 OFFCURVE",
"189 9 CURVE SMOOTH",
"89 9 OFFCURVE",
"34 35 OFFCURVE",
"62 230 CURVE SMOOTH"
);
}
);
width = 444;
}
);
leftKerningGroup = zero;
note = zero;
rightKerningGroup = zero;
unicode = 0030;
},
{
color = 7;
glyphname = one;
lastChange = "2021-06-22 13:13:00 +0000";
layers = (
{
background = {
hints = (
{
horizontal = 1;
place = "{0, 21}";
target = up;
type = BottomGhost;
},
{
horizontal = 1;
place = "{360, 98}";
type = Stem;
},
{
place = "{139, 227}";
type = Stem;
}
);
paths = (
{
closed = 1;
nodes = (
"366 0 LINE",
"366 375 LINE SMOOTH",
"366 431 OFFCURVE",
"335 458 OFFCURVE",
"197 458 CURVE SMOOTH",
"145 458 OFFCURVE",
"80 455 OFFCURVE",
"0 446 CURVE",
"0 349 LINE",
"101 368 OFFCURVE",
"139 365 OFFCURVE",
"139 324 CURVE SMOOTH",
"138 0 LINE"
);
}
);
};
layerId = "C7668D88-AC50-4107-9C4B-DB5D26A8FA6C";
paths = (
{
closed = 1;
nodes = (
"334 0 LINE",
"342 57 OFFCURVE",
"378 289 OFFCURVE",
"388 372 CURVE SMOOTH",
"394 431 OFFCURVE",
"361 459 OFFCURVE",
"233 459 CURVE SMOOTH",
"179 459 OFFCURVE",
"112 455 OFFCURVE",
"30 446 CURVE",
"17 349 LINE",
"79 360 OFFCURVE",
"126 364 OFFCURVE",
"138 356 CURVE SMOOTH",
"148 349 OFFCURVE",
"154 338 OFFCURVE",
"145 274 CURVE SMOOTH",
"142 248 OFFCURVE",
"124 131 OFFCURVE",
"106 0 CURVE"
);
}
);
width = 405;
},
{
background = {
paths = (
{
closed = 1;
nodes = (
"123 0 LINE",
"131 57 OFFCURVE",
"164 289 OFFCURVE",
"179 395 CURVE SMOOTH",
"183 421 OFFCURVE",
"191 462 OFFCURVE",
"142 462 CURVE SMOOTH",
"124 462 OFFCURVE",
"81 451 OFFCURVE",
"72 448 CURVE",
"70 432 LINE",
"77 436 OFFCURVE",
"106 446 OFFCURVE",
"127 446 CURVE SMOOTH",
"152 446 OFFCURVE",
"164 439 OFFCURVE",
"158 394 CURVE SMOOTH",
"139 263 OFFCURVE",
"121 131 OFFCURVE",
"103 0 CURVE"
);
}
);
};
layerId = "B4E8C596-9C01-4F8A-BDA4-90320E25C0E6";
paths = (
{
closed = 1;
nodes = (
"123 0 LINE",
"131 57 OFFCURVE",
"164 289 OFFCURVE",
"179 395 CURVE SMOOTH",
"183 421 OFFCURVE",
"191 462 OFFCURVE",
"142 462 CURVE SMOOTH",
"124 462 OFFCURVE",
"81 451 OFFCURVE",
"72 448 CURVE",
"70 432 LINE",
"77 436 OFFCURVE",
"106 446 OFFCURVE",
"127 446 CURVE SMOOTH",
"152 446 OFFCURVE",
"164 439 OFFCURVE",
"158 394 CURVE SMOOTH",
"139 263 OFFCURVE",
"121 131 OFFCURVE",
"103 0 CURVE"
);
}
);
width = 236;
}
);
note = one;
rightKerningGroup = one;
unicode = 0031;
},
{
color = 7;
glyphname = two;
lastChange = "2021-06-22 13:13:00 +0000";
layers = (
{
background = {
hints = (
{
horizontal = 1;
place = "{-1, 139}";
type = Stem;
},
{
horizontal = 1;
place = "{139, 142}";
type = Stem;
},
{
horizontal = 1;
place = "{285, 141}";
type = Stem;
},
{
place = "{-27, 211}";
type = Stem;
},
{
place = "{341, 214}";
type = Stem;
}
);
paths = (
{
closed = 1;
nodes = (
"619 0 LINE",
"619 118 LINE",
"235 118 LINE",
"235 139 LINE SMOOTH",
"235 151 OFFCURVE",
"242 160 OFFCURVE",
"261 160 CURVE SMOOTH",
"297 160 OFFCURVE",
"334 160 OFFCURVE",
"370 160 CURVE SMOOTH",
"529 160 OFFCURVE",
"609 170 OFFCURVE",
"609 307 CURVE SMOOTH",
"609 465 OFFCURVE",
"463 461 OFFCURVE",
"320 461 CURVE SMOOTH",
"231 461 OFFCURVE",
"155 455 OFFCURVE",
"123 448 CURVE SMOOTH",
"73 437 OFFCURVE",
"57 422 OFFCURVE",
"57 394 CURVE SMOOTH",
"57 394 OFFCURVE",
"57 321 OFFCURVE",
"57 321 CURVE",
"73 329 OFFCURVE",
"113 333 OFFCURVE",
"160 336 CURVE SMOOTH",
"215 339 OFFCURVE",
"275 340 OFFCURVE",
"312 340 CURVE SMOOTH",
"375 340 OFFCURVE",
"427 344 OFFCURVE",
"427 315 CURVE SMOOTH",
"427 288 OFFCURVE",
"415 287 OFFCURVE",
"370 287 CURVE SMOOTH",
"321 287 OFFCURVE",
"273 287 OFFCURVE",
"224 287 CURVE SMOOTH",
"123 287 OFFCURVE",
"55 241 OFFCURVE",
"55 125 CURVE SMOOTH",
"55 83 OFFCURVE",
"55 42 OFFCURVE",
"55 0 CURVE"
);
}
);
};
layerId = "C7668D88-AC50-4107-9C4B-DB5D26A8FA6C";
paths = (
{
closed = 1;
nodes = (
"587 0 LINE",
"603 118 LINE",
"249 118 LINE",
"250 126 LINE SMOOTH",
"253 145 OFFCURVE",
"260 160 OFFCURVE",
"311 160 CURVE SMOOTH",
"357 160 OFFCURVE",
"379 160 OFFCURVE",
"397 160 CURVE SMOOTH",
"519 160 OFFCURVE",
"601 174 OFFCURVE",
"620 312 CURVE SMOOTH",
"640 449 OFFCURVE",
"530 461 OFFCURVE",
"352 461 CURVE SMOOTH",
"166 461 OFFCURVE",
"88 448 OFFCURVE",
"80 394 CURVE SMOOTH",
"80 394 OFFCURVE",
"73 345 OFFCURVE",
"69 319 CURVE",
"89 331 OFFCURVE",
"161 335 OFFCURVE",
"175 336 CURVE SMOOTH",
"192 337 OFFCURVE",
"228 340 OFFCURVE",
"285 340 CURVE SMOOTH",
"330 340 OFFCURVE",
"348 340 OFFCURVE",
"380 340 CURVE SMOOTH",
"408 340 OFFCURVE",
"432 339 OFFCURVE",
"429 313 CURVE SMOOTH",
"425 286 OFFCURVE",
"394 287 OFFCURVE",
"362 287 CURVE SMOOTH",
"321 287 OFFCURVE",
"307 287 OFFCURVE",
"266 287 CURVE SMOOTH",
"74 287 OFFCURVE",
"57 247 OFFCURVE",
"36 95 CURVE SMOOTH",
"31 63 OFFCURVE",
"27 32 OFFCURVE",
"23 0 CURVE"
);
}
);
width = 670;
},
{
background = {
paths = (
{
closed = 1;
nodes = (
"362 0 LINE",
"365 18 LINE",
"48 18 LINE",
"59 99 LINE SMOOTH",
"72 191 OFFCURVE",
"117 208 OFFCURVE",
"191 208 CURVE SMOOTH",
"218 208 OFFCURVE",
"246 208 OFFCURVE",
"273 208 CURVE SMOOTH",
"328 208 OFFCURVE",
"395 231 OFFCURVE",
"409 334 CURVE SMOOTH",
"426 455 OFFCURVE",
"346 463 OFFCURVE",
"245 463 CURVE SMOOTH",
"195 463 OFFCURVE",
"94 450 OFFCURVE",
"90 423 CURVE SMOOTH",
"90 423 OFFCURVE",
"88 406 OFFCURVE",
"88 406 CURVE",
"95 418 OFFCURVE",
"115 427 OFFCURVE",
"140 433 CURVE SMOOTH",
"177 443 OFFCURVE",
"223 447 OFFCURVE",
"257 447 CURVE SMOOTH",
"284 447 OFFCURVE",
"308 446 OFFCURVE",
"327 441 CURVE SMOOTH",
"374 431 OFFCURVE",
"397 403 OFFCURVE",
"387 334 CURVE SMOOTH",
"376 253 OFFCURVE",
"331 226 OFFCURVE",
"274 226 CURVE SMOOTH",
"249 226 OFFCURVE",
"224 226 OFFCURVE",
"199 226 CURVE SMOOTH",
"118 226 OFFCURVE",
"56 215 OFFCURVE",
"39 95 CURVE SMOOTH",
"34 63 OFFCURVE",
"30 32 OFFCURVE",
"25 0 CURVE"
);
}
);
};
layerId = "B4E8C596-9C01-4F8A-BDA4-90320E25C0E6";
paths = (
{
closed = 1;
nodes = (
"362 0 LINE",
"365 18 LINE",
"48 18 LINE",
"59 99 LINE SMOOTH",
"72 191 OFFCURVE",
"117 208 OFFCURVE",
"191 208 CURVE SMOOTH",
"218 208 OFFCURVE",
"246 208 OFFCURVE",
"273 208 CURVE SMOOTH",
"328 208 OFFCURVE",
"395 231 OFFCURVE",
"409 334 CURVE SMOOTH",
"426 455 OFFCURVE",
"346 463 OFFCURVE",
"245 463 CURVE SMOOTH",
"195 463 OFFCURVE",
"94 450 OFFCURVE",
"90 423 CURVE SMOOTH",
"90 423 OFFCURVE",
"88 406 OFFCURVE",
"88 406 CURVE",
"95 418 OFFCURVE",
"115 427 OFFCURVE",
"140 433 CURVE SMOOTH",
"177 443 OFFCURVE",
"223 447 OFFCURVE",
"257 447 CURVE SMOOTH",
"284 447 OFFCURVE",
"308 446 OFFCURVE",
"327 441 CURVE SMOOTH",
"374 431 OFFCURVE",
"397 403 OFFCURVE",
"387 334 CURVE SMOOTH",
"376 253 OFFCURVE",
"331 226 OFFCURVE",
"274 226 CURVE SMOOTH",
"249 226 OFFCURVE",
"224 226 OFFCURVE",
"199 226 CURVE SMOOTH",
"118 226 OFFCURVE",
"56 215 OFFCURVE",
"39 95 CURVE SMOOTH",
"34 63 OFFCURVE",
"30 32 OFFCURVE",
"25 0 CURVE"
);
}
);
width = 444;
}
);
note = two;
unicode = 0032;
},
{
color = 7;
glyphname = three;
lastChange = "2021-06-22 13:13:00 +0000";
layers = (
{
layerId = "C7668D88-AC50-4107-9C4B-DB5D26A8FA6C";
paths = (
{
closed = 1;
nodes = (
"122 329 OFFCURVE",
"224 339 OFFCURVE",
"272 339 CURVE SMOOTH",
"286 339 OFFCURVE",
"299 339 OFFCURVE",
"313 339 CURVE SMOOTH",
"359 339 OFFCURVE",
"385 334 OFFCURVE",
"382 313 CURVE SMOOTH",
"379 294 OFFCURVE",
"361 292 OFFCURVE",
"355 292 CURVE SMOOTH",
"121 292 LINE",
"105 176 LINE",
"334 176 LINE SMOOTH",
"345 176 OFFCURVE",
"367 176 OFFCURVE",
"363 150 CURVE SMOOTH",
"359 124 OFFCURVE",
"322 118 OFFCURVE",
"264 118 CURVE SMOOTH",
"200 118 OFFCURVE",
"105 124 OFFCURVE",
"26 145 CURVE",
"23 122 OFFCURVE",
"20 100 OFFCURVE",
"17 77 CURVE SMOOTH",
"14 55 OFFCURVE",
"19 27 OFFCURVE",
"58 14 CURVE SMOOTH",
"120 -2 OFFCURVE",
"187 -4 OFFCURVE",
"278 -4 CURVE SMOOTH",
"483 -4 OFFCURVE",
"566 19 OFFCURVE",
"583 145 CURVE SMOOTH",
"592 206 OFFCURVE",
"583 243 OFFCURVE",
"523 243 CURVE",
"523 244 LINE",
"568 248 OFFCURVE",
"589 282 OFFCURVE",
"594 322 CURVE SMOOTH",
"612 447 OFFCURVE",
"546 461 OFFCURVE",
"347 461 CURVE SMOOTH",
"254 461 OFFCURVE",
"171 454 OFFCURVE",
"143 449 CURVE SMOOTH",
"87 437 OFFCURVE",
"75 400 OFFCURVE",
"72 379 CURVE SMOOTH",
"69 357 OFFCURVE",
"66 334 OFFCURVE",
"63 312 CURVE"
);
}
);
width = 645;
},
{
background = {
paths = (
{
closed = 1;
nodes = (
"96 433 OFFCURVE",
"167 448 OFFCURVE",
"228 448 CURVE SMOOTH",
"238 448 OFFCURVE",
"247 448 OFFCURVE",
"255 448 CURVE SMOOTH",
"340 445 OFFCURVE",
"383 429 OFFCURVE",
"370 337 CURVE SMOOTH",
"361 268 OFFCURVE",
"329 242 OFFCURVE",
"287 242 CURVE SMOOTH",
"98 242 LINE",
"95 224 LINE",
"284 224 LINE SMOOTH",
"329 224 OFFCURVE",
"365 212 OFFCURVE",
"353 125 CURVE SMOOTH",
"339 28 OFFCURVE",
"272 8 OFFCURVE",
"169 8 CURVE SMOOTH",
"87 8 OFFCURVE",
"36 19 OFFCURVE",
"9 34 CURVE",
"4 21 OFFCURVE",
"6 14 OFFCURVE",
"16 10 CURVE SMOOTH",
"25 6 OFFCURVE",
"38 3 OFFCURVE",
"55 0 CURVE SMOOTH",
"84 -4 OFFCURVE",
"124 -7 OFFCURVE",
"168 -7 CURVE SMOOTH",
"299 -7 OFFCURVE",
"357 21 OFFCURVE",
"372 125 CURVE SMOOTH",
"384 211 OFFCURVE",
"355 234 OFFCURVE",
"321 235 CURVE",
"321 235 LINE",
"355 240 OFFCURVE",
"383 276 OFFCURVE",
"391 335 CURVE SMOOTH",
"403 423 OFFCURVE",
"384 463 OFFCURVE",
"245 463 CURVE SMOOTH",
"180 463 OFFCURVE",
"121 456 OFFCURVE",
"101 449 CURVE SMOOTH",
"85 444 OFFCURVE",
"81 442 OFFCURVE",
"80 432 CURVE SMOOTH",
"79 430 OFFCURVE",
"79 427 OFFCURVE",
"79 424 CURVE"
);
}
);
};
layerId = "B4E8C596-9C01-4F8A-BDA4-90320E25C0E6";
paths = (
{
closed = 1;
nodes = (
"96 433 OFFCURVE",
"167 448 OFFCURVE",
"228 448 CURVE SMOOTH",
"238 448 OFFCURVE",
"247 448 OFFCURVE",
"255 448 CURVE SMOOTH",
"340 445 OFFCURVE",
"383 429 OFFCURVE",
"370 337 CURVE SMOOTH",
"361 268 OFFCURVE",
"329 242 OFFCURVE",
"287 242 CURVE SMOOTH",
"98 242 LINE",
"95 224 LINE",
"284 224 LINE SMOOTH",
"329 224 OFFCURVE",
"365 212 OFFCURVE",
"353 125 CURVE SMOOTH",
"339 28 OFFCURVE",
"272 8 OFFCURVE",
"169 8 CURVE SMOOTH",
"87 8 OFFCURVE",
"36 19 OFFCURVE",
"9 34 CURVE",
"4 21 OFFCURVE",
"6 14 OFFCURVE",
"16 10 CURVE SMOOTH",
"25 6 OFFCURVE",
"38 3 OFFCURVE",
"55 0 CURVE SMOOTH",
"84 -4 OFFCURVE",
"124 -7 OFFCURVE",
"168 -7 CURVE SMOOTH",
"299 -7 OFFCURVE",
"357 21 OFFCURVE",
"372 125 CURVE SMOOTH",
"384 211 OFFCURVE",
"355 234 OFFCURVE",
"321 235 CURVE",
"321 235 LINE",
"355 240 OFFCURVE",
"383 276 OFFCURVE",
"391 335 CURVE SMOOTH",
"403 423 OFFCURVE",
"384 463 OFFCURVE",
"245 463 CURVE SMOOTH",
"180 463 OFFCURVE",
"121 456 OFFCURVE",
"101 449 CURVE SMOOTH",
"85 444 OFFCURVE",
"81 442 OFFCURVE",
"80 432 CURVE SMOOTH",
"79 430 OFFCURVE",
"79 427 OFFCURVE",
"79 424 CURVE"
);
}
);
width = 428;
}
);
note = three;
unicode = 0033;
},
{
color = 7;
glyphname = four;
lastChange = "2021-06-22 13:13:00 +0000";
layers = (
{
layerId = "C7668D88-AC50-4107-9C4B-DB5D26A8FA6C";
paths = (
{
closed = 1;
nodes = (
"530 0 LINE",
"540 76 LINE",
"630 76 LINE",
"647 192 LINE",
"557 192 LINE",
"586 398 LINE SMOOTH",
"586 404 OFFCURVE",
"595 455 OFFCURVE",
"597 460 CURVE",
"521 460 OFFCURVE",
"412 443 OFFCURVE",
"363 412 CURVE SMOOTH",
"19 186 LINE",
"3 76 LINE",
"336 76 LINE",
"326 0 LINE"
);
},
{
closed = 1;
nodes = (
"253 195 LINE",
"360 266 LINE",
"363 271 LINE",
"352 192 LINE",
"245 192 LINE"
);
}
);
width = 677;
},
{
background = {
paths = (
{
closed = 1;
nodes = (
"298 0 LINE",
"314 115 LINE",
"372 115 LINE",
"374 130 LINE",
"316 130 LINE",
"358 432 LINE SMOOTH",
"359 439 OFFCURVE",
"362 457 OFFCURVE",
"363 460 CURVE",
"344 460 OFFCURVE",
"333 457 OFFCURVE",
"316 440 CURVE SMOOTH",
"0 130 LINE",
"-2 115 LINE",
"294 115 LINE",
"278 0 LINE"
);
},
{
closed = 1;
nodes = (
"31 135 LINE",
"336 436 LINE",
"340 440 LINE",
"296 130 LINE",
"26 130 LINE"
);
}
);
};
layerId = "B4E8C596-9C01-4F8A-BDA4-90320E25C0E6";
paths = (
{
closed = 1;
nodes = (
"298 0 LINE",
"314 115 LINE",
"372 115 LINE",
"374 130 LINE",
"316 130 LINE",
"358 432 LINE SMOOTH",
"359 439 OFFCURVE",
"362 457 OFFCURVE",
"363 460 CURVE",
"344 460 OFFCURVE",
"333 457 OFFCURVE",
"316 440 CURVE SMOOTH",
"0 130 LINE",
"-2 115 LINE",
"294 115 LINE",
"278 0 LINE"
);
},
{
closed = 1;
nodes = (
"31 135 LINE",
"336 436 LINE",
"340 440 LINE",
"296 130 LINE",
"26 130 LINE"
);
}
);
width = 429;
}
);
note = four;
unicode = 0034;
},
{
color = 7;
glyphname = five;
lastChange = "2021-06-22 13:13:00 +0000";
layers = (
{
layerId = "C7668D88-AC50-4107-9C4B-DB5D26A8FA6C";
paths = (
{
closed = 1;
nodes = (
"598 227 OFFCURVE",
"587 284 OFFCURVE",
"511 300 CURVE SMOOTH",
"478 307 OFFCURVE",
"330 309 OFFCURVE",
"244 309 CURVE",
"249 345 LINE",
"603 345 LINE",
"620 460 LINE",
"88 460 LINE",
"49 185 LINE",
"116 192 OFFCURVE",
"281 201 OFFCURVE",
"381 190 CURVE SMOOTH",
"397 188 OFFCURVE",
"405 180 OFFCURVE",
"402 159 CURVE SMOOTH",
"398 126 OFFCURVE",
"357 118 OFFCURVE",
"292 118 CURVE SMOOTH",
"218 118 OFFCURVE",
"118 127 OFFCURVE",
"26 146 CURVE",
"12 41 OFFCURVE",
"1 28 OFFCURVE",
"63 12 CURVE SMOOTH",
"96 2 OFFCURVE",
"181 -4 OFFCURVE",
"278 -4 CURVE SMOOTH",
"483 -4 OFFCURVE",
"566 3 OFFCURVE",
"587 152 CURVE SMOOTH"
);
}
);
width = 649;
},
{
background = {
paths = (
{
closed = 1;
nodes = (
"392 252 OFFCURVE",
"368 277 OFFCURVE",
"226 277 CURVE SMOOTH",
"168 277 OFFCURVE",
"111 273 OFFCURVE",
"79 269 CURVE",
"104 445 LINE",
"411 445 LINE",
"413 460 LINE",
"86 460 LINE",
"56 248 LINE",
"81 254 OFFCURVE",
"153 262 OFFCURVE",
"217 262 CURVE SMOOTH",
"345 262 OFFCURVE",
"371 240 OFFCURVE",
"357 141 CURVE SMOOTH",
"341 30 OFFCURVE",
"274 8 OFFCURVE",
"171 8 CURVE SMOOTH",
"89 8 OFFCURVE",
"38 19 OFFCURVE",
"11 34 CURVE",
"6 21 OFFCURVE",
"8 15 OFFCURVE",
"19 10 CURVE SMOOTH",
"39 0 OFFCURVE",
"101 -7 OFFCURVE",
"170 -7 CURVE SMOOTH",
"301 -7 OFFCURVE",
"359 22 OFFCURVE",
"376 141 CURVE SMOOTH"
);
}
);
};
layerId = "B4E8C596-9C01-4F8A-BDA4-90320E25C0E6";
paths = (
{
closed = 1;
nodes = (
"392 252 OFFCURVE",
"368 277 OFFCURVE",
"226 277 CURVE SMOOTH",
"168 277 OFFCURVE",
"111 273 OFFCURVE",
"79 269 CURVE",
"104 445 LINE",
"411 445 LINE",
"413 460 LINE",
"86 460 LINE",
"56 248 LINE",
"81 254 OFFCURVE",
"153 262 OFFCURVE",
"217 262 CURVE SMOOTH",
"345 262 OFFCURVE",
"371 240 OFFCURVE",
"357 141 CURVE SMOOTH",
"341 30 OFFCURVE",
"274 8 OFFCURVE",
"171 8 CURVE SMOOTH",
"89 8 OFFCURVE",
"38 19 OFFCURVE",
"11 34 CURVE",
"6 21 OFFCURVE",
"8 15 OFFCURVE",
"19 10 CURVE SMOOTH",
"39 0 OFFCURVE",
"101 -7 OFFCURVE",
"170 -7 CURVE SMOOTH",
"301 -7 OFFCURVE",
"359 22 OFFCURVE",
"376 141 CURVE SMOOTH"
);
}
);
width = 444;
}
);
note = five;
unicode = 0035;
},
{
color = 7;
glyphname = six;
lastChange = "2021-06-22 13:13:00 +0000";
layers = (
{
layerId = "C7668D88-AC50-4107-9C4B-DB5D26A8FA6C";
paths = (
{
closed = 1;
nodes = (
"501 -4 OFFCURVE",
"562 28 OFFCURVE",
"581 161 CURVE SMOOTH",
"599 296 OFFCURVE",
"515 300 OFFCURVE",
"405 300 CURVE SMOOTH",
"327 300 OFFCURVE",
"247 291 OFFCURVE",
"217 277 CURVE",
"218 283 OFFCURVE",
"224 306 OFFCURVE",
"226 311 CURVE SMOOTH",
"236 337 OFFCURVE",
"271 344 OFFCURVE",
"295 344 CURVE SMOOTH",
"382 344 OFFCURVE",
"495 340 OFFCURVE",
"572 332 CURVE",
"612 422 OFFCURVE",
"581 448 OFFCURVE",
"518 453 CURVE SMOOTH",
"473 458 OFFCURVE",
"416 461 OFFCURVE",
"358 461 CURVE SMOOTH",
"311 461 OFFCURVE",
"261 459 OFFCURVE",
"226 455 CURVE SMOOTH",
"93 441 OFFCURVE",
"62 402 OFFCURVE",
"37 222 CURVE SMOOTH",
"8 12 OFFCURVE",
"34 -4 OFFCURVE",
"278 -4 CURVE SMOOTH"
);
},
{
closed = 1;
nodes = (
"237 107 OFFCURVE",
"205 112 OFFCURVE",
"201 146 CURVE SMOOTH",
"201 158 OFFCURVE",
"203 178 OFFCURVE",
"205 193 CURVE",
"245 193 OFFCURVE",
"284 193 OFFCURVE",
"324 193 CURVE SMOOTH",
"368 193 OFFCURVE",
"410 198 OFFCURVE",
"403 152 CURVE SMOOTH",
"397 108 OFFCURVE",
"348 107 OFFCURVE",
"297 107 CURVE SMOOTH"
);
}
);
width = 628;
},
{
background = {
paths = (
{
closed = 1;
nodes = (
"315 -4 OFFCURVE",
"365 27 OFFCURVE",
"382 148 CURVE SMOOTH",
"397 258 OFFCURVE",
"350 272 OFFCURVE",
"292 275 CURVE SMOOTH",
"228 278 OFFCURVE",
"132 271 OFFCURVE",
"74 260 CURVE",
"76 269 OFFCURVE",
"84 315 OFFCURVE",
"90 337 CURVE SMOOTH",
"121 447 OFFCURVE",
"190 447 OFFCURVE",
"273 447 CURVE SMOOTH",
"316 447 OFFCURVE",
"358 444 OFFCURVE",
"385 436 CURVE SMOOTH",
"398 432 OFFCURVE",
"405 428 OFFCURVE",
"410 425 CURVE",
"411 435 OFFCURVE",
"415 446 OFFCURVE",
"395 452 CURVE SMOOTH",
"377 458 OFFCURVE",
"323 462 OFFCURVE",
"276 462 CURVE SMOOTH",
"118 462 OFFCURVE",
"79 432 OFFCURVE",
"49 221 CURVE SMOOTH",
"24 45 OFFCURVE",
"20 -4 OFFCURVE",
"183 -4 CURVE SMOOTH"
);
},
{
closed = 1;
nodes = (
"91 9 OFFCURVE",
"51 23 OFFCURVE",
"57 123 CURVE SMOOTH",
"59 156 OFFCURVE",
"70 231 OFFCURVE",
"72 246 CURVE",
"95 251 OFFCURVE",
"229 266 OFFCURVE",
"288 259 CURVE SMOOTH",
"353 253 OFFCURVE",
"373 224 OFFCURVE",
"363 150 CURVE SMOOTH",
"345 24 OFFCURVE",
"288 9 OFFCURVE",
"184 9 CURVE SMOOTH"
);
}
);
};
layerId = "B4E8C596-9C01-4F8A-BDA4-90320E25C0E6";
paths = (
{
closed = 1;
nodes = (
"315 -4 OFFCURVE",
"365 27 OFFCURVE",
"382 148 CURVE SMOOTH",
"397 258 OFFCURVE",
"350 272 OFFCURVE",
"292 275 CURVE SMOOTH",
"228 278 OFFCURVE",
"132 271 OFFCURVE",
"74 260 CURVE",
"76 269 OFFCURVE",
"84 315 OFFCURVE",
"90 337 CURVE SMOOTH",
"121 447 OFFCURVE",
"190 447 OFFCURVE",
"273 447 CURVE SMOOTH",
"316 447 OFFCURVE",
"358 444 OFFCURVE",
"385 436 CURVE SMOOTH",
"398 432 OFFCURVE",
"405 428 OFFCURVE",
"410 425 CURVE",
"411 435 OFFCURVE",
"415 446 OFFCURVE",
"395 452 CURVE SMOOTH",
"377 458 OFFCURVE",
"323 462 OFFCURVE",
"276 462 CURVE SMOOTH",
"118 462 OFFCURVE",
"79 432 OFFCURVE",
"49 221 CURVE SMOOTH",
"24 45 OFFCURVE",
"20 -4 OFFCURVE",
"183 -4 CURVE SMOOTH"
);
},
{
closed = 1;
nodes = (
"91 9 OFFCURVE",
"51 23 OFFCURVE",
"57 123 CURVE SMOOTH",
"59 156 OFFCURVE",
"70 231 OFFCURVE",
"72 246 CURVE",
"95 251 OFFCURVE",
"229 266 OFFCURVE",
"288 259 CURVE SMOOTH",
"353 253 OFFCURVE",
"373 224 OFFCURVE",
"363 150 CURVE SMOOTH",
"345 24 OFFCURVE",
"288 9 OFFCURVE",
"184 9 CURVE SMOOTH"
);
}
);
width = 443;
}
);
leftKerningGroup = parenleft;
note = six;
unicode = 0036;
},
{
color = 7;
glyphname = seven;
lastChange = "2021-06-22 13:13:00 +0000";
layers = (
{
layerId = "C7668D88-AC50-4107-9C4B-DB5D26A8FA6C";
paths = (
{
closed = 1;
nodes = (
"255 0 LINE",
"320 72 OFFCURVE",
"528 297 OFFCURVE",
"561 336 CURVE",
"620 411 OFFCURVE",
"588 458 OFFCURVE",
"504 458 CURVE SMOOTH",
"69 458 LINE",
"53 343 LINE",
"362 343 LINE",
"54 0 LINE"
);
}
);
width = 618;
},
{
background = {
paths = (
{
closed = 1;
nodes = (
"120 0 LINE",
"210 146 OFFCURVE",
"302 291 OFFCURVE",
"392 437 CURVE SMOOTH",
"401 451 OFFCURVE",
"399 460 OFFCURVE",
"384 460 CURVE SMOOTH",
"74 460 LINE",
"72 445 LINE",
"375 445 LINE",
"100 0 LINE"
);
}
);
};
layerId = "B4E8C596-9C01-4F8A-BDA4-90320E25C0E6";
paths = (
{
closed = 1;
nodes = (
"120 0 LINE",
"210 146 OFFCURVE",
"302 291 OFFCURVE",
"392 437 CURVE SMOOTH",
"401 451 OFFCURVE",
"399 460 OFFCURVE",
"384 460 CURVE SMOOTH",
"74 460 LINE",
"72 445 LINE",
"375 445 LINE",
"100 0 LINE"
);
}
);
width = 403;
}
);
note = seven;
unicode = 0037;
},
{
color = 7;
glyphname = eight;
lastChange = "2021-06-22 13:13:00 +0000";
layers = (
{
layerId = "C7668D88-AC50-4107-9C4B-DB5D26A8FA6C";
paths = (
{
closed = 1;
nodes = (
"213 188 OFFCURVE",
"239 188 OFFCURVE",
"316 188 CURVE SMOOTH",
"390 188 OFFCURVE",
"414 188 OFFCURVE",
"408 148 CURVE SMOOTH",
"402 104 OFFCURVE",
"351 105 OFFCURVE",
"299 105 CURVE SMOOTH",
"236 105 OFFCURVE",
"201 105 OFFCURVE",
"207 148 CURVE SMOOTH"
);
},
{
closed = 1;
nodes = (
"413 304 OFFCURVE",
"392 304 OFFCURVE",
"331 304 CURVE SMOOTH",
"269 304 OFFCURVE",
"243 301 OFFCURVE",
"249 342 CURVE SMOOTH",
"253 371 OFFCURVE",
"296 371 OFFCURVE",
"337 371 CURVE SMOOTH",
"385 371 OFFCURVE",
"423 371 OFFCURVE",
"419 342 CURVE SMOOTH"
);
},
{
closed = 1;
nodes = (
"3 10 OFFCURVE",
"65 -4 OFFCURVE",
"286 -4 CURVE SMOOTH",
"515 -4 OFFCURVE",
"580 16 OFFCURVE",
"597 135 CURVE SMOOTH",
"605 192 OFFCURVE",
"581 235 OFFCURVE",
"523 245 CURVE",
"573 249 OFFCURVE",
"602 291 OFFCURVE",
"608 339 CURVE SMOOTH",
"625 455 OFFCURVE",
"528 465 OFFCURVE",
"352 464 CURVE SMOOTH",
"180 463 OFFCURVE",
"82 451 OFFCURVE",
"66 339 CURVE SMOOTH",
"60 291 OFFCURVE",
"77 249 OFFCURVE",
"125 244 CURVE",
"65 235 OFFCURVE",
"29 192 OFFCURVE",
"21 135 CURVE SMOOTH"
);
}
);
width = 642;
},
{
background = {
paths = (
{
closed = 1;
nodes = (
"62 233 OFFCURVE",
"102 232 OFFCURVE",
"218 232 CURVE SMOOTH",
"330 232 OFFCURVE",
"369 233 OFFCURVE",
"353 125 CURVE SMOOTH",
"339 21 OFFCURVE",
"291 13 OFFCURVE",
"183 13 CURVE SMOOTH",
"71 13 OFFCURVE",
"32 20 OFFCURVE",
"46 125 CURVE SMOOTH"
);
},
{
closed = 1;
nodes = (
"362 252 OFFCURVE",
"326 249 OFFCURVE",
"221 249 CURVE SMOOTH",
"114 249 OFFCURVE",
"75 252 OFFCURVE",
"89 352 CURVE SMOOTH",
"102 442 OFFCURVE",
"174 445 OFFCURVE",
"243 445 CURVE SMOOTH",
"325 445 OFFCURVE",
"389 440 OFFCURVE",
"376 352 CURVE SMOOTH"
);
},
{
closed = 1;
nodes = (
"13 27 OFFCURVE",
"29 -4 OFFCURVE",
"180 -4 CURVE SMOOTH",
"335 -4 OFFCURVE",
"361 28 OFFCURVE",
"375 130 CURVE SMOOTH",
"383 189 OFFCURVE",
"369 240 OFFCURVE",
"321 242 CURVE",
"356 244 OFFCURVE",
"385 286 OFFCURVE",
"393 342 CURVE SMOOTH",
"409 454 OFFCURVE",
"351 463 OFFCURVE",
"246 462 CURVE SMOOTH",
"143 461 OFFCURVE",
"83 449 OFFCURVE",
"68 342 CURVE SMOOTH",
"60 286 OFFCURVE",
"78 244 OFFCURVE",
"112 242 CURVE",
"70 240 OFFCURVE",
"35 189 OFFCURVE",
"27 130 CURVE SMOOTH"
);
}
);
};
layerId = "B4E8C596-9C01-4F8A-BDA4-90320E25C0E6";
paths = (
{
closed = 1;
nodes = (
"62 233 OFFCURVE",
"102 232 OFFCURVE",
"218 232 CURVE SMOOTH",
"330 232 OFFCURVE",
"369 233 OFFCURVE",
"353 125 CURVE SMOOTH",
"339 21 OFFCURVE",
"291 13 OFFCURVE",
"183 13 CURVE SMOOTH",
"71 13 OFFCURVE",
"32 20 OFFCURVE",
"46 125 CURVE SMOOTH"
);
},
{
closed = 1;
nodes = (
"362 252 OFFCURVE",
"326 249 OFFCURVE",
"221 249 CURVE SMOOTH",
"114 249 OFFCURVE",
"75 252 OFFCURVE",
"89 352 CURVE SMOOTH",
"102 442 OFFCURVE",
"174 445 OFFCURVE",
"243 445 CURVE SMOOTH",
"325 445 OFFCURVE",
"389 440 OFFCURVE",
"376 352 CURVE SMOOTH"
);
},
{
closed = 1;
nodes = (
"13 27 OFFCURVE",
"29 -4 OFFCURVE",
"180 -4 CURVE SMOOTH",
"335 -4 OFFCURVE",
"361 28 OFFCURVE",
"375 130 CURVE SMOOTH",
"383 189 OFFCURVE",
"369 240 OFFCURVE",
"321 242 CURVE",
"356 244 OFFCURVE",
"385 286 OFFCURVE",
"393 342 CURVE SMOOTH",
"409 454 OFFCURVE",
"351 463 OFFCURVE",
"246 462 CURVE SMOOTH",
"143 461 OFFCURVE",
"83 449 OFFCURVE",
"68 342 CURVE SMOOTH",
"60 286 OFFCURVE",
"78 244 OFFCURVE",
"112 242 CURVE",
"70 240 OFFCURVE",
"35 189 OFFCURVE",
"27 130 CURVE SMOOTH"
);
}
);
width = 430;
}
);
note = eight;
unicode = 0038;
},
{
color = 7;
glyphname = nine;
lastChange = "2021-06-22 13:13:00 +0000";
layers = (
{
layerId = "C7668D88-AC50-4107-9C4B-DB5D26A8FA6C";
paths = (
{
closed = 1;
nodes = (
"16 31 OFFCURVE",
"49 6 OFFCURVE",
"110 1 CURVE SMOOTH",
"214 -4 OFFCURVE",
"292 -4 OFFCURVE",
"403 4 CURVE SMOOTH",
"533 16 OFFCURVE",
"565 56 OFFCURVE",
"591 238 CURVE SMOOTH",
"620 447 OFFCURVE",
"594 464 OFFCURVE",
"350 464 CURVE SMOOTH",
"128 464 OFFCURVE",
"66 431 OFFCURVE",
"47 298 CURVE SMOOTH",
"28 161 OFFCURVE",
"138 148 OFFCURVE",
"241 153 CURVE SMOOTH",
"288 155 OFFCURVE",
"342 161 OFFCURVE",
"384 171 CURVE SMOOTH",
"396 174 OFFCURVE",
"409 177 OFFCURVE",
"409 177 CURVE",
"408 167 OFFCURVE",
"406 156 OFFCURVE",
"405 146 CURVE SMOOTH",
"401 116 OFFCURVE",
"360 117 OFFCURVE",
"332 115 CURVE SMOOTH",
"265 111 OFFCURVE",
"132 115 OFFCURVE",
"53 119 CURVE"
);
},
{
closed = 1;
nodes = (
"406 268 OFFCURVE",
"347 267 OFFCURVE",
"308 267 CURVE SMOOTH",
"254 267 OFFCURVE",
"216 261 OFFCURVE",
"223 308 CURVE SMOOTH",
"229 352 OFFCURVE",
"280 353 OFFCURVE",
"332 353 CURVE SMOOTH",
"393 353 OFFCURVE",
"426 352 OFFCURVE",
"425 315 CURVE",
"425 315 OFFCURVE",
"421 279 OFFCURVE",
"418 269 CURVE"
);
}
);
width = 642;
},
{
background = {
paths = (
{
closed = 1;
nodes = (
"20 16 OFFCURVE",
"16 9 OFFCURVE",
"37 2 CURVE",
"70 -5 OFFCURVE",
"201 -11 OFFCURVE",
"263 4 CURVE SMOOTH",
"331 20 OFFCURVE",
"359 67 OFFCURVE",
"384 241 CURVE SMOOTH",
"408 417 OFFCURVE",
"411 464 OFFCURVE",
"248 464 CURVE SMOOTH",
"126 464 OFFCURVE",
"69 440 OFFCURVE",
"51 312 CURVE SMOOTH",
"36 209 OFFCURVE",
"82 190 OFFCURVE",
"140 187 CURVE SMOOTH",
"179 185 OFFCURVE",
"229 187 OFFCURVE",
"275 191 CURVE SMOOTH",
"306 194 OFFCURVE",
"336 198 OFFCURVE",
"358 202 CURVE",
"357 193 OFFCURVE",
"348 147 OFFCURVE",
"342 125 CURVE SMOOTH",
"323 54 OFFCURVE",
"294 16 OFFCURVE",
"206 13 CURVE SMOOTH",
"119 9 OFFCURVE",
"39 17 OFFCURVE",
"21 26 CURVE"
);
},
{
closed = 1;
nodes = (
"336 211 OFFCURVE",
"212 197 OFFCURVE",
"149 204 CURVE SMOOTH",
"81 210 OFFCURVE",
"59 235 OFFCURVE",
"71 322 CURVE SMOOTH",
"86 427 OFFCURVE",
"146 449 OFFCURVE",
"242 449 CURVE SMOOTH",
"341 449 OFFCURVE",
"381 430 OFFCURVE",
"376 339 CURVE SMOOTH",
"374 305 OFFCURVE",
"368 265 OFFCURVE",
"361 217 CURVE"
);
}
);
};
layerId = "B4E8C596-9C01-4F8A-BDA4-90320E25C0E6";
paths = (
{
closed = 1;
nodes = (
"20 16 OFFCURVE",
"16 9 OFFCURVE",
"37 2 CURVE",
"70 -5 OFFCURVE",
"201 -11 OFFCURVE",
"263 4 CURVE SMOOTH",
"331 20 OFFCURVE",
"359 67 OFFCURVE",
"384 241 CURVE SMOOTH",
"408 417 OFFCURVE",
"411 464 OFFCURVE",
"248 464 CURVE SMOOTH",
"126 464 OFFCURVE",
"69 440 OFFCURVE",
"51 312 CURVE SMOOTH",
"36 209 OFFCURVE",
"82 190 OFFCURVE",
"140 187 CURVE SMOOTH",
"179 185 OFFCURVE",
"229 187 OFFCURVE",
"275 191 CURVE SMOOTH",
"306 194 OFFCURVE",
"336 198 OFFCURVE",
"358 202 CURVE",
"357 193 OFFCURVE",
"348 147 OFFCURVE",
"342 125 CURVE SMOOTH",
"323 54 OFFCURVE",
"294 16 OFFCURVE",
"206 13 CURVE SMOOTH",
"119 9 OFFCURVE",
"39 17 OFFCURVE",
"21 26 CURVE"
);
},
{
closed = 1;
nodes = (
"336 211 OFFCURVE",
"212 197 OFFCURVE",
"149 204 CURVE SMOOTH",
"81 210 OFFCURVE",
"59 235 OFFCURVE",
"71 322 CURVE SMOOTH",
"86 427 OFFCURVE",
"146 449 OFFCURVE",
"242 449 CURVE SMOOTH",
"341 449 OFFCURVE",
"381 430 OFFCURVE",
"376 339 CURVE SMOOTH",
"374 305 OFFCURVE",
"368 265 OFFCURVE",
"361 217 CURVE"
);
}
);
width = 424;
}
);
note = nine;
unicode = 0039;
},
{
color = 7;
glyphname = colon;
lastChange = "2021-06-22 13:13:00 +0000";
layers = (
{
layerId = "C7668D88-AC50-4107-9C4B-DB5D26A8FA6C";
paths = (
{
closed = 1;
nodes = (
"9 -1 OFFCURVE",
"48 -4 OFFCURVE",
"106 -4 CURVE SMOOTH",
"165 -4 OFFCURVE",
"204 -1 OFFCURVE",
"212 59 CURVE SMOOTH",
"220 113 OFFCURVE",
"185 122 OFFCURVE",
"128 122 CURVE SMOOTH",
"71 122 OFFCURVE",
"25 115 OFFCURVE",
"17 59 CURVE SMOOTH"
);
},
{
closed = 1;
nodes = (
"45 255 OFFCURVE",
"84 251 OFFCURVE",
"142 251 CURVE SMOOTH",
"201 251 OFFCURVE",
"240 255 OFFCURVE",
"248 315 CURVE SMOOTH",
"256 368 OFFCURVE",
"221 377 OFFCURVE",
"164 377 CURVE SMOOTH",
"107 377 OFFCURVE",
"61 371 OFFCURVE",
"53 315 CURVE SMOOTH"
);
}
);
width = 265;
},
{
background = {
paths = (
{
closed = 1;
nodes = (
"43 1 OFFCURVE",
"54 0 OFFCURVE",
"61 0 CURVE SMOOTH",
"68 0 OFFCURVE",
"78 1 OFFCURVE",
"80 15 CURVE SMOOTH",
"82 30 OFFCURVE",
"73 31 OFFCURVE",
"64 31 CURVE SMOOTH",
"55 31 OFFCURVE",
"47 29 OFFCURVE",
"45 15 CURVE SMOOTH"
);
},
{
closed = 1;
nodes = (
"84 300 OFFCURVE",
"95 299 OFFCURVE",
"102 299 CURVE SMOOTH",
"109 299 OFFCURVE",
"119 300 OFFCURVE",
"121 314 CURVE SMOOTH",
"123 329 OFFCURVE",
"114 330 OFFCURVE",
"105 330 CURVE SMOOTH",
"96 330 OFFCURVE",
"88 328 OFFCURVE",
"86 314 CURVE SMOOTH"
);
}
);
};
layerId = "B4E8C596-9C01-4F8A-BDA4-90320E25C0E6";
paths = (
{
closed = 1;
nodes = (
"43 1 OFFCURVE",
"54 0 OFFCURVE",
"61 0 CURVE SMOOTH",
"68 0 OFFCURVE",
"78 1 OFFCURVE",
"80 15 CURVE SMOOTH",
"82 30 OFFCURVE",
"73 31 OFFCURVE",
"64 31 CURVE SMOOTH",
"55 31 OFFCURVE",
"47 29 OFFCURVE",
"45 15 CURVE SMOOTH"
);
},
{
closed = 1;
nodes = (
"84 300 OFFCURVE",
"95 299 OFFCURVE",
"102 299 CURVE SMOOTH",
"109 299 OFFCURVE",
"119 300 OFFCURVE",
"121 314 CURVE SMOOTH",
"123 329 OFFCURVE",
"114 330 OFFCURVE",
"105 330 CURVE SMOOTH",
"96 330 OFFCURVE",
"88 328 OFFCURVE",
"86 314 CURVE SMOOTH"
);
}
);
width = 169;
}
);
note = colon;
unicode = 003A;
},
{
color = 7;
glyphname = semicolon;
lastChange = "2021-06-22 13:13:00 +0000";
layers = (
{
components = (
{
name = comma;
transform = "{1, 0, 0.14054, 1, -13, 0}";
}
);
layerId = "C7668D88-AC50-4107-9C4B-DB5D26A8FA6C";
paths = (
{
closed = 1;
nodes = (
"66 210 OFFCURVE",
"106 206 OFFCURVE",
"165 206 CURVE SMOOTH",
"223 206 OFFCURVE",
"261 210 OFFCURVE",
"270 270 CURVE SMOOTH",
"277 323 OFFCURVE",
"242 332 OFFCURVE",
"186 332 CURVE SMOOTH",
"128 332 OFFCURVE",
"82 326 OFFCURVE",
"75 270 CURVE SMOOTH"
);
}
);
width = 282;
},
{
background = {
components = (
{
name = comma;
transform = "{1, 0, 0.14054, 1, 2, 0}";
}
);
paths = (
{
closed = 1;
nodes = (
"103 300 OFFCURVE",
"114 299 OFFCURVE",
"121 299 CURVE SMOOTH",
"128 299 OFFCURVE",
"138 300 OFFCURVE",
"140 314 CURVE SMOOTH",
"142 329 OFFCURVE",
"133 330 OFFCURVE",
"124 330 CURVE SMOOTH",
"115 330 OFFCURVE",
"107 328 OFFCURVE",
"105 314 CURVE SMOOTH"
);
}
);
};
components = (
{
name = comma;
transform = "{1, 0, 0.14054, 1, 2, 0}";
}
);
layerId = "B4E8C596-9C01-4F8A-BDA4-90320E25C0E6";
paths = (
{
closed = 1;
nodes = (
"103 300 OFFCURVE",
"114 299 OFFCURVE",
"121 299 CURVE SMOOTH",
"128 299 OFFCURVE",
"138 300 OFFCURVE",
"140 314 CURVE SMOOTH",
"142 329 OFFCURVE",
"133 330 OFFCURVE",
"124 330 CURVE SMOOTH",
"115 330 OFFCURVE",
"107 328 OFFCURVE",
"105 314 CURVE SMOOTH"
);
}
);
width = 180;
}
);
note = semicolon;
unicode = 003B;
},
{
color = 7;
glyphname = less;
lastChange = "2021-06-22 13:13:00 +0000";
layers = (
{
layerId = "C7668D88-AC50-4107-9C4B-DB5D26A8FA6C";
paths = (
{
closed = 1;
nodes = (
"197 218 LINE",
"395 283 LINE",
"411 398 LINE",
"39 250 LINE",
"30 184 LINE",
"361 38 LINE",
"376 147 LINE"
);
}
);
width = 421;
},
{
background = {
paths = (
{
closed = 1;
nodes = (
"94 215 LINE",
"344 370 LINE",
"348 398 LINE",
"74 224 LINE",
"71 205 LINE",
"298 38 LINE",
"301 63 LINE"
);
}
);
};
layerId = "B4E8C596-9C01-4F8A-BDA4-90320E25C0E6";
paths = (
{
closed = 1;
nodes = (
"94 215 LINE",
"344 370 LINE",
"348 398 LINE",
"74 224 LINE",
"71 205 LINE",
"298 38 LINE",
"301 63 LINE"
);
}
);
width = 364;
}
);
note = less;
unicode = 003C;
},
{
color = 7;
glyphname = equal;
lastChange = "2021-06-22 13:13:00 +0000";
layers = (
{
layerId = "C7668D88-AC50-4107-9C4B-DB5D26A8FA6C";
paths = (
{
closed = 1;
nodes = (
"39 227 LINE",
"511 227 LINE",
"526 337 LINE",
"54 337 LINE"
);
},
{
closed = 1;
nodes = (
"16 67 LINE",
"488 67 LINE",
"503 177 LINE",
"31 177 LINE"
);
}
);
width = 542;
},
{
background = {
paths = (
{
closed = 1;
nodes = (
"60 254 LINE",
"354 254 LINE",
"355 268 LINE",
"61 268 LINE"
);
},
{
closed = 1;
nodes = (
"43 133 LINE",
"337 133 LINE",
"338 147 LINE",
"44 147 LINE"
);
}
);
};
layerId = "B4E8C596-9C01-4F8A-BDA4-90320E25C0E6";
paths = (
{
closed = 1;
nodes = (
"60 254 LINE",
"354 254 LINE",
"355 268 LINE",
"61 268 LINE"
);
},
{
closed = 1;
nodes = (
"43 133 LINE",
"337 133 LINE",
"338 147 LINE",
"44 147 LINE"
);
}
);
width = 398;
}
);
note = equal;
unicode = 003D;
},
{
color = 7;
glyphname = greater;
lastChange = "2021-06-22 13:13:00 +0000";
layers = (
{
layerId = "C7668D88-AC50-4107-9C4B-DB5D26A8FA6C";
paths = (
{
closed = 1;
nodes = (
"26 153 LINE",
"10 38 LINE",
"382 186 LINE",
"391 252 LINE",
"60 398 LINE",
"45 289 LINE",
"225 218 LINE"
);
}
);
width = 421;
},
{
background = {
paths = (
{
closed = 1;
nodes = (
"51 63 LINE",
"48 38 LINE",
"321 205 LINE",
"324 224 LINE",
"98 398 LINE",
"94 370 LINE",
"302 215 LINE"
);
}
);
};
layerId = "B4E8C596-9C01-4F8A-BDA4-90320E25C0E6";
paths = (
{
closed = 1;
nodes = (
"51 63 LINE",
"48 38 LINE",
"321 205 LINE",
"324 224 LINE",
"98 398 LINE",
"94 370 LINE",
"302 215 LINE"
);
}
);
width = 364;
}
);
note = greater;
unicode = 003E;
},
{
color = 7;
glyphname = question;
lastChange = "2021-06-22 13:13:00 +0000";
layers = (
{
layerId = "C7668D88-AC50-4107-9C4B-DB5D26A8FA6C";
paths = (
{
closed = 1;
nodes = (
"196 186 LINE",
"388 186 OFFCURVE",
"499 186 OFFCURVE",
"518 318 CURVE SMOOTH",
"533 424 OFFCURVE",
"499 460 OFFCURVE",
"339 460 CURVE SMOOTH",
"294 460 OFFCURVE",
"249 460 OFFCURVE",
"204 460 CURVE SMOOTH",
"166 460 OFFCURVE",
"124 458 OFFCURVE",
"103 456 CURVE SMOOTH",
"62 450 OFFCURVE",
"57 378 OFFCURVE",
"55 362 CURVE",
"63 363 OFFCURVE",
"147 365 OFFCURVE",
"163 365 CURVE SMOOTH",
"197 365 LINE SMOOTH",
"277 365 OFFCURVE",
"303 356 OFFCURVE",
"297 316 CURVE SMOOTH",
"291 269 OFFCURVE",
"263 263 OFFCURVE",
"183 263 CURVE SMOOTH",
"145 263 OFFCURVE",
"118 265 OFFCURVE",
"84 266 CURVE",
"83 259 OFFCURVE",
"95 147 OFFCURVE",
"95 147 CURVE",
"182 147 LINE"
);
},
{
closed = 1;
nodes = (
"37 -1 OFFCURVE",
"76 -4 OFFCURVE",
"134 -4 CURVE SMOOTH",
"192 -4 OFFCURVE",
"232 -1 OFFCURVE",
"240 59 CURVE SMOOTH",
"248 113 OFFCURVE",
"213 122 OFFCURVE",
"156 122 CURVE SMOOTH",
"98 122 OFFCURVE",
"53 115 OFFCURVE",
"45 59 CURVE SMOOTH"
);
}
);
width = 540;
},
{
background = {
paths = (
{
closed = 1;
nodes = (
"101 209 LINE",
"217 209 OFFCURVE",
"319 210 OFFCURVE",
"337 338 CURVE SMOOTH",
"352 443 OFFCURVE",
"301 456 OFFCURVE",
"224 459 CURVE SMOOTH",
"198 460 OFFCURVE",
"136 460 OFFCURVE",
"115 459 CURVE SMOOTH",
"95 458 OFFCURVE",
"73 457 OFFCURVE",
"71 445 CURVE SMOOTH",
"71 443 OFFCURVE",
"71 442 OFFCURVE",
"71 440 CURVE",
"73 441 OFFCURVE",
"93 446 OFFCURVE",
"129 446 CURVE SMOOTH",
"205 446 LINE SMOOTH",
"306 446 OFFCURVE",
"330 417 OFFCURVE",
"319 340 CURVE SMOOTH",
"307 249 OFFCURVE",
"259 225 OFFCURVE",
"155 223 CURVE SMOOTH",
"140 222 OFFCURVE",
"98 222 OFFCURVE",
"86 223 CURVE",
"82 184 OFFCURVE",
"77 146 OFFCURVE",
"73 107 CURVE",
"83 107 LINE"
);
},
{
closed = 1;
nodes = (
"47 1 OFFCURVE",
"58 0 OFFCURVE",
"65 0 CURVE SMOOTH",
"72 0 OFFCURVE",
"82 1 OFFCURVE",
"84 15 CURVE SMOOTH",
"86 30 OFFCURVE",
"77 31 OFFCURVE",
"68 31 CURVE SMOOTH",
"59 31 OFFCURVE",
"51 29 OFFCURVE",
"49 15 CURVE SMOOTH"
);
}
);
};
layerId = "B4E8C596-9C01-4F8A-BDA4-90320E25C0E6";
paths = (
{
closed = 1;
nodes = (
"101 209 LINE",
"217 209 OFFCURVE",
"319 210 OFFCURVE",
"337 338 CURVE SMOOTH",
"352 443 OFFCURVE",
"301 456 OFFCURVE",
"224 459 CURVE SMOOTH",
"198 460 OFFCURVE",
"136 460 OFFCURVE",
"115 459 CURVE SMOOTH",
"95 458 OFFCURVE",
"73 457 OFFCURVE",
"71 445 CURVE SMOOTH",
"71 443 OFFCURVE",
"71 442 OFFCURVE",
"71 440 CURVE",
"73 441 OFFCURVE",
"93 446 OFFCURVE",
"129 446 CURVE SMOOTH",
"205 446 LINE SMOOTH",
"306 446 OFFCURVE",
"330 417 OFFCURVE",
"319 340 CURVE SMOOTH",
"307 249 OFFCURVE",
"259 225 OFFCURVE",
"155 223 CURVE SMOOTH",
"140 222 OFFCURVE",
"98 222 OFFCURVE",
"86 223 CURVE",
"82 184 OFFCURVE",
"77 146 OFFCURVE",
"73 107 CURVE",
"83 107 LINE"
);
},
{
closed = 1;
nodes = (
"47 1 OFFCURVE",
"58 0 OFFCURVE",
"65 0 CURVE SMOOTH",
"72 0 OFFCURVE",
"82 1 OFFCURVE",
"84 15 CURVE SMOOTH",
"86 30 OFFCURVE",
"77 31 OFFCURVE",
"68 31 CURVE SMOOTH",
"59 31 OFFCURVE",
"51 29 OFFCURVE",
"49 15 CURVE SMOOTH"
);
}
);
width = 364;
}
);
note = question;
unicode = 003F;
},
{
color = 7;
glyphname = at;
lastChange = "2021-06-22 13:13:00 +0000";
layers = (
{
layerId = "C7668D88-AC50-4107-9C4B-DB5D26A8FA6C";
paths = (
{
closed = 1;
nodes = (
"592 411 OFFCURVE",
"703 403 OFFCURVE",
"682 257 CURVE SMOOTH",
"673 190 OFFCURVE",
"661 131 OFFCURVE",
"621 130 CURVE SMOOTH",
"606 129 OFFCURVE",
"592 138 OFFCURVE",
"595 158 CURVE SMOOTH",
"601 201 OFFCURVE",
"607 244 OFFCURVE",
"613 287 CURVE SMOOTH",
"617 310 OFFCURVE",
"621 330 OFFCURVE",
"623 335 CURVE",
"605 338 OFFCURVE",
"490 346 OFFCURVE",
"450 346 CURVE SMOOTH",
"293 346 OFFCURVE",
"214 327 OFFCURVE",
"198 212 CURVE SMOOTH",
"181 90 OFFCURVE",
"226 73 OFFCURVE",
"336 73 CURVE SMOOTH",
"378 73 OFFCURVE",
"426 75 OFFCURVE",
"458 85 CURVE SMOOTH",
"477 90 OFFCURVE",
"496 110 OFFCURVE",
"498 131 CURVE",
"513 66 OFFCURVE",
"562 66 OFFCURVE",
"605 67 CURVE SMOOTH",
"721 72 OFFCURVE",
"767 138 OFFCURVE",
"781 269 CURVE SMOOTH",
"803 476 OFFCURVE",
"660 476 OFFCURVE",
"435 476 CURVE SMOOTH",
"161 476 OFFCURVE",
"70 454 OFFCURVE",
"31 181 CURVE SMOOTH",
"24 129 OFFCURVE",
"20 85 OFFCURVE",
"27 50 CURVE SMOOTH",
"54 -92 OFFCURVE",
"369 -64 OFFCURVE",
"482 -57 CURVE SMOOTH",
"585 -51 OFFCURVE",
"684 -38 OFFCURVE",
"755 -13 CURVE",
"759 15 OFFCURVE",
"763 42 OFFCURVE",
"767 70 CURVE",
"692 27 OFFCURVE",
"466 8 OFFCURVE",
"309 10 CURVE SMOOTH",
"166 10 OFFCURVE",
"106 31 OFFCURVE",
"129 190 CURVE SMOOTH",
"157 388 OFFCURVE",
"222 411 OFFCURVE",
"435 411 CURVE SMOOTH"
);
},
{
closed = 1;
nodes = (
"446 206 LINE SMOOTH",
"440 164 OFFCURVE",
"410 158 OFFCURVE",
"395 158 CURVE SMOOTH",
"367 158 OFFCURVE",
"351 158 OFFCURVE",
"360 218 CURVE SMOOTH",
"365 254 OFFCURVE",
"389 261 OFFCURVE",
"412 262 CURVE SMOOTH",
"428 262 OFFCURVE",
"444 259 OFFCURVE",
"453 259 CURVE"
);
}
);
width = 821;
},
{
background = {
paths = (
{
closed = 1;
nodes = (
"560 453 OFFCURVE",
"665 445 OFFCURVE",
"641 271 CURVE SMOOTH",
"628 179 OFFCURVE",
"603 114 OFFCURVE",
"540 114 CURVE SMOOTH",
"516 114 OFFCURVE",
"493 118 OFFCURVE",
"498 151 CURVE SMOOTH",
"504 198 OFFCURVE",
"511 244 OFFCURVE",
"517 291 CURVE SMOOTH",
"521 314 OFFCURVE",
"524 333 OFFCURVE",
"526 336 CURVE",
"509 338 OFFCURVE",
"444 342 OFFCURVE",
"392 344 CURVE SMOOTH",
"281 348 OFFCURVE",
"223 338 OFFCURVE",
"206 219 CURVE SMOOTH",
"191 114 OFFCURVE",
"230 91 OFFCURVE",
"325 91 CURVE SMOOTH",
"356 91 OFFCURVE",
"385 94 OFFCURVE",
"410 101 CURVE SMOOTH",
"438 110 OFFCURVE",
"461 123 OFFCURVE",
"476 142 CURVE",
"474 122 OFFCURVE",
"485 98 OFFCURVE",
"537 98 CURVE SMOOTH",
"635 98 OFFCURVE",
"650 204 OFFCURVE",
"659 268 CURVE SMOOTH",
"685 453 OFFCURVE",
"592 469 OFFCURVE",
"404 469 CURVE SMOOTH",
"211 469 OFFCURVE",
"111 435 OFFCURVE",
"80 214 CURVE SMOOTH",
"65 113 OFFCURVE",
"78 52 OFFCURVE",
"116 16 CURVE SMOOTH",
"159 -25 OFFCURVE",
"237 -34 OFFCURVE",
"347 -34 CURVE SMOOTH",
"464 -34 OFFCURVE",
"586 -7 OFFCURVE",
"647 14 CURVE",
"649 22 OFFCURVE",
"650 29 OFFCURVE",
"651 37 CURVE",
"590 9 OFFCURVE",
"464 -16 OFFCURVE",
"347 -16 CURVE SMOOTH",
"159 -16 OFFCURVE",
"70 7 OFFCURVE",
"100 214 CURVE SMOOTH",
"127 409 OFFCURVE",
"200 453 OFFCURVE",
"401 453 CURVE SMOOTH"
);
},
{
closed = 1;
nodes = (
"487 214 LINE SMOOTH",
"472 113 OFFCURVE",
"386 108 OFFCURVE",
"339 108 CURVE SMOOTH",
"235 108 OFFCURVE",
"215 130 OFFCURVE",
"228 223 CURVE SMOOTH",
"240 307 OFFCURVE",
"271 329 OFFCURVE",
"377 329 CURVE SMOOTH",
"424 329 OFFCURVE",
"489 324 OFFCURVE",
"502 323 CURVE"
);
}
);
};
layerId = "B4E8C596-9C01-4F8A-BDA4-90320E25C0E6";
paths = (
{
closed = 1;
nodes = (
"560 453 OFFCURVE",
"665 445 OFFCURVE",
"641 271 CURVE SMOOTH",
"628 179 OFFCURVE",
"603 114 OFFCURVE",
"540 114 CURVE SMOOTH",
"516 114 OFFCURVE",
"493 118 OFFCURVE",
"498 151 CURVE SMOOTH",
"504 198 OFFCURVE",
"511 244 OFFCURVE",
"517 291 CURVE SMOOTH",
"521 314 OFFCURVE",
"524 333 OFFCURVE",
"526 336 CURVE",
"509 338 OFFCURVE",
"444 342 OFFCURVE",
"392 344 CURVE SMOOTH",
"281 348 OFFCURVE",
"223 338 OFFCURVE",
"206 219 CURVE SMOOTH",
"191 114 OFFCURVE",
"230 91 OFFCURVE",
"325 91 CURVE SMOOTH",
"356 91 OFFCURVE",
"385 94 OFFCURVE",
"410 101 CURVE SMOOTH",
"438 110 OFFCURVE",
"461 123 OFFCURVE",
"476 142 CURVE",
"474 122 OFFCURVE",
"485 98 OFFCURVE",
"537 98 CURVE SMOOTH",
"635 98 OFFCURVE",
"650 204 OFFCURVE",
"659 268 CURVE SMOOTH",
"685 453 OFFCURVE",
"592 469 OFFCURVE",
"404 469 CURVE SMOOTH",
"211 469 OFFCURVE",
"111 435 OFFCURVE",
"80 214 CURVE SMOOTH",
"65 113 OFFCURVE",
"78 52 OFFCURVE",
"116 16 CURVE SMOOTH",
"159 -25 OFFCURVE",
"237 -34 OFFCURVE",
"347 -34 CURVE SMOOTH",
"464 -34 OFFCURVE",
"586 -7 OFFCURVE",
"647 14 CURVE",
"649 22 OFFCURVE",
"650 29 OFFCURVE",
"651 37 CURVE",
"590 9 OFFCURVE",
"464 -16 OFFCURVE",
"347 -16 CURVE SMOOTH",
"159 -16 OFFCURVE",
"70 7 OFFCURVE",
"100 214 CURVE SMOOTH",
"127 409 OFFCURVE",
"200 453 OFFCURVE",
"401 453 CURVE SMOOTH"
);
},
{
closed = 1;
nodes = (
"487 214 LINE SMOOTH",
"472 113 OFFCURVE",
"386 108 OFFCURVE",
"339 108 CURVE SMOOTH",
"235 108 OFFCURVE",
"215 130 OFFCURVE",
"228 223 CURVE SMOOTH",
"240 307 OFFCURVE",
"271 329 OFFCURVE",
"377 329 CURVE SMOOTH",
"424 329 OFFCURVE",
"489 324 OFFCURVE",
"502 323 CURVE"
);
}
);
width = 756;
}
);
note = at;
unicode = 0040;
},
{
color = 7;
glyphname = A;
lastChange = "2021-06-22 13:13:00 +0000";
layers = (
{
anchors = (
{
name = bottom;
position = "{318, 0}";
},
{
name = ogonek;
position = "{596, 10}";
},
{
name = top;
position = "{383, 460}";
}
);
background = {
hints = (
{
horizontal = 1;
place = "{64, 151}";
type = Stem;
},
{
horizontal = 1;
place = "{460, -20}";
target = down;
type = TopGhost;
},
{
place = "{26, 685}";
type = Stem;
},
{
horizontal = 1;
place = "{0, 215}";
type = Stem;
}
);
paths = (
{
closed = 1;
nodes = (
"355 169 LINE",
"254 169 LINE",
"302 265 LINE",
"305 274 LINE",
"306 274 LINE",
"309 265 LINE"
);
},
{
closed = 1;
nodes = (
"510 374 LINE SMOOTH",
"482 434 OFFCURVE",
"427 464 OFFCURVE",
"345 464 CURVE SMOOTH",
"251 464 OFFCURVE",
"210 430 OFFCURVE",
"183 374 CURVE SMOOTH",
"5 0 LINE",
"179 0 LINE",
"219 86 LINE",
"397 86 LINE",
"440 0 LINE",
"687 0 LINE"
);
}
);
};
layerId = "C7668D88-AC50-4107-9C4B-DB5D26A8FA6C";
paths = (
{
closed = 1;
nodes = (
"146 0 LINE",
"198 86 LINE",
"376 86 LINE",
"407 0 LINE",
"654 0 LINE",
"530 374 LINE",
"510 434 OFFCURVE",
"460 464 OFFCURVE",
"383 464 CURVE",
"284 464 OFFCURVE",
"238 430 OFFCURVE",
"203 374 CURVE",
"-27 0 LINE"
);
},
{
closed = 1;
nodes = (
"307 265 LINE",
"309 269 OFFCURVE",
"312 274 OFFCURVE",
"312 274 CURVE",
"312 274 OFFCURVE",
"313 269 OFFCURVE",
"314 265 CURVE",
"346 169 LINE",
"245 169 LINE"
);
}
);
width = 692;
},
{
anchors = (
{
name = bottom;
position = "{176, 0}";
},
{
name = ogonek;
position = "{363, 10}";
},
{
name = top;
position = "{235, 460}";
}
);
background = {
paths = (
{
closed = 1;
nodes = (
"-12 0 LINE",
"50 142 LINE",
"328 142 LINE",
"351 0 LINE",
"371 0 LINE",
"307 400 LINE SMOOTH",
"299 445 OFFCURVE",
"290 464 OFFCURVE",
"235 464 CURVE SMOOTH",
"180 464 OFFCURVE",
"161 441 OFFCURVE",
"144 400 CURVE SMOOTH",
"-29 0 LINE"
);
},
{
closed = 1;
nodes = (
"161 400 LINE SMOOTH",
"171 424 OFFCURVE",
"182 449 OFFCURVE",
"232 449 CURVE SMOOTH",
"276 449 OFFCURVE",
"282 425 OFFCURVE",
"287 400 CURVE SMOOTH",
"326 159 LINE",
"58 159 LINE"
);
}
);
};
layerId = "B4E8C596-9C01-4F8A-BDA4-90320E25C0E6";
paths = (
{
closed = 1;
nodes = (
"-12 0 LINE",
"50 142 LINE",
"328 142 LINE",
"351 0 LINE",
"371 0 LINE",
"307 400 LINE SMOOTH",
"300 445 OFFCURVE",
"290 464 OFFCURVE",
"235 464 CURVE SMOOTH",
"180 464 OFFCURVE",
"162 441 OFFCURVE",
"144 400 CURVE SMOOTH",
"-29 0 LINE"
);
},
{
closed = 1;
nodes = (
"161 400 LINE SMOOTH",
"171 424 OFFCURVE",
"182 449 OFFCURVE",
"232 449 CURVE SMOOTH",
"276 449 OFFCURVE",
"283 425 OFFCURVE",
"287 400 CURVE SMOOTH",
"326 159 LINE",
"58 159 LINE"
);
}
);
width = 408;
}
);
leftKerningGroup = A;
note = A;
rightKerningGroup = A;
unicode = 0041;
},
{
color = 7;
glyphname = B;
lastChange = "2021-06-22 13:13:00 +0000";
layers = (
{
background = {
hints = (
{
horizontal = 1;
place = "{0, 103}";
type = Stem;
},
{
horizontal = 1;
place = "{189, 97}";
type = Stem;
},
{
horizontal = 1;
place = "{372, 88}";
type = Stem;
},
{
place = "{40, 228}";
type = Stem;
},
{
place = "{434, 227}";
type = Stem;
}
);
paths = (
{
closed = 1;
nodes = (
"643 417 OFFCURVE",
"621 460 OFFCURVE",
"513 460 CURVE SMOOTH",
"116 460 LINE SMOOTH",
"49 460 OFFCURVE",
"40 432 OFFCURVE",
"40 376 CURVE SMOOTH",
"40 0 LINE",
"510 0 LINE SMOOTH",
"627 0 OFFCURVE",
"661 22 OFFCURVE",
"661 137 CURVE SMOOTH",
"661 200 OFFCURVE",
"636 237 OFFCURVE",
"592 242 CURVE SMOOTH",
"579 243 OFFCURVE",
"557 243 OFFCURVE",
"552 243 CURVE",
"552 245 LINE",
"579 245 OFFCURVE",
"600 253 OFFCURVE",
"614 265 CURVE SMOOTH",
"634 282 OFFCURVE",
"643 315 OFFCURVE",
"643 347 CURVE SMOOTH"
);
},
{
closed = 1;
nodes = (
"388 189 LINE SMOOTH",
"428 189 OFFCURVE",
"434 177 OFFCURVE",
"434 147 CURVE SMOOTH",
"434 103 OFFCURVE",
"422 103 OFFCURVE",
"387 103 CURVE SMOOTH",
"268 103 LINE",
"268 189 LINE"
);
},
{
closed = 1;
nodes = (
"268 372 LINE",
"381 372 LINE SMOOTH",
"411 372 OFFCURVE",
"417 360 OFFCURVE",
"417 330 CURVE SMOOTH",
"417 286 OFFCURVE",
"405 286 OFFCURVE",
"381 286 CURVE SMOOTH",
"268 286 LINE"
);
}
);
};
layerId = "C7668D88-AC50-4107-9C4B-DB5D26A8FA6C";
paths = (
{
closed = 1;
nodes = (
"8 0 LINE",
"37 -1 OFFCURVE",
"314 -1 OFFCURVE",
"430 -1 CURVE SMOOTH",
"595 -1 OFFCURVE",
"632 22 OFFCURVE",
"648 137 CURVE SMOOTH",
"659 218 OFFCURVE",
"638 245 OFFCURVE",
"554 245 CURVE",
"581 245 OFFCURVE",
"648 255 OFFCURVE",
"662 348 CURVE SMOOTH",
"671 413 OFFCURVE",
"647 452 OFFCURVE",
"571 459 CURVE SMOOTH",
"514 464 OFFCURVE",
"406 462 OFFCURVE",
"119 460 CURVE SMOOTH",
"89 460 OFFCURVE",
"71 453 OFFCURVE",
"66 414 CURVE SMOOTH"
);
},
{
closed = 1;
nodes = (
"235 286 LINE",
"234 279 OFFCURVE",
"217 189 OFFCURVE",
"231 189 CURVE SMOOTH",
"382 189 LINE SMOOTH",
"422 189 OFFCURVE",
"426 177 OFFCURVE",
"422 147 CURVE SMOOTH",
"416 103 OFFCURVE",
"405 103 OFFCURVE",
"369 103 CURVE SMOOTH",
"255 103 OFFCURVE",
"266 103 OFFCURVE",
"250 103 CURVE",
"284 344 LINE SMOOTH",
"287 369 OFFCURVE",
"309 372 OFFCURVE",
"314 372 CURVE SMOOTH",
"348 372 OFFCURVE",
"382 372 OFFCURVE",
"405 372 CURVE SMOOTH",
"431 372 OFFCURVE",
"435 358 OFFCURVE",
"431 330 CURVE SMOOTH",
"425 286 OFFCURVE",
"413 286 OFFCURVE",
"389 286 CURVE SMOOTH"
);
}
);
width = 697;
},
{
background = {
paths = (
{
closed = 1;
nodes = (
"20 0 LINE",
"49 -2 OFFCURVE",
"105 -3 OFFCURVE",
"216 -3 CURVE SMOOTH",
"297 -3 OFFCURVE",
"417 -4 OFFCURVE",
"435 123 CURVE SMOOTH",
"450 232 OFFCURVE",
"389 238 OFFCURVE",
"355 238 CURVE",
"388 243 OFFCURVE",
"437 269 OFFCURVE",
"448 348 CURVE SMOOTH",
"457 413 OFFCURVE",
"433 452 OFFCURVE",
"357 459 CURVE SMOOTH",
"300 464 OFFCURVE",
"192 462 OFFCURVE",
"131 460 CURVE SMOOTH",
"101 459 OFFCURVE",
"83 453 OFFCURVE",
"78 414 CURVE SMOOTH"
);
},
{
closed = 1;
nodes = (
"119 244 LINE",
"118 237 OFFCURVE",
"116 227 OFFCURVE",
"128 227 CURVE SMOOTH",
"299 227 LINE SMOOTH",
"400 227 OFFCURVE",
"425 203 OFFCURVE",
"414 124 CURVE SMOOTH",
"399 14 OFFCURVE",
"304 14 OFFCURVE",
"219 14 CURVE SMOOTH",
"105 14 OFFCURVE",
"51 15 OFFCURVE",
"42 16 CURVE",
"98 416 LINE SMOOTH",
"102 441 OFFCURVE",
"124 443 OFFCURVE",
"129 443 CURVE SMOOTH",
"174 445 OFFCURVE",
"287 449 OFFCURVE",
"358 441 CURVE SMOOTH",
"414 435 OFFCURVE",
"434 403 OFFCURVE",
"427 350 CURVE SMOOTH",
"415 263 OFFCURVE",
"357 244 OFFCURVE",
"300 244 CURVE SMOOTH"
);
}
);
};
layerId = "B4E8C596-9C01-4F8A-BDA4-90320E25C0E6";
paths = (
{
closed = 1;
nodes = (
"20 0 LINE",
"49 -2 OFFCURVE",
"105 -3 OFFCURVE",
"216 -3 CURVE SMOOTH",
"297 -3 OFFCURVE",
"417 -4 OFFCURVE",
"435 123 CURVE SMOOTH",
"450 232 OFFCURVE",
"389 238 OFFCURVE",
"355 238 CURVE",
"388 243 OFFCURVE",
"437 269 OFFCURVE",
"448 348 CURVE SMOOTH",
"457 413 OFFCURVE",
"433 452 OFFCURVE",
"357 459 CURVE SMOOTH",
"300 464 OFFCURVE",
"192 462 OFFCURVE",
"131 460 CURVE SMOOTH",
"101 459 OFFCURVE",
"83 453 OFFCURVE",
"78 414 CURVE SMOOTH"
);
},
{
closed = 1;
nodes = (
"119 244 LINE",
"118 237 OFFCURVE",
"116 227 OFFCURVE",
"128 227 CURVE SMOOTH",
"299 227 LINE SMOOTH",
"400 227 OFFCURVE",
"425 203 OFFCURVE",
"414 124 CURVE SMOOTH",
"399 14 OFFCURVE",
"304 14 OFFCURVE",
"219 14 CURVE SMOOTH",
"105 14 OFFCURVE",
"51 15 OFFCURVE",
"42 16 CURVE",
"98 416 LINE SMOOTH",
"102 441 OFFCURVE",
"124 443 OFFCURVE",
"129 443 CURVE SMOOTH",
"174 445 OFFCURVE",
"287 449 OFFCURVE",
"358 441 CURVE SMOOTH",
"414 435 OFFCURVE",
"434 403 OFFCURVE",
"427 350 CURVE SMOOTH",
"415 263 OFFCURVE",
"357 244 OFFCURVE",
"300 244 CURVE SMOOTH"
);
}
);
width = 495;
}
);
leftKerningGroup = B;
note = B;
unicode = 0042;
},
{
color = 7;
glyphname = C;
lastChange = "2021-06-22 13:13:00 +0000";
layers = (
{
anchors = (
{
name = bottom;
position = "{309, 0}";
},
{
name = top;
position = "{374, 460}";
}
);
layerId = "C7668D88-AC50-4107-9C4B-DB5D26A8FA6C";
paths = (
{
closed = 1;
nodes = (
"-9 25 OFFCURVE",
"109 -6 OFFCURVE",
"354 -6 CURVE SMOOTH",
"413 -6 OFFCURVE",
"472 -4 OFFCURVE",
"526 4 CURVE SMOOTH",
"597 12 OFFCURVE",
"617 39 OFFCURVE",
"623 82 CURVE SMOOTH",
"632 146 LINE",
"532 127 OFFCURVE",
"467 117 OFFCURVE",
"408 117 CURVE SMOOTH",
"287 117 OFFCURVE",
"239 126 OFFCURVE",
"253 227 CURVE SMOOTH",
"268 334 OFFCURVE",
"318 339 OFFCURVE",
"422 339 CURVE SMOOTH",
"485 339 OFFCURVE",
"585 327 OFFCURVE",
"655 304 CURVE",
"664 373 LINE SMOOTH",
"671 419 OFFCURVE",
"658 444 OFFCURVE",
"593 452 CURVE SMOOTH",
"539 459 OFFCURVE",
"489 462 OFFCURVE",
"429 462 CURVE SMOOTH",
"225 462 OFFCURVE",
"51 451 OFFCURVE",
"20 226 CURVE SMOOTH"
);
}
);
width = 674;
},
{
anchors = (
{
name = bottom;
position = "{235, 0}";
},
{
name = top;
position = "{299, 460}";
}
);
background = {
paths = (
{
closed = 1;
nodes = (
"17 33 OFFCURVE",
"74 -8 OFFCURVE",
"237 -8 CURVE SMOOTH",
"283 -8 OFFCURVE",
"327 -5 OFFCURVE",
"373 4 CURVE SMOOTH",
"403 9 OFFCURVE",
"410 16 OFFCURVE",
"411 25 CURVE SMOOTH",
"412 33 LINE",
"382 18 OFFCURVE",
"291 8 OFFCURVE",
"237 8 CURVE SMOOTH",
"76 8 OFFCURVE",
"42 63 OFFCURVE",
"65 230 CURVE SMOOTH",
"88 395 OFFCURVE",
"145 450 OFFCURVE",
"299 450 CURVE SMOOTH",
"353 450 OFFCURVE",
"442 440 OFFCURVE",
"468 425 CURVE",
"469 433 LINE SMOOTH",
"470 442 OFFCURVE",
"465 449 OFFCURVE",
"437 454 CURVE SMOOTH",
"393 463 OFFCURVE",
"349 466 OFFCURVE",
"303 466 CURVE SMOOTH",
"147 466 OFFCURVE",
"72 422 OFFCURVE",
"45 230 CURVE SMOOTH"
);
}
);
};
layerId = "B4E8C596-9C01-4F8A-BDA4-90320E25C0E6";
paths = (
{
closed = 1;
nodes = (
"17 33 OFFCURVE",
"74 -8 OFFCURVE",
"237 -8 CURVE SMOOTH",
"283 -8 OFFCURVE",
"327 -5 OFFCURVE",
"373 4 CURVE SMOOTH",
"403 9 OFFCURVE",
"410 16 OFFCURVE",
"411 25 CURVE SMOOTH",
"412 33 LINE",
"382 18 OFFCURVE",
"291 8 OFFCURVE",
"237 8 CURVE SMOOTH",
"76 8 OFFCURVE",
"42 63 OFFCURVE",
"65 230 CURVE SMOOTH",
"88 395 OFFCURVE",
"145 450 OFFCURVE",
"299 450 CURVE SMOOTH",
"353 450 OFFCURVE",
"442 440 OFFCURVE",
"468 425 CURVE",
"469 433 LINE SMOOTH",
"470 442 OFFCURVE",
"465 449 OFFCURVE",
"437 454 CURVE SMOOTH",
"393 463 OFFCURVE",
"349 466 OFFCURVE",
"303 466 CURVE SMOOTH",
"147 466 OFFCURVE",
"72 422 OFFCURVE",
"45 230 CURVE SMOOTH"
);
}
);
width = 480;
}
);
leftKerningGroup = C;
note = C;
unicode = 0043;
},
{
color = 7;
glyphname = D;
lastChange = "2021-06-22 13:13:00 +0000";
layers = (
{
anchors = (
{
name = bottom;
position = "{283, 0}";
},
{
name = center;
position = "{359, 230}";
},
{
name = top;
position = "{361, 460}";
}
);
layerId = "C7668D88-AC50-4107-9C4B-DB5D26A8FA6C";
paths = (
{
closed = 1;
nodes = (
"701 450 OFFCURVE",
"579 460 OFFCURVE",
"414 460 CURVE SMOOTH",
"325 460 OFFCURVE",
"237 460 OFFCURVE",
"148 460 CURVE SMOOTH",
"86 460 OFFCURVE",
"69 437 OFFCURVE",
"61 381 CURVE SMOOTH",
"8 0 LINE",
"102 0 OFFCURVE",
"196 0 OFFCURVE",
"290 0 CURVE SMOOTH",
"503 0 OFFCURVE",
"638 4 OFFCURVE",
"669 226 CURVE SMOOTH"
);
},
{
closed = 1;
nodes = (
"280 318 LINE",
"282 328 OFFCURVE",
"283 339 OFFCURVE",
"285 349 CURVE",
"310 349 OFFCURVE",
"336 349 OFFCURVE",
"361 349 CURVE SMOOTH",
"435 349 OFFCURVE",
"460 342 OFFCURVE",
"444 227 CURVE SMOOTH",
"434 158 OFFCURVE",
"408 112 OFFCURVE",
"336 112 CURVE SMOOTH",
"308 112 OFFCURVE",
"279 112 OFFCURVE",
"251 112 CURVE"
);
}
);
width = 710;
},
{
anchors = (
{
name = bottom;
position = "{201, 0}";
},
{
name = center;
position = "{253, 230}";
},
{
name = top;
position = "{266, 460}";
}
);
background = {
paths = (
{
closed = 1;
nodes = (
"501 450 OFFCURVE",
"426 455 OFFCURVE",
"308 462 CURVE SMOOTH",
"271 464 OFFCURVE",
"155 462 OFFCURVE",
"129 460 CURVE SMOOTH",
"83 456 OFFCURVE",
"81 438 OFFCURVE",
"76 398 CURVE SMOOTH",
"20 0 LINE",
"40 0 OFFCURVE",
"142 -3 OFFCURVE",
"189 -3 CURVE SMOOTH",
"331 -3 OFFCURVE",
"436 -10 OFFCURVE",
"469 225 CURVE SMOOTH"
);
},
{
closed = 1;
nodes = (
"96 404 LINE SMOOTH",
"101 434 OFFCURVE",
"108 438 OFFCURVE",
"123 441 CURVE SMOOTH",
"150 446 OFFCURVE",
"243 446 OFFCURVE",
"272 446 CURVE SMOOTH",
"433 446 OFFCURVE",
"475 408 OFFCURVE",
"449 224 CURVE SMOOTH",
"424 42 OFFCURVE",
"365 14 OFFCURVE",
"204 14 CURVE SMOOTH",
"171 14 OFFCURVE",
"58 16 OFFCURVE",
"42 17 CURVE"
);
}
);
};
layerId = "B4E8C596-9C01-4F8A-BDA4-90320E25C0E6";
paths = (
{
closed = 1;
nodes = (
"501 450 OFFCURVE",
"426 455 OFFCURVE",
"308 462 CURVE SMOOTH",
"271 464 OFFCURVE",
"155 462 OFFCURVE",
"129 460 CURVE SMOOTH",
"83 456 OFFCURVE",
"82 438 OFFCURVE",
"76 398 CURVE SMOOTH",
"20 0 LINE",
"40 0 OFFCURVE",
"142 -3 OFFCURVE",
"189 -3 CURVE SMOOTH",
"331 -3 OFFCURVE",
"436 -10 OFFCURVE",
"469 225 CURVE SMOOTH"
);
},
{
closed = 1;
nodes = (
"96 404 LINE SMOOTH",
"100 434 OFFCURVE",
"108 438 OFFCURVE",
"123 441 CURVE SMOOTH",
"150 446 OFFCURVE",
"243 446 OFFCURVE",
"272 446 CURVE SMOOTH",
"433 446 OFFCURVE",
"475 408 OFFCURVE",
"449 224 CURVE SMOOTH",
"424 42 OFFCURVE",
"365 14 OFFCURVE",
"204 14 CURVE SMOOTH",
"171 14 OFFCURVE",
"58 16 OFFCURVE",
"42 17 CURVE"
);
}
);
width = 498;
}
);
note = D;
unicode = 0044;
},
{
color = 7;
glyphname = E;
lastChange = "2021-06-22 13:13:00 +0000";
layers = (
{
anchors = (
{
name = bottom;
position = "{304, 0}";
},
{
name = ogonek;
position = "{571, 10}";
},
{
name = top;
position = "{369, 460}";
},
{
name = topleft;
position = "{57, 460}";
}
);
layerId = "C7668D88-AC50-4107-9C4B-DB5D26A8FA6C";
paths = (
{
closed = 1;
nodes = (
"592 0 LINE",
"608 116 LINE",
"253 116 LINE",
"261 174 LINE",
"581 174 LINE",
"597 289 LINE",
"277 289 LINE",
"285 344 LINE",
"640 344 LINE",
"656 460 LINE",
"146 460 LINE SMOOTH",
"72 460 OFFCURVE",
"70 440 OFFCURVE",
"61 380 CURVE SMOOTH",
"8 0 LINE"
);
}
);
width = 664;
},
{
anchors = (
{
name = bottom;
position = "{200, 0}";
},
{
name = ogonek;
position = "{383, 10}";
},
{
name = top;
position = "{265, 460}";
},
{
name = topleft;
position = "{57, 460}";
}
);
background = {
paths = (
{
closed = 1;
nodes = (
"384 0 LINE",
"386 17 LINE",
"42 17 LINE",
"73 236 LINE",
"391 236 LINE",
"393 253 LINE",
"75 253 LINE",
"102 443 LINE",
"446 443 LINE",
"448 460 LINE",
"94 460 LINE SMOOTH",
"84 460 OFFCURVE",
"83 453 OFFCURVE",
"82 441 CURVE SMOOTH",
"20 0 LINE"
);
}
);
};
layerId = "B4E8C596-9C01-4F8A-BDA4-90320E25C0E6";
paths = (
{
closed = 1;
nodes = (
"384 0 LINE",
"386 17 LINE",
"42 17 LINE",
"73 236 LINE",
"391 236 LINE",
"393 253 LINE",
"75 253 LINE",
"102 443 LINE",
"446 443 LINE",
"448 460 LINE",
"94 460 LINE SMOOTH",
"84 460 OFFCURVE",
"83 453 OFFCURVE",
"82 441 CURVE SMOOTH",
"20 0 LINE"
);
}
);
width = 456;
}
);
leftKerningGroup = E;
note = E;
rightKerningGroup = E;
unicode = 0045;
},
{
color = 7;
glyphname = F;
lastChange = "2021-06-22 13:13:00 +0000";
layers = (
{
layerId = "C7668D88-AC50-4107-9C4B-DB5D26A8FA6C";
paths = (
{
closed = 1;
nodes = (
"237 0 LINE",
"261 174 LINE",
"581 174 LINE",
"597 289 LINE",
"277 289 LINE",
"285 344 LINE",
"640 344 LINE",
"656 460 LINE",
"146 460 LINE SMOOTH",
"72 460 OFFCURVE",
"70 440 OFFCURVE",
"61 380 CURVE SMOOTH",
"8 0 LINE"
);
}
);
width = 649;
},
{
background = {
paths = (
{
closed = 1;
nodes = (
"40 0 LINE",
"73 236 LINE",
"391 236 LINE",
"393 253 LINE",
"75 253 LINE",
"102 443 LINE",
"446 443 LINE",
"448 460 LINE",
"94 460 LINE SMOOTH",
"84 460 OFFCURVE",
"83 453 OFFCURVE",
"82 441 CURVE SMOOTH",
"20 0 LINE"
);
}
);
};
layerId = "B4E8C596-9C01-4F8A-BDA4-90320E25C0E6";
paths = (
{
closed = 1;
nodes = (
"40 0 LINE",
"73 236 LINE",
"391 236 LINE",
"393 253 LINE",
"75 253 LINE",
"102 443 LINE",
"446 443 LINE",
"448 460 LINE",
"94 460 LINE SMOOTH",
"84 460 OFFCURVE",
"83 453 OFFCURVE",
"82 441 CURVE SMOOTH",
"20 0 LINE"
);
}
);
width = 439;
}
);
leftKerningGroup = E;
note = F;
unicode = 0046;
},
{
color = 7;
glyphname = G;
lastChange = "2021-06-22 13:13:00 +0000";
layers = (
{
anchors = (
{
name = bottom;
position = "{330, 0}";
},
{
name = top;
position = "{395, 460}";
}
);
layerId = "C7668D88-AC50-4107-9C4B-DB5D26A8FA6C";
paths = (
{
closed = 1;
nodes = (
"288 -3 OFFCURVE",
"303 -3 OFFCURVE",
"318 -3 CURVE SMOOTH",
"522 -3 OFFCURVE",
"660 -3 OFFCURVE",
"683 158 CURVE SMOOTH",
"702 290 LINE",
"414 290 LINE SMOOTH",
"320 290 OFFCURVE",
"310 263 OFFCURVE",
"298 174 CURVE",
"488 174 LINE",
"487 168 OFFCURVE",
"486 163 OFFCURVE",
"486 157 CURVE SMOOTH",
"482 131 OFFCURVE",
"458 117 OFFCURVE",
"351 117 CURVE SMOOTH",
"271 117 OFFCURVE",
"231 130 OFFCURVE",
"244 227 CURVE SMOOTH",
"260 337 OFFCURVE",
"300 348 OFFCURVE",
"438 348 CURVE SMOOTH",
"465 348 OFFCURVE",
"674 346 OFFCURVE",
"688 316 CURVE",
"696 370 LINE SMOOTH",
"700 402 OFFCURVE",
"704 441 OFFCURVE",
"639 454 CURVE SMOOTH",
"608 462 OFFCURVE",
"519 465 OFFCURVE",
"429 465 CURVE SMOOTH",
"197 465 OFFCURVE",
"50 443 OFFCURVE",
"19 226 CURVE SMOOTH",
"-8 34 OFFCURVE",
"86 2 OFFCURVE",
"273 -3 CURVE SMOOTH"
);
}
);
width = 715;
},
{
anchors = (
{
name = bottom;
position = "{223, 0}";
},
{
name = top;
position = "{288, 460}";
}
);
background = {
paths = (
{
closed = 1;
nodes = (
"222 -9 OFFCURVE",
"223 -9 OFFCURVE",
"225 -9 CURVE SMOOTH",
"359 -9 OFFCURVE",
"432 32 OFFCURVE",
"454 187 CURVE SMOOTH",
"462 246 LINE",
"258 246 LINE SMOOTH",
"243 246 OFFCURVE",
"241 244 OFFCURVE",
"239 229 CURVE",
"440 229 LINE",
"439 222 OFFCURVE",
"438 206 OFFCURVE",
"434 185 CURVE SMOOTH",
"408 39 OFFCURVE",
"355 8 OFFCURVE",
"226 8 CURVE SMOOTH",
"75 8 OFFCURVE",
"42 67 OFFCURVE",
"65 230 CURVE SMOOTH",
"88 395 OFFCURVE",
"145 450 OFFCURVE",
"299 450 CURVE SMOOTH",
"353 450 OFFCURVE",
"442 440 OFFCURVE",
"468 425 CURVE",
"469 433 LINE SMOOTH",
"470 442 OFFCURVE",
"465 449 OFFCURVE",
"437 454 CURVE SMOOTH",
"393 463 OFFCURVE",
"349 466 OFFCURVE",
"303 466 CURVE SMOOTH",
"149 466 OFFCURVE",
"72 422 OFFCURVE",
"45 230 CURVE SMOOTH",
"19 40 OFFCURVE",
"74 -8 OFFCURVE",
"220 -9 CURVE SMOOTH"
);
}
);
};
layerId = "B4E8C596-9C01-4F8A-BDA4-90320E25C0E6";
paths = (
{
closed = 1;
nodes = (
"222 -9 OFFCURVE",
"223 -9 OFFCURVE",
"225 -9 CURVE SMOOTH",
"359 -9 OFFCURVE",
"432 32 OFFCURVE",
"454 187 CURVE SMOOTH",
"462 246 LINE",
"258 246 LINE SMOOTH",
"243 246 OFFCURVE",
"241 244 OFFCURVE",
"239 229 CURVE",
"440 229 LINE",
"439 222 OFFCURVE",
"438 206 OFFCURVE",
"434 185 CURVE SMOOTH",
"408 39 OFFCURVE",
"355 8 OFFCURVE",
"226 8 CURVE SMOOTH",
"75 8 OFFCURVE",
"42 67 OFFCURVE",
"65 230 CURVE SMOOTH",
"88 395 OFFCURVE",
"145 450 OFFCURVE",
"299 450 CURVE SMOOTH",
"353 450 OFFCURVE",
"442 440 OFFCURVE",
"468 425 CURVE",
"469 433 LINE SMOOTH",
"470 442 OFFCURVE",
"465 449 OFFCURVE",
"437 454 CURVE SMOOTH",
"393 463 OFFCURVE",
"349 466 OFFCURVE",
"303 466 CURVE SMOOTH",
"149 466 OFFCURVE",
"72 422 OFFCURVE",
"45 230 CURVE SMOOTH",
"19 40 OFFCURVE",
"74 -8 OFFCURVE",
"220 -9 CURVE SMOOTH"
);
}
);
width = 502;
}
);
leftKerningGroup = G;
note = G;
rightKerningGroup = G;
unicode = 0047;
},
{
color = 7;
glyphname = H;
lastChange = "2021-06-22 13:13:00 +0000";
layers = (
{
anchors = (
{
name = bottom;
position = "{324, 0}";
},
{
name = center;
position = "{356, 230}";
},
{
name = top;
position = "{389, 460}";
},
{
name = topleft;
position = "{57, 460}";
}
);
layerId = "C7668D88-AC50-4107-9C4B-DB5D26A8FA6C";
paths = (
{
closed = 1;
nodes = (
"236 0 LINE",
"261 182 LINE",
"429 182 LINE",
"404 0 LINE",
"566 0 LINE SMOOTH",
"638 0 OFFCURVE",
"637 36 OFFCURVE",
"642 77 CURVE SMOOTH",
"696 460 LINE",
"468 460 LINE",
"445 297 LINE",
"277 297 LINE",
"300 460 LINE",
"146 460 LINE SMOOTH",
"72 460 OFFCURVE",
"69 435 OFFCURVE",
"63 395 CURVE SMOOTH",
"8 0 LINE"
);
}
);
width = 704;
},
{
anchors = (
{
name = bottom;
position = "{221, 0}";
},
{
name = center;
position = "{253, 230}";
},
{
name = top;
position = "{282, 460}";
},
{
name = topleft;
position = "{57, 460}";
}
);
background = {
paths = (
{
closed = 1;
nodes = (
"40 0 LINE",
"72 229 LINE",
"426 229 LINE",
"394 0 LINE",
"402 0 LINE SMOOTH",
"412 0 OFFCURVE",
"414 3 OFFCURVE",
"416 18 CURVE SMOOTH",
"478 460 LINE",
"458 460 LINE",
"428 246 LINE",
"74 246 LINE",
"104 460 LINE",
"96 460 LINE SMOOTH",
"86 460 OFFCURVE",
"84 457 OFFCURVE",
"82 442 CURVE SMOOTH",
"20 0 LINE"
);
}
);
};
layerId = "B4E8C596-9C01-4F8A-BDA4-90320E25C0E6";
paths = (
{
closed = 1;
nodes = (
"40 0 LINE",
"72 229 LINE",
"426 229 LINE",
"394 0 LINE",
"402 0 LINE SMOOTH",
"412 0 OFFCURVE",
"414 3 OFFCURVE",
"416 18 CURVE SMOOTH",
"478 460 LINE",
"458 460 LINE",
"428 246 LINE",
"74 246 LINE",
"104 460 LINE",
"96 460 LINE SMOOTH",
"86 460 OFFCURVE",
"84 457 OFFCURVE",
"82 442 CURVE SMOOTH",
"20 0 LINE"
);
}
);
width = 498;
}
);
leftKerningGroup = E;
note = H;
rightKerningGroup = H;
unicode = 0048;
},
{
color = 7;
glyphname = I;
lastChange = "2021-06-23 05:32:15 +0000";
layers = (
{
anchors = (
{
name = bottom;
position = "{122, 0}";
},
{
name = ogonek;
position = "{190, 10}";
},
{
name = top;
position = "{194, 460}";
},
{
name = topleft;
position = "{57, 460}";
}
);
layerId = "C7668D88-AC50-4107-9C4B-DB5D26A8FA6C";
paths = (
{
closed = 1;
nodes = (
"236 0 LINE",
"300 460 LINE",
"146 460 LINE",
"73 460 OFFCURVE",
"69 436 OFFCURVE",
"63 394 CURVE SMOOTH",
"45 263 OFFCURVE",
"26 131 OFFCURVE",
"8 0 CURVE"
);
}
);
width = 308;
},
{
anchors = (
{
name = bottom;
position = "{65, 0}";
},
{
name = ogonek;
position = "{76, 7}";
},
{
name = top;
position = "{133, 460}";
},
{
name = topleft;
position = "{57, 460}";
}
);
background = {
paths = (
{
closed = 1;
nodes = (
"76 0 LINE",
"140 460 LINE",
"130 460 LINE SMOOTH",
"120 460 OFFCURVE",
"119 453 OFFCURVE",
"118 441 CURVE SMOOTH",
"97 294 OFFCURVE",
"76 147 OFFCURVE",
"56 0 CURVE"
);
}
);
};
layerId = "B4E8C596-9C01-4F8A-BDA4-90320E25C0E6";
paths = (
{
closed = 1;
nodes = (
"76 0 LINE",
"140 460 LINE",
"130 460 LINE SMOOTH",
"120 460 OFFCURVE",
"119 453 OFFCURVE",
"118 441 CURVE SMOOTH",
"97 294 OFFCURVE",
"76 147 OFFCURVE",
"56 0 CURVE"
);
}
);
width = 178;
}
);
note = I;
rightKerningGroup = I;
unicode = 0049;
},
{
color = 7;
glyphname = J;
lastChange = "2021-06-22 13:13:00 +0000";
layers = (
{
anchors = (
{
name = bottom;
position = "{175, 0}";
},
{
name = top;
position = "{281, 460}";
}
);
layerId = "C7668D88-AC50-4107-9C4B-DB5D26A8FA6C";
paths = (
{
closed = 1;
nodes = (
"387 379 LINE SMOOTH",
"394 433 OFFCURVE",
"403 460 OFFCURVE",
"325 460 CURVE SMOOTH",
"171 460 LINE",
"128 157 LINE SMOOTH",
"125 137 OFFCURVE",
"116 118 OFFCURVE",
"92 118 CURVE SMOOTH",
"69 118 OFFCURVE",
"29 129 OFFCURVE",
"12 136 CURVE",
"-6 6 LINE",
"69 -1 OFFCURVE",
"105 -5 OFFCURVE",
"185 -1 CURVE SMOOTH",
"244 2 OFFCURVE",
"320 15 OFFCURVE",
"344 90 CURVE SMOOTH",
"349 105 OFFCURVE",
"352 126 OFFCURVE",
"355 148 CURVE SMOOTH"
);
}
);
width = 406;
},
{
anchors = (
{
name = bottom;
position = "{88, 0}";
},
{
name = top;
position = "{182, 460}";
}
);
background = {
paths = (
{
closed = 1;
nodes = (
"191 445 LINE SMOOTH",
"193 454 OFFCURVE",
"193 460 OFFCURVE",
"184 460 CURVE SMOOTH",
"174 460 LINE",
"119 69 LINE SMOOTH",
"113 26 OFFCURVE",
"93 13 OFFCURVE",
"49 13 CURVE SMOOTH",
"39 13 OFFCURVE",
"17 16 OFFCURVE",
"11 19 CURVE",
"8 2 LINE",
"26 -3 OFFCURVE",
"52 -3 OFFCURVE",
"61 -3 CURVE SMOOTH",
"106 -3 OFFCURVE",
"126 25 OFFCURVE",
"134 49 CURVE SMOOTH",
"141 73 OFFCURVE",
"146 122 OFFCURVE",
"150 150 CURVE SMOOTH"
);
}
);
};
layerId = "B4E8C596-9C01-4F8A-BDA4-90320E25C0E6";
paths = (
{
closed = 1;
nodes = (
"191 445 LINE SMOOTH",
"192 454 OFFCURVE",
"193 460 OFFCURVE",
"184 460 CURVE SMOOTH",
"174 460 LINE",
"119 69 LINE SMOOTH",
"113 26 OFFCURVE",
"93 13 OFFCURVE",
"49 13 CURVE SMOOTH",
"39 13 OFFCURVE",
"17 16 OFFCURVE",
"11 19 CURVE",
"8 2 LINE",
"26 -3 OFFCURVE",
"52 -3 OFFCURVE",
"61 -3 CURVE SMOOTH",
"106 -3 OFFCURVE",
"126 25 OFFCURVE",
"134 49 CURVE SMOOTH",
"141 73 OFFCURVE",
"146 122 OFFCURVE",
"150 150 CURVE SMOOTH"
);
}
);
width = 232;
}
);
note = J;
rightKerningGroup = H;
unicode = 004A;
},
{
color = 7;
glyphname = K;
lastChange = "2021-06-22 12:45:25 +0000";
layers = (
{
anchors = (
{
name = bottom;
position = "{321, 0}";
},
{
name = top;
position = "{386, 460}";
}
);
background = {
hints = (
{
horizontal = 1;
place = "{0, 21}";
target = up;
type = BottomGhost;
},
{
horizontal = 1;
place = "{446, 22}";
type = Stem;
},
{
place = "{40, 227}";
type = Stem;
}
);
paths = (
{
closed = 1;
nodes = (
"267 0 LINE",
"267 41 OFFCURVE",
"267 81 OFFCURVE",
"267 122 CURVE",
"297 96 OFFCURVE",
"327 70 OFFCURVE",
"357 44 CURVE SMOOTH",
"447 -33 OFFCURVE",
"620 -46 OFFCURVE",
"696 50 CURVE",
"607 128 OFFCURVE",
"517 206 OFFCURVE",
"428 284 CURVE",
"507 338 OFFCURVE",
"586 392 OFFCURVE",
"665 446 CURVE",
"611 470 OFFCURVE",
"473 482 OFFCURVE",
"414 439 CURVE SMOOTH",
"267 333 LINE",
"267 460 LINE",
"216 460 OFFCURVE",
"165 460 OFFCURVE",
"114 460 CURVE SMOOTH",
"40 460 OFFCURVE",
"40 435 OFFCURVE",
"40 393 CURVE SMOOTH",
"40 262 OFFCURVE",
"40 131 OFFCURVE",
"40 0 CURVE"
);
}
);
};
layerId = "C7668D88-AC50-4107-9C4B-DB5D26A8FA6C";
paths = (
{
closed = 1;
nodes = (
"662 417 LINE SMOOTH",
"674 424 OFFCURVE",
"717 453 OFFCURVE",
"722 456 CURVE",
"718 459 OFFCURVE",
"509 482 OFFCURVE",
"444 439 CURVE SMOOTH",
"405 413 OFFCURVE",
"330 364 OFFCURVE",
"318 356 CURVE SMOOTH",
"302 346 OFFCURVE",
"290 338 OFFCURVE",
"286 335 CURVE",
"286 335 OFFCURVE",
"282 333 OFFCURVE",
"282 333 CURVE",
"288 371 OFFCURVE",
"295 422 OFFCURVE",
"300 460 CURVE",
"249 460 OFFCURVE",
"197 460 OFFCURVE",
"146 460 CURVE SMOOTH",
"74 460 OFFCURVE",
"70 436 OFFCURVE",
"64 393 CURVE SMOOTH",
"9 0 LINE",
"85 0 OFFCURVE",
"160 0 OFFCURVE",
"236 0 CURVE",
"241 37 OFFCURVE",
"248 85 OFFCURVE",
"253 122 CURVE",
"255 121 OFFCURVE",
"258 117 OFFCURVE",
"263 112 CURVE",
"276 100 OFFCURVE",
"279 96 OFFCURVE",
"295 81 CURVE SMOOTH",
"413 -31 OFFCURVE",
"461 -18 OFFCURVE",
"511 -18 CURVE SMOOTH",
"612 -18 OFFCURVE",
"672 50 OFFCURVE",
"672 50 CURVE",
"595 126 OFFCURVE",
"520 202 OFFCURVE",
"444 278 CURVE"
);
}
);
width = 697;
},
{
anchors = (
{
name = bottom;
position = "{180, 0}";
},
{
name = top;
position = "{236, 460}";
}
);
background = {
hints = (
{
horizontal = 1;
place = "{0, 21}";
target = up;
type = BottomGhost;
},
{
horizontal = 1;
place = "{231, 16}";
type = Stem;
},
{
place = "{53, 20}";
type = Stem;
}
);
paths = (
{
closed = 1;
nodes = (
"300 349 LINE SMOOTH",
"310 358 OFFCURVE",
"408 453 OFFCURVE",
"413 456 CURVE",
"409 459 OFFCURVE",
"400 466 OFFCURVE",
"386 453 CURVE SMOOTH",
"323 391 OFFCURVE",
"258 329 OFFCURVE",
"194 267 CURVE SMOOTH",
"180 253 OFFCURVE",
"174 247 OFFCURVE",
"151 247 CURVE",
"151 247 OFFCURVE",
"98 247 OFFCURVE",
"82 247 CURVE",
"88 285 OFFCURVE",
"107 422 OFFCURVE",
"112 460 CURVE",
"108 460 OFFCURVE",
"106 460 OFFCURVE",
"100 460 CURVE SMOOTH",
"96 460 OFFCURVE",
"92 456 OFFCURVE",
"91 447 CURVE SMOOTH",
"28 0 LINE",
"38 0 OFFCURVE",
"40 0 OFFCURVE",
"48 0 CURVE",
"53 37 OFFCURVE",
"75 194 OFFCURVE",
"80 231 CURVE",
"168 231 OFFCURVE",
"175 232 OFFCURVE",
"184 218 CURVE",
"204 189 OFFCURVE",
"316 31 OFFCURVE",
"330 12 CURVE SMOOTH",
"338 2 OFFCURVE",
"345 -1 OFFCURVE",
"351 -1 CURVE SMOOTH",
"361 -1 OFFCURVE",
"360 -1 OFFCURVE",
"365 0 CURVE",
"320 60 OFFCURVE",
"250 163 OFFCURVE",
"192 244 CURVE"
);
}
);
};
layerId = "B4E8C596-9C01-4F8A-BDA4-90320E25C0E6";
paths = (
{
closed = 1;
nodes = (
"300 349 LINE SMOOTH",
"310 358 OFFCURVE",
"408 453 OFFCURVE",
"413 456 CURVE",
"409 459 OFFCURVE",
"400 466 OFFCURVE",
"386 453 CURVE SMOOTH",
"323 391 OFFCURVE",
"258 329 OFFCURVE",
"194 267 CURVE SMOOTH",
"180 253 OFFCURVE",
"174 247 OFFCURVE",
"151 247 CURVE",
"151 247 OFFCURVE",
"98 247 OFFCURVE",
"82 247 CURVE",
"88 285 OFFCURVE",
"107 422 OFFCURVE",
"112 460 CURVE",
"108 460 OFFCURVE",
"106 460 OFFCURVE",
"100 460 CURVE SMOOTH",
"96 460 OFFCURVE",
"92 456 OFFCURVE",
"91 447 CURVE SMOOTH",
"28 0 LINE",
"38 0 OFFCURVE",
"40 0 OFFCURVE",
"48 0 CURVE",
"53 37 OFFCURVE",
"75 194 OFFCURVE",
"80 231 CURVE",
"168 231 OFFCURVE",
"175 232 OFFCURVE",
"184 218 CURVE",
"204 189 OFFCURVE",
"316 31 OFFCURVE",
"330 12 CURVE SMOOTH",
"338 2 OFFCURVE",
"345 -1 OFFCURVE",
"351 -1 CURVE SMOOTH",
"361 -1 OFFCURVE",
"360 -1 OFFCURVE",
"365 0 CURVE",
"320 60 OFFCURVE",
"250 163 OFFCURVE",
"192 244 CURVE"
);
}
);
width = 437;
}
);
note = K;
unicode = 004B;
},
{
color = 7;
glyphname = L;
lastChange = "2021-06-22 13:13:00 +0000";
layers = (
{
anchors = (
{
name = bottom;
position = "{253, 0}";
},
{
name = center;
position = "{304, 230}";
},
{
name = top;
position = "{209, 460}";
},
{
name = topright;
position = "{404, 460}";
}
);
layerId = "C7668D88-AC50-4107-9C4B-DB5D26A8FA6C";
paths = (
{
closed = 1;
nodes = (
"146 460 LINE SMOOTH",
"71 460 OFFCURVE",
"69 437 OFFCURVE",
"62 390 CURVE SMOOTH",
"8 0 LINE",
"534 0 LINE",
"550 116 LINE",
"253 116 LINE",
"301 460 LINE"
);
}
);
width = 599;
},
{
anchors = (
{
name = bottom;
position = "{186, 0}";
},
{
name = center;
position = "{205, 230}";
},
{
name = top;
position = "{96, 460}";
},
{
name = topright;
position = "{233, 460}";
}
);
background = {
paths = (
{
closed = 1;
nodes = (
"94 460 LINE SMOOTH",
"84 460 OFFCURVE",
"83 453 OFFCURVE",
"82 441 CURVE SMOOTH",
"20 0 LINE",
"354 0 LINE",
"356 17 LINE",
"42 17 LINE",
"104 460 LINE"
);
}
);
};
layerId = "B4E8C596-9C01-4F8A-BDA4-90320E25C0E6";
paths = (
{
closed = 1;
nodes = (
"94 460 LINE SMOOTH",
"84 460 OFFCURVE",
"84 453 OFFCURVE",
"82 441 CURVE SMOOTH",
"20 0 LINE",
"354 0 LINE",
"356 17 LINE",
"42 17 LINE",
"104 460 LINE"
);
}
);
width = 401;
}
);
leftKerningGroup = E;
note = L;
rightKerningGroup = L;
unicode = 004C;
},
{
color = 7;
glyphname = M;
lastChange = "2021-06-22 13:13:00 +0000";
layers = (
{
layerId = "C7668D88-AC50-4107-9C4B-DB5D26A8FA6C";
paths = (
{
closed = 1;
nodes = (
"167 0 LINE",
"197 218 LINE",
"200 179 LINE",
"249 0 LINE",
"382 0 LINE",
"481 179 LINE",
"494 218 LINE",
"464 0 LINE",
"613 0 LINE SMOOTH",
"678 0 OFFCURVE",
"696 0 OFFCURVE",
"705 66 CURVE SMOOTH",
"751 393 LINE SMOOTH",
"758 446 OFFCURVE",
"749 460 OFFCURVE",
"685 460 CURVE SMOOTH",
"495 460 LINE",
"393 276 LINE",
"390 263 LINE",
"388 263 LINE",
"387 276 LINE",
"331 460 LINE",
"155 460 LINE SMOOTH",
"88 460 OFFCURVE",
"71 453 OFFCURVE",
"64 400 CURVE SMOOTH",
"8 0 LINE"
);
}
);
width = 768;
},
{
background = {
paths = (
{
closed = 1;
nodes = (
"39 0 LINE",
"98 425 LINE",
"100 421 LINE",
"233 0 LINE",
"254 0 LINE",
"511 430 LINE",
"515 436 LINE",
"454 0 LINE",
"464 0 LINE SMOOTH",
"473 0 OFFCURVE",
"474 5 OFFCURVE",
"476 18 CURVE SMOOTH",
"536 444 LINE SMOOTH",
"539 462 OFFCURVE",
"534 460 OFFCURVE",
"521 460 CURVE SMOOTH",
"510 460 LINE",
"252 28 LINE",
"249 23 LINE",
"247 20 LINE",
"246 25 LINE",
"109 460 LINE",
"100 460 LINE SMOOTH",
"85 460 OFFCURVE",
"86 458 OFFCURVE",
"82 429 CURVE SMOOTH",
"22 0 LINE"
);
}
);
};
layerId = "B4E8C596-9C01-4F8A-BDA4-90320E25C0E6";
paths = (
{
closed = 1;
nodes = (
"39 0 LINE",
"98 425 LINE",
"100 421 LINE",
"233 0 LINE",
"254 0 LINE",
"511 430 LINE",
"515 436 LINE",
"454 0 LINE",
"464 0 LINE SMOOTH",
"473 0 OFFCURVE",
"474 5 OFFCURVE",
"476 18 CURVE SMOOTH",
"536 444 LINE SMOOTH",
"539 462 OFFCURVE",
"534 460 OFFCURVE",
"521 460 CURVE SMOOTH",
"510 460 LINE",
"252 28 LINE",
"249 23 LINE",
"247 20 LINE",
"246 25 LINE",
"109 460 LINE",
"100 460 LINE SMOOTH",
"85 460 OFFCURVE",
"86 458 OFFCURVE",
"82 429 CURVE SMOOTH",
"22 0 LINE"
);
}
);
width = 569;
}
);
leftKerningGroup = E;
note = M;
rightKerningGroup = M;
unicode = 004D;
},
{
color = 7;
glyphname = N;
lastChange = "2021-06-22 13:13:00 +0000";
layers = (
{
anchors = (
{
name = bottom;
position = "{326, 0}";
},
{
name = top;
position = "{391, 460}";
}
);
layerId = "C7668D88-AC50-4107-9C4B-DB5D26A8FA6C";
paths = (
{
closed = 1;
nodes = (
"170 0 LINE",
"209 279 LINE",
"210 240 LINE",
"345 0 LINE",
"543 0 LINE SMOOTH",
"608 0 OFFCURVE",
"631 5 OFFCURVE",
"639 56 CURVE SMOOTH",
"685 386 LINE SMOOTH",
"688 409 OFFCURVE",
"694 455 OFFCURVE",
"699 460 CURVE",
"534 460 LINE",
"497 191 LINE",
"495 230 LINE",
"367 460 LINE",
"148 460 LINE SMOOTH",
"82 460 OFFCURVE",
"70 446 OFFCURVE",
"63 393 CURVE SMOOTH",
"8 0 LINE"
);
}
);
width = 707;
},
{
anchors = (
{
name = bottom;
position = "{229, 0}";
},
{
name = top;
position = "{294, 460}";
}
);
background = {
paths = (
{
closed = 1;
nodes = (
"45 0 LINE",
"105 429 LINE",
"106 438 LINE",
"395 0 LINE",
"406 0 LINE SMOOTH",
"421 0 OFFCURVE",
"420 2 OFFCURVE",
"424 31 CURVE SMOOTH",
"481 438 LINE SMOOTH",
"482 447 OFFCURVE",
"484 457 OFFCURVE",
"486 460 CURVE",
"467 460 LINE",
"407 34 LINE",
"406 22 LINE",
"116 460 LINE",
"106 460 LINE SMOOTH",
"91 460 OFFCURVE",
"92 458 OFFCURVE",
"88 429 CURVE SMOOTH",
"28 0 LINE"
);
}
);
};
layerId = "B4E8C596-9C01-4F8A-BDA4-90320E25C0E6";
paths = (
{
closed = 1;
nodes = (
"45 0 LINE",
"105 429 LINE",
"106 438 LINE",
"395 0 LINE",
"406 0 LINE SMOOTH",
"421 0 OFFCURVE",
"420 2 OFFCURVE",
"424 31 CURVE SMOOTH",
"481 438 LINE SMOOTH",
"482 447 OFFCURVE",
"484 457 OFFCURVE",
"486 460 CURVE",
"467 460 LINE",
"407 34 LINE",
"406 22 LINE",
"116 460 LINE",
"106 460 LINE SMOOTH",
"91 460 OFFCURVE",
"92 458 OFFCURVE",
"88 429 CURVE SMOOTH",
"28 0 LINE"
);
}
);
width = 514;
}
);
leftKerningGroup = E;
note = N;
rightKerningGroup = H;
unicode = 004E;
},
{
color = 7;
glyphname = O;
lastChange = "2021-06-22 13:13:00 +0000";
layers = (
{
anchors = (
{
name = bottom;
position = "{300, 0}";
},
{
name = center;
position = "{353, 230}";
},
{
name = ogonek;
position = "{366, 10}";
},
{
name = top;
position = "{386, 460}";
},
{
name = topleft;
position = "{57, 460}";
},
{
name = topright;
position = "{509, 460}";
}
);
layerId = "C7668D88-AC50-4107-9C4B-DB5D26A8FA6C";
paths = (
{
closed = 1;
nodes = (
"-10 15 OFFCURVE",
"127 -7 OFFCURVE",
"308 -7 CURVE SMOOTH",
"486 -7 OFFCURVE",
"646 9 OFFCURVE",
"677 230 CURVE SMOOTH",
"707 446 OFFCURVE",
"567 467 OFFCURVE",
"389 467 CURVE SMOOTH",
"212 467 OFFCURVE",
"51 451 OFFCURVE",
"20 230 CURVE SMOOTH"
);
},
{
closed = 1;
nodes = (
"437 120 OFFCURVE",
"394 105 OFFCURVE",
"331 105 CURVE SMOOTH",
"265 105 OFFCURVE",
"229 120 OFFCURVE",
"244 228 CURVE SMOOTH",
"259 336 OFFCURVE",
"300 351 OFFCURVE",
"366 351 CURVE SMOOTH",
"429 351 OFFCURVE",
"467 336 OFFCURVE",
"452 228 CURVE SMOOTH"
);
}
);
width = 697;
},
{
anchors = (
{
name = bottom;
position = "{229, 0}";
},
{
name = center;
position = "{271, 230}";
},
{
name = ogonek;
position = "{236, -3}";
},
{
name = top;
position = "{304, 460}";
},
{
name = topleft;
position = "{57, 460}";
},
{
name = topright;
position = "{395, 460}";
}
);
background = {
paths = (
{
closed = 1;
nodes = (
"11 15 OFFCURVE",
"105 -7 OFFCURVE",
"228 -7 CURVE SMOOTH",
"350 -7 OFFCURVE",
"462 9 OFFCURVE",
"493 231 CURVE SMOOTH",
"523 447 OFFCURVE",
"429 469 OFFCURVE",
"306 469 CURVE SMOOTH",
"184 469 OFFCURVE",
"72 453 OFFCURVE",
"41 231 CURVE SMOOTH"
);
},
{
closed = 1;
nodes = (
"444 35 OFFCURVE",
"364 9 OFFCURVE",
"235 9 CURVE SMOOTH",
"107 9 OFFCURVE",
"34 35 OFFCURVE",
"62 230 CURVE SMOOTH",
"89 426 OFFCURVE",
"169 453 OFFCURVE",
"297 453 CURVE SMOOTH",
"426 453 OFFCURVE",
"499 426 OFFCURVE",
"472 230 CURVE SMOOTH"
);
}
);
};
layerId = "B4E8C596-9C01-4F8A-BDA4-90320E25C0E6";
paths = (
{
closed = 1;
nodes = (
"11 15 OFFCURVE",
"105 -7 OFFCURVE",
"228 -7 CURVE SMOOTH",
"350 -7 OFFCURVE",
"462 9 OFFCURVE",
"493 231 CURVE SMOOTH",
"523 447 OFFCURVE",
"429 469 OFFCURVE",
"306 469 CURVE SMOOTH",
"184 469 OFFCURVE",
"72 453 OFFCURVE",
"41 231 CURVE SMOOTH"
);
},
{
closed = 1;
nodes = (
"444 35 OFFCURVE",
"364 9 OFFCURVE",
"235 9 CURVE SMOOTH",
"107 9 OFFCURVE",
"34 35 OFFCURVE",
"62 230 CURVE SMOOTH",
"89 426 OFFCURVE",
"169 453 OFFCURVE",
"297 453 CURVE SMOOTH",
"426 453 OFFCURVE",
"499 426 OFFCURVE",
"472 230 CURVE SMOOTH"
);
}
);
width = 534;
}
);
leftKerningGroup = C;
note = O;
unicode = 004F;
},
{
color = 7;
glyphname = P;
lastChange = "2021-06-22 13:13:00 +0000";
layers = (
{
layerId = "C7668D88-AC50-4107-9C4B-DB5D26A8FA6C";
paths = (
{
closed = 1;
nodes = (
"235 0 LINE",
"250 110 OFFCURVE",
"265 219 OFFCURVE",
"281 330 CURVE SMOOTH",
"282 334 OFFCURVE",
"289 344 OFFCURVE",
"299 344 CURVE",
"343 344 OFFCURVE",
"370 344 OFFCURVE",
"414 344 CURVE SMOOTH",
"439 344 OFFCURVE",
"447 331 OFFCURVE",
"442 296 CURVE SMOOTH",
"437 259 OFFCURVE",
"422 239 OFFCURVE",
"399 239 CURVE SMOOTH",
"349 239 OFFCURVE",
"300 239 OFFCURVE",
"250 239 CURVE",
"217 239 OFFCURVE",
"222 229 OFFCURVE",
"208 128 CURVE",
"295 127 OFFCURVE",
"396 127 OFFCURVE",
"482 126 CURVE SMOOTH",
"580 125 OFFCURVE",
"653 169 OFFCURVE",
"672 303 CURVE SMOOTH",
"690 428 OFFCURVE",
"609 460 OFFCURVE",
"512 460 CURVE SMOOTH",
"390 460 OFFCURVE",
"268 460 OFFCURVE",
"146 460 CURVE SMOOTH",
"80 460 OFFCURVE",
"67 432 OFFCURVE",
"60 376 CURVE SMOOTH",
"42 251 OFFCURVE",
"25 125 OFFCURVE",
"8 0 CURVE"
);
}
);
width = 689;
},
{
background = {
paths = (
{
closed = 1;
nodes = (
"40 0 LINE",
"59 139 OFFCURVE",
"78 277 OFFCURVE",
"98 416 CURVE SMOOTH",
"102 441 OFFCURVE",
"124 443 OFFCURVE",
"129 443 CURVE SMOOTH",
"174 445 OFFCURVE",
"287 449 OFFCURVE",
"358 441 CURVE SMOOTH",
"414 435 OFFCURVE",
"434 399 OFFCURVE",
"425 340 CURVE SMOOTH",
"412 242 OFFCURVE",
"354 219 OFFCURVE",
"296 219 CURVE SMOOTH",
"244 219 OFFCURVE",
"152 219 OFFCURVE",
"128 219 CURVE SMOOTH",
"115 219 OFFCURVE",
"114 209 OFFCURVE",
"113 202 CURVE",
"174 202 OFFCURVE",
"234 202 OFFCURVE",
"295 202 CURVE",
"378 202 OFFCURVE",
"433 247 OFFCURVE",
"446 337 CURVE SMOOTH",
"456 410 OFFCURVE",
"433 453 OFFCURVE",
"357 459 CURVE SMOOTH",
"304 463 OFFCURVE",
"191 462 OFFCURVE",
"131 460 CURVE SMOOTH",
"101 459 OFFCURVE",
"83 453 OFFCURVE",
"78 414 CURVE SMOOTH",
"58 276 OFFCURVE",
"39 138 OFFCURVE",
"20 0 CURVE"
);
}
);
};
layerId = "B4E8C596-9C01-4F8A-BDA4-90320E25C0E6";
paths = (
{
closed = 1;
nodes = (
"40 0 LINE",
"59 139 OFFCURVE",
"78 277 OFFCURVE",
"98 416 CURVE SMOOTH",
"102 441 OFFCURVE",
"124 443 OFFCURVE",
"129 443 CURVE SMOOTH",
"174 445 OFFCURVE",
"287 449 OFFCURVE",
"358 441 CURVE SMOOTH",
"414 435 OFFCURVE",
"434 399 OFFCURVE",
"425 340 CURVE SMOOTH",
"412 242 OFFCURVE",
"354 219 OFFCURVE",
"296 219 CURVE SMOOTH",
"244 219 OFFCURVE",
"152 219 OFFCURVE",
"128 219 CURVE SMOOTH",
"115 219 OFFCURVE",
"114 209 OFFCURVE",
"113 202 CURVE",
"174 202 OFFCURVE",
"234 202 OFFCURVE",
"295 202 CURVE",
"378 202 OFFCURVE",
"433 247 OFFCURVE",
"446 337 CURVE SMOOTH",
"456 410 OFFCURVE",
"433 453 OFFCURVE",
"357 459 CURVE SMOOTH",
"304 463 OFFCURVE",
"191 462 OFFCURVE",
"131 460 CURVE SMOOTH",
"101 459 OFFCURVE",
"83 453 OFFCURVE",
"78 414 CURVE SMOOTH",
"58 276 OFFCURVE",
"39 138 OFFCURVE",
"20 0 CURVE"
);
}
);
width = 495;
}
);
leftKerningGroup = B;
note = P;
unicode = 0050;
},
{
color = 7;
glyphname = Q;
lastChange = "2021-06-22 13:13:00 +0000";
layers = (
{
layerId = "C7668D88-AC50-4107-9C4B-DB5D26A8FA6C";
paths = (
{
closed = 1;
nodes = (
"-5 16 OFFCURVE",
"143 -6 OFFCURVE",
"337 -6 CURVE SMOOTH",
"383 -6 OFFCURVE",
"428 -5 OFFCURVE",
"471 0 CURVE",
"550 -101 OFFCURVE",
"657 -107 OFFCURVE",
"757 -4 CURVE",
"714 -4 OFFCURVE",
"656 23 OFFCURVE",
"619 44 CURVE",
"675 78 OFFCURVE",
"715 135 OFFCURVE",
"728 230 CURVE SMOOTH",
"758 446 OFFCURVE",
"609 467 OFFCURVE",
"417 467 CURVE SMOOTH",
"228 467 OFFCURVE",
"56 451 OFFCURVE",
"25 230 CURVE SMOOTH"
);
},
{
closed = 1;
nodes = (
"486 196 OFFCURVE",
"478 171 OFFCURVE",
"467 154 CURVE",
"446 166 OFFCURVE",
"422 175 OFFCURVE",
"404 175 CURVE SMOOTH",
"371 175 OFFCURVE",
"339 159 OFFCURVE",
"325 136 CURVE",
"360 109 LINE",
"357 109 OFFCURVE",
"353 109 OFFCURVE",
"350 109 CURVE SMOOTH",
"323 109 OFFCURVE",
"310 111 OFFCURVE",
"293 119 CURVE SMOOTH",
"264 132 OFFCURVE",
"250 162 OFFCURVE",
"260 229 CURVE SMOOTH",
"275 337 OFFCURVE",
"321 351 OFFCURVE",
"393 351 CURVE SMOOTH",
"464 351 OFFCURVE",
"506 337 OFFCURVE",
"491 229 CURVE SMOOTH"
);
}
);
width = 805;
},
{
background = {
hints = (
{
horizontal = 1;
place = "{-1, 97}";
type = Stem;
},
{
horizontal = 1;
place = "{180, 97}";
type = Stem;
},
{
horizontal = 1;
place = "{357, 102}";
type = Stem;
},
{
place = "{41, 82}";
type = Stem;
},
{
place = "{152, 8}";
type = Stem;
},
{
place = "{350, 81}";
type = Stem;
},
{
place = "{40, 82}";
type = Stem;
},
{
place = "{351, 81}";
type = Stem;
}
);
paths = (
{
closed = 1;
nodes = (
"15 16 OFFCURVE",
"107 -8 OFFCURVE",
"227 -8 CURVE SMOOTH",
"257 -8 OFFCURVE",
"305 -7 OFFCURVE",
"335 2 CURVE",
"360 -31 OFFCURVE",
"392 -91 OFFCURVE",
"416 -71 CURVE",
"385 -41 OFFCURVE",
"366 -9 OFFCURVE",
"354 7 CURVE",
"456 37 OFFCURVE",
"482 136 OFFCURVE",
"496 232 CURVE SMOOTH",
"526 449 OFFCURVE",
"432 471 OFFCURVE",
"309 471 CURVE SMOOTH",
"188 471 OFFCURVE",
"77 454 OFFCURVE",
"46 232 CURVE SMOOTH"
);
},
{
closed = 1;
nodes = (
"466 165 OFFCURVE",
"450 50 OFFCURVE",
"345 20 CURVE",
"341 24 OFFCURVE",
"278 116 OFFCURVE",
"269 129 CURVE SMOOTH",
"259 143 OFFCURVE",
"254 150 OFFCURVE",
"240 138 CURVE",
"325 17 LINE",
"313 14 OFFCURVE",
"301 12 OFFCURVE",
"285 10 CURVE SMOOTH",
"267 8 OFFCURVE",
"234 8 OFFCURVE",
"221 9 CURVE SMOOTH",
"124 14 OFFCURVE",
"39 28 OFFCURVE",
"67 225 CURVE SMOOTH",
"95 426 OFFCURVE",
"177 453 OFFCURVE",
"303 453 CURVE SMOOTH",
"428 453 OFFCURVE",
"503 426 OFFCURVE",
"475 225 CURVE SMOOTH"
);
}
);
};
layerId = "B4E8C596-9C01-4F8A-BDA4-90320E25C0E6";
paths = (
{
closed = 1;
nodes = (
"15 16 OFFCURVE",
"107 -8 OFFCURVE",
"227 -8 CURVE SMOOTH",
"257 -8 OFFCURVE",
"305 -7 OFFCURVE",
"335 2 CURVE",
"360 -31 OFFCURVE",
"392 -91 OFFCURVE",
"416 -71 CURVE",
"385 -41 OFFCURVE",
"366 -9 OFFCURVE",
"354 7 CURVE",
"456 37 OFFCURVE",
"482 136 OFFCURVE",
"496 232 CURVE SMOOTH",
"526 449 OFFCURVE",
"432 471 OFFCURVE",
"309 471 CURVE SMOOTH",
"188 471 OFFCURVE",
"77 454 OFFCURVE",
"46 232 CURVE SMOOTH"
);
},
{
closed = 1;
nodes = (
"466 165 OFFCURVE",
"450 50 OFFCURVE",
"345 20 CURVE",
"341 24 OFFCURVE",
"278 116 OFFCURVE",
"269 129 CURVE SMOOTH",
"259 143 OFFCURVE",
"254 150 OFFCURVE",
"240 138 CURVE",
"325 17 LINE",
"313 14 OFFCURVE",
"301 12 OFFCURVE",
"285 10 CURVE SMOOTH",
"267 8 OFFCURVE",
"234 8 OFFCURVE",
"221 9 CURVE SMOOTH",
"124 14 OFFCURVE",
"39 28 OFFCURVE",
"67 225 CURVE SMOOTH",
"95 426 OFFCURVE",
"177 453 OFFCURVE",
"303 453 CURVE SMOOTH",
"428 453 OFFCURVE",
"503 426 OFFCURVE",
"475 225 CURVE SMOOTH"
);
}
);
width = 534;
}
);
leftKerningGroup = G;
note = Q;
unicode = 0051;
},
{
color = 7;
glyphname = R;
lastChange = "2021-06-22 13:13:00 +0000";
layers = (
{
anchors = (
{
name = bottom;
position = "{328, 0}";
},
{
name = top;
position = "{360, 460}";
}
);
background = {
hints = (
{
horizontal = 1;
place = "{0, 190}";
type = Stem;
},
{
horizontal = 1;
place = "{344, 116}";
type = Stem;
},
{
place = "{35, 228}";
type = Stem;
},
{
horizontal = 1;
place = "{130, 106}";
type = Stem;
},
{
place = "{432, 232}";
type = Stem;
}
);
paths = (
{
closed = 1;
nodes = (
"432 0 OFFCURVE",
"459 0 OFFCURVE",
"505 0 CURVE SMOOTH",
"671 0 LINE",
"666 4 OFFCURVE",
"664 51 OFFCURVE",
"664 67 CURVE SMOOTH",
"664 128 LINE SMOOTH",
"664 168 OFFCURVE",
"648 186 OFFCURVE",
"612 189 CURVE SMOOTH",
"601 190 OFFCURVE",
"577 190 OFFCURVE",
"573 190 CURVE",
"573 191 LINE",
"600 191 OFFCURVE",
"621 199 OFFCURVE",
"635 211 CURVE SMOOTH",
"655 228 OFFCURVE",
"664 264 OFFCURVE",
"664 304 CURVE SMOOTH",
"664 413 OFFCURVE",
"645 460 OFFCURVE",
"496 460 CURVE SMOOTH",
"110 460 LINE SMOOTH",
"44 460 OFFCURVE",
"35 432 OFFCURVE",
"35 376 CURVE SMOOTH",
"35 0 LINE",
"263 0 LINE",
"263 130 LINE",
"401 130 LINE SMOOTH",
"432 130 OFFCURVE",
"432 107 OFFCURVE",
"432 72 CURVE SMOOTH"
);
},
{
closed = 1;
nodes = (
"263 344 LINE",
"394 344 LINE SMOOTH",
"419 344 OFFCURVE",
"429 317 OFFCURVE",
"429 288 CURVE SMOOTH",
"429 258 OFFCURVE",
"417 236 OFFCURVE",
"394 236 CURVE SMOOTH",
"263 236 LINE"
);
}
);
};
layerId = "C7668D88-AC50-4107-9C4B-DB5D26A8FA6C";
paths = (
{
closed = 1;
nodes = (
"357 130 LINE SMOOTH",
"402 130 OFFCURVE",
"418 129 OFFCURVE",
"412 88 CURVE SMOOTH",
"407 51 LINE SMOOTH",
"401 10 OFFCURVE",
"427 0 OFFCURVE",
"472 0 CURVE SMOOTH",
"645 0 LINE",
"644 1 OFFCURVE",
"634 13 OFFCURVE",
"639 46 CURVE SMOOTH",
"649 116 LINE SMOOTH",
"654 148 OFFCURVE",
"655 179 OFFCURVE",
"606 189 CURVE",
"595 190 OFFCURVE",
"579 190 OFFCURVE",
"567 190 CURVE",
"568 195 LINE",
"595 195 OFFCURVE",
"619 202 OFFCURVE",
"632 211 CURVE SMOOTH",
"655 228 OFFCURVE",
"664 253 OFFCURVE",
"676 337 CURVE SMOOTH",
"688 423 OFFCURVE",
"652 452 OFFCURVE",
"580 459 CURVE SMOOTH",
"530 464 OFFCURVE",
"201 460 OFFCURVE",
"141 460 CURVE SMOOTH",
"77 460 OFFCURVE",
"63 431 OFFCURVE",
"58 392 CURVE SMOOTH",
"3 0 LINE",
"231 0 LINE",
"249 129 LINE",
"275 129 OFFCURVE",
"324 130 OFFCURVE",
"324 130 CURVE"
);
},
{
closed = 1;
nodes = (
"277 330 LINE SMOOTH",
"279 342 OFFCURVE",
"289 343 OFFCURVE",
"291 343 CURVE SMOOTH",
"310 343 OFFCURVE",
"387 346 OFFCURVE",
"415 342 CURVE SMOOTH",
"437 339 OFFCURVE",
"444 321 OFFCURVE",
"439 291 CURVE SMOOTH",
"433 247 OFFCURVE",
"410 234 OFFCURVE",
"388 234 CURVE SMOOTH",
"368 234 OFFCURVE",
"282 234 OFFCURVE",
"264 235 CURVE"
);
}
);
width = 711;
},
{
anchors = (
{
name = bottom;
position = "{219, 0}";
},
{
name = top;
position = "{256, 460}";
}
);
background = {
paths = (
{
closed = 1;
nodes = (
"360 212 LINE SMOOTH",
"405 212 OFFCURVE",
"419 193 OFFCURVE",
"413 152 CURVE SMOOTH",
"394 21 LINE SMOOTH",
"392 0 OFFCURVE",
"397 0 OFFCURVE",
"406 0 CURVE SMOOTH",
"414 0 LINE",
"413 1 OFFCURVE",
"413 11 OFFCURVE",
"414 15 CURVE SMOOTH",
"432 147 LINE SMOOTH",
"437 179 OFFCURVE",
"437 216 OFFCURVE",
"388 226 CURVE",
"386 226 OFFCURVE",
"382 226 OFFCURVE",
"380 226 CURVE",
"380 227 LINE",
"382 227 OFFCURVE",
"387 227 OFFCURVE",
"390 228 CURVE SMOOTH",
"429 246 OFFCURVE",
"455 284 OFFCURVE",
"463 337 CURVE SMOOTH",
"473 410 OFFCURVE",
"453 452 OFFCURVE",
"385 459 CURVE SMOOTH",
"335 464 OFFCURVE",
"191 462 OFFCURVE",
"131 460 CURVE SMOOTH",
"101 459 OFFCURVE",
"83 453 OFFCURVE",
"78 414 CURVE SMOOTH",
"20 0 LINE",
"40 0 LINE",
"69 211 LINE",
"216 213 OFFCURVE",
"327 212 OFFCURVE",
"327 212 CURVE"
);
},
{
closed = 1;
nodes = (
"98 416 LINE SMOOTH",
"102 441 OFFCURVE",
"124 443 OFFCURVE",
"129 443 CURVE SMOOTH",
"174 445 OFFCURVE",
"321 449 OFFCURVE",
"384 441 CURVE SMOOTH",
"434 435 OFFCURVE",
"451 399 OFFCURVE",
"442 340 CURVE SMOOTH",
"430 254 OFFCURVE",
"379 228 OFFCURVE",
"327 228 CURVE SMOOTH",
"283 228 OFFCURVE",
"116 229 OFFCURVE",
"72 230 CURVE"
);
}
);
};
layerId = "B4E8C596-9C01-4F8A-BDA4-90320E25C0E6";
paths = (
{
closed = 1;
nodes = (
"360 212 LINE SMOOTH",
"405 212 OFFCURVE",
"419 193 OFFCURVE",
"413 152 CURVE SMOOTH",
"394 21 LINE SMOOTH",
"391 0 OFFCURVE",
"397 0 OFFCURVE",
"406 0 CURVE SMOOTH",
"414 0 LINE",
"413 1 OFFCURVE",
"413 11 OFFCURVE",
"414 15 CURVE SMOOTH",
"432 147 LINE SMOOTH",
"436 179 OFFCURVE",
"437 216 OFFCURVE",
"388 226 CURVE",
"386 226 OFFCURVE",
"382 226 OFFCURVE",
"380 226 CURVE",
"380 227 LINE",
"382 227 OFFCURVE",
"387 227 OFFCURVE",
"390 228 CURVE SMOOTH",
"429 246 OFFCURVE",
"455 284 OFFCURVE",
"463 337 CURVE SMOOTH",
"473 410 OFFCURVE",
"453 452 OFFCURVE",
"385 459 CURVE SMOOTH",
"335 464 OFFCURVE",
"191 462 OFFCURVE",
"131 460 CURVE SMOOTH",
"101 459 OFFCURVE",
"83 453 OFFCURVE",
"78 414 CURVE SMOOTH",
"20 0 LINE",
"40 0 LINE",
"69 211 LINE",
"216 213 OFFCURVE",
"327 212 OFFCURVE",
"327 212 CURVE"
);
},
{
closed = 1;
nodes = (
"98 416 LINE SMOOTH",
"102 441 OFFCURVE",
"124 443 OFFCURVE",
"129 443 CURVE SMOOTH",
"174 445 OFFCURVE",
"321 449 OFFCURVE",
"384 441 CURVE SMOOTH",
"434 435 OFFCURVE",
"451 399 OFFCURVE",
"442 340 CURVE SMOOTH",
"430 254 OFFCURVE",
"379 228 OFFCURVE",
"327 228 CURVE SMOOTH",
"283 228 OFFCURVE",
"116 229 OFFCURVE",
"72 230 CURVE"
);
}
);
width = 493;
}
);
leftKerningGroup = B;
note = R;
rightKerningGroup = M;
unicode = 0052;
},
{
color = 7;
glyphname = S;
lastChange = "2021-06-22 13:13:00 +0000";
layers = (
{
anchors = (
{
name = bottom;
position = "{287, 0}";
},
{
name = top;
position = "{381, 460}";
}
);
background = {
hints = (
{
horizontal = 1;
place = "{-1, 150}";
type = Stem;
},
{
horizontal = 1;
place = "{150, 152}";
type = Stem;
},
{
horizontal = 1;
place = "{308, 152}";
type = Stem;
},
{
place = "{23, 226}";
type = Stem;
},
{
place = "{420, 229}";
type = Stem;
}
);
paths = (
{
closed = 1;
nodes = (
"42 105 LINE SMOOTH",
"42 21 OFFCURVE",
"61 5 OFFCURVE",
"150 0 CURVE SMOOTH",
"237 -5 OFFCURVE",
"383 -5 OFFCURVE",
"480 0 CURVE SMOOTH",
"580 5 OFFCURVE",
"646 46 OFFCURVE",
"646 159 CURVE SMOOTH",
"645 281 OFFCURVE",
"581 297 OFFCURVE",
"478 297 CURVE SMOOTH",
"423 297 OFFCURVE",
"368 297 OFFCURVE",
"313 297 CURVE SMOOTH",
"298 297 OFFCURVE",
"286 299 OFFCURVE",
"286 317 CURVE SMOOTH",
"286 340 OFFCURVE",
"303 343 OFFCURVE",
"338 343 CURVE SMOOTH",
"479 343 LINE SMOOTH",
"544 343 OFFCURVE",
"620 342 OFFCURVE",
"635 328 CURVE",
"635 337 OFFCURVE",
"635 346 OFFCURVE",
"635 355 CURVE SMOOTH",
"635 439 OFFCURVE",
"590 460 OFFCURVE",
"527 460 CURVE SMOOTH",
"476 460 OFFCURVE",
"416 463 OFFCURVE",
"358 463 CURVE SMOOTH",
"308 463 OFFCURVE",
"259 462 OFFCURVE",
"217 460 CURVE SMOOTH",
"113 454 OFFCURVE",
"51 414 OFFCURVE",
"51 301 CURVE SMOOTH",
"51 185 OFFCURVE",
"124 168 OFFCURVE",
"244 168 CURVE SMOOTH",
"291 168 OFFCURVE",
"338 168 OFFCURVE",
"385 168 CURVE SMOOTH",
"398 168 OFFCURVE",
"405 160 OFFCURVE",
"405 146 CURVE SMOOTH",
"405 123 OFFCURVE",
"386 120 OFFCURVE",
"352 119 CURVE SMOOTH",
"302 118 OFFCURVE",
"253 117 OFFCURVE",
"202 118 CURVE SMOOTH",
"138 119 OFFCURVE",
"63 124 OFFCURVE",
"42 134 CURVE"
);
}
);
};
layerId = "C7668D88-AC50-4107-9C4B-DB5D26A8FA6C";
paths = (
{
closed = 1;
nodes = (
"21 65 LINE SMOOTH",
"13 9 OFFCURVE",
"66 -1 OFFCURVE",
"202 -4 CURVE SMOOTH",
"289 -6 OFFCURVE",
"360 -5 OFFCURVE",
"448 0 CURVE SMOOTH",
"549 6 OFFCURVE",
"620 46 OFFCURVE",
"636 159 CURVE SMOOTH",
"653 281 OFFCURVE",
"590 297 OFFCURVE",
"487 297 CURVE SMOOTH",
"482 297 OFFCURVE",
"425 297 OFFCURVE",
"322 297 CURVE SMOOTH",
"295 297 OFFCURVE",
"297 309 OFFCURVE",
"299 319 CURVE SMOOTH",
"300 330 OFFCURVE",
"302 343 OFFCURVE",
"345 343 CURVE SMOOTH",
"458 343 LINE SMOOTH",
"518 343 OFFCURVE",
"636 342 OFFCURVE",
"649 328 CURVE",
"649 329 OFFCURVE",
"655 373 OFFCURVE",
"656 381 CURVE SMOOTH",
"662 425 OFFCURVE",
"632 457 OFFCURVE",
"569 460 CURVE SMOOTH",
"531 462 OFFCURVE",
"430 464 OFFCURVE",
"354 464 CURVE SMOOTH",
"186 464 OFFCURVE",
"82 452 OFFCURVE",
"61 301 CURVE SMOOTH",
"43 173 OFFCURVE",
"139 168 OFFCURVE",
"235 168 CURVE SMOOTH",
"318 168 OFFCURVE",
"340 168 OFFCURVE",
"359 168 CURVE SMOOTH",
"385 168 OFFCURVE",
"395 160 OFFCURVE",
"393 146 CURVE SMOOTH",
"391 128 OFFCURVE",
"376 118 OFFCURVE",
"341 118 CURVE SMOOTH",
"324 118 OFFCURVE",
"287 117 OFFCURVE",
"269 117 CURVE SMOOTH",
"197 117 OFFCURVE",
"83 118 OFFCURVE",
"31 138 CURVE"
);
}
);
width = 688;
},
{
anchors = (
{
name = bottom;
position = "{194, 0}";
},
{
name = top;
position = "{278, 460}";
}
);
background = {
paths = (
{
closed = 1;
nodes = (
"21 34 LINE SMOOTH",
"16 -2 OFFCURVE",
"146 -6 OFFCURVE",
"182 -6 CURVE SMOOTH",
"195 -6 OFFCURVE",
"208 -6 OFFCURVE",
"221 -5 CURVE SMOOTH",
"327 0 OFFCURVE",
"411 28 OFFCURVE",
"425 132 CURVE SMOOTH",
"440 236 OFFCURVE",
"380 246 OFFCURVE",
"299 246 CURVE SMOOTH",
"265 246 OFFCURVE",
"232 246 OFFCURVE",
"198 246 CURVE SMOOTH",
"121 246 OFFCURVE",
"67 253 OFFCURVE",
"79 334 CURVE SMOOTH",
"93 437 OFFCURVE",
"179 446 OFFCURVE",
"266 447 CURVE SMOOTH",
"304 447 LINE SMOOTH",
"342 447 OFFCURVE",
"437 442 OFFCURVE",
"459 409 CURVE",
"460 415 OFFCURVE",
"461 420 OFFCURVE",
"462 426 CURVE SMOOTH",
"462 431 OFFCURVE",
"460 435 OFFCURVE",
"455 439 CURVE SMOOTH",
"424 462 OFFCURVE",
"342 464 OFFCURVE",
"292 464 CURVE SMOOTH",
"182 464 OFFCURVE",
"77 455 OFFCURVE",
"60 334 CURVE SMOOTH",
"45 231 OFFCURVE",
"127 228 OFFCURVE",
"197 228 CURVE SMOOTH",
"232 228 OFFCURVE",
"268 228 OFFCURVE",
"303 228 CURVE SMOOTH",
"377 228 OFFCURVE",
"417 215 OFFCURVE",
"406 135 CURVE SMOOTH",
"392 37 OFFCURVE",
"319 15 OFFCURVE",
"222 12 CURVE SMOOTH",
"209 11 OFFCURVE",
"197 11 OFFCURVE",
"185 11 CURVE SMOOTH",
"138 11 OFFCURVE",
"54 14 OFFCURVE",
"22 44 CURVE"
);
}
);
};
layerId = "B4E8C596-9C01-4F8A-BDA4-90320E25C0E6";
paths = (
{
closed = 1;
nodes = (
"21 34 LINE SMOOTH",
"17 -2 OFFCURVE",
"146 -6 OFFCURVE",
"182 -6 CURVE SMOOTH",
"195 -6 OFFCURVE",
"208 -6 OFFCURVE",
"221 -5 CURVE SMOOTH",
"327 0 OFFCURVE",
"411 28 OFFCURVE",
"425 132 CURVE SMOOTH",
"440 236 OFFCURVE",
"380 246 OFFCURVE",
"299 246 CURVE SMOOTH",
"265 246 OFFCURVE",
"232 246 OFFCURVE",
"198 246 CURVE SMOOTH",
"121 246 OFFCURVE",
"67 253 OFFCURVE",
"79 334 CURVE SMOOTH",
"93 437 OFFCURVE",
"179 447 OFFCURVE",
"266 447 CURVE SMOOTH",
"304 447 LINE SMOOTH",
"342 447 OFFCURVE",
"437 442 OFFCURVE",
"459 409 CURVE",
"460 415 OFFCURVE",
"461 420 OFFCURVE",
"462 426 CURVE SMOOTH",
"462 431 OFFCURVE",
"460 435 OFFCURVE",
"455 439 CURVE SMOOTH",
"424 462 OFFCURVE",
"342 464 OFFCURVE",
"292 464 CURVE SMOOTH",
"182 464 OFFCURVE",
"77 455 OFFCURVE",
"60 334 CURVE SMOOTH",
"45 231 OFFCURVE",
"127 228 OFFCURVE",
"197 228 CURVE SMOOTH",
"232 228 OFFCURVE",
"268 228 OFFCURVE",
"303 228 CURVE SMOOTH",
"377 228 OFFCURVE",
"417 215 OFFCURVE",
"406 135 CURVE SMOOTH",
"392 37 OFFCURVE",
"319 15 OFFCURVE",
"222 12 CURVE SMOOTH",
"209 11 OFFCURVE",
"197 11 OFFCURVE",
"185 11 CURVE SMOOTH",
"138 11 OFFCURVE",
"54 14 OFFCURVE",
"22 44 CURVE"
);
}
);
width = 493;
}
);
leftKerningGroup = S;
note = S;
rightKerningGroup = S;
unicode = 0053;
},
{
color = 7;
glyphname = T;
lastChange = "2021-06-22 13:13:00 +0000";
layers = (
{
anchors = (
{
name = bottom;
position = "{298, 0}";
},
{
name = center;
position = "{330, 230}";
},
{
name = top;
position = "{363, 460}";
}
);
layerId = "C7668D88-AC50-4107-9C4B-DB5D26A8FA6C";
paths = (
{
closed = 1;
nodes = (
"31 342 LINE",
"229 342 LINE",
"181 0 LINE",
"335 0 LINE SMOOTH",
"398 0 OFFCURVE",
"411 13 OFFCURVE",
"419 70 CURVE SMOOTH",
"457 342 LINE",
"653 342 LINE",
"669 460 LINE",
"47 460 LINE"
);
}
);
width = 652;
},
{
anchors = (
{
name = bottom;
position = "{193, 7}";
},
{
name = center;
position = "{225, 230}";
},
{
name = top;
position = "{253, 460}";
}
);
background = {
paths = (
{
closed = 1;
nodes = (
"55 443 LINE",
"241 443 LINE",
"179 0 LINE",
"189 0 LINE SMOOTH",
"199 0 OFFCURVE",
"200 7 OFFCURVE",
"201 19 CURVE SMOOTH",
"261 443 LINE",
"447 443 LINE",
"449 460 LINE",
"57 460 LINE"
);
}
);
};
layerId = "B4E8C596-9C01-4F8A-BDA4-90320E25C0E6";
paths = (
{
closed = 1;
nodes = (
"55 443 LINE",
"241 443 LINE",
"179 0 LINE",
"189 0 LINE SMOOTH",
"199 0 OFFCURVE",
"199 7 OFFCURVE",
"201 19 CURVE SMOOTH",
"261 443 LINE",
"447 443 LINE",
"449 460 LINE",
"57 460 LINE"
);
}
);
width = 442;
}
);
leftKerningGroup = T;
note = T;
rightKerningGroup = T;
unicode = 0054;
},
{
color = 7;
glyphname = U;
lastChange = "2021-06-22 13:13:00 +0000";
layers = (
{
anchors = (
{
name = bottom;
position = "{319, 0}";
},
{
name = ogonek;
position = "{384, 10}";
},
{
name = top;
position = "{376, 460}";
},
{
name = topright;
position = "{578, 460}";
}
);
layerId = "C7668D88-AC50-4107-9C4B-DB5D26A8FA6C";
paths = (
{
closed = 1;
nodes = (
"678 362 LINE SMOOTH",
"690 443 OFFCURVE",
"693 460 OFFCURVE",
"606 460 CURVE SMOOTH",
"463 460 LINE",
"427 203 LINE SMOOTH",
"418 139 OFFCURVE",
"395 120 OFFCURVE",
"331 120 CURVE SMOOTH",
"272 120 OFFCURVE",
"249 125 OFFCURVE",
"260 205 CURVE SMOOTH",
"295 460 LINE",
"150 460 LINE SMOOTH",
"63 460 OFFCURVE",
"66 443 OFFCURVE",
"54 362 CURVE SMOOTH",
"36 236 LINE SMOOTH",
"12 66 OFFCURVE",
"5 -2 OFFCURVE",
"313 -2 CURVE SMOOTH",
"608 -2 OFFCURVE",
"635 63 OFFCURVE",
"662 250 CURVE SMOOTH"
);
}
);
width = 694;
},
{
anchors = (
{
name = bottom;
position = "{195, 0}";
},
{
name = ogonek;
position = "{213, 10}";
},
{
name = top;
position = "{269, 460}";
},
{
name = topright;
position = "{432, 460}";
}
);
background = {
paths = (
{
closed = 1;
nodes = (
"449 442 LINE SMOOTH",
"451 456 OFFCURVE",
"451 460 OFFCURVE",
"441 460 CURVE SMOOTH",
"432 460 LINE",
"387 140 LINE SMOOTH",
"374 51 OFFCURVE",
"319 14 OFFCURVE",
"200 14 CURVE SMOOTH",
"81 14 OFFCURVE",
"39 46 OFFCURVE",
"52 139 CURVE SMOOTH",
"98 460 LINE",
"89 460 LINE SMOOTH",
"79 460 OFFCURVE",
"77 456 OFFCURVE",
"75 442 CURVE SMOOTH",
"37 175 LINE SMOOTH",
"25 89 OFFCURVE",
"12 -3 OFFCURVE",
"197 -3 CURVE SMOOTH",
"388 -3 OFFCURVE",
"400 90 OFFCURVE",
"412 176 CURVE SMOOTH"
);
}
);
};
layerId = "B4E8C596-9C01-4F8A-BDA4-90320E25C0E6";
paths = (
{
closed = 1;
nodes = (
"449 442 LINE SMOOTH",
"451 456 OFFCURVE",
"451 460 OFFCURVE",
"441 460 CURVE SMOOTH",
"432 460 LINE",
"387 140 LINE SMOOTH",
"374 51 OFFCURVE",
"319 14 OFFCURVE",
"200 14 CURVE SMOOTH",
"81 14 OFFCURVE",
"39 46 OFFCURVE",
"52 139 CURVE SMOOTH",
"98 460 LINE",
"89 460 LINE SMOOTH",
"79 460 OFFCURVE",
"77 456 OFFCURVE",
"75 442 CURVE SMOOTH",
"37 175 LINE SMOOTH",
"25 89 OFFCURVE",
"12 -3 OFFCURVE",
"197 -3 CURVE SMOOTH",
"388 -3 OFFCURVE",
"400 90 OFFCURVE",
"412 176 CURVE SMOOTH"
);
}
);
width = 464;
}
);
leftKerningGroup = U;
note = U;
rightKerningGroup = U;
unicode = 0055;
},
{
color = 7;
glyphname = V;
lastChange = "2021-06-22 13:13:00 +0000";
layers = (
{
layerId = "C7668D88-AC50-4107-9C4B-DB5D26A8FA6C";
paths = (
{
closed = 1;
nodes = (
"510 153 OFFCURVE",
"604 307 OFFCURVE",
"698 460 CURVE",
"641 460 OFFCURVE",
"582 460 OFFCURVE",
"525 460 CURVE",
"476 381 OFFCURVE",
"427 302 OFFCURVE",
"378 223 CURVE",
"376 217 OFFCURVE",
"374 211 OFFCURVE",
"372 205 CURVE",
"371 205 OFFCURVE",
"372 205 OFFCURVE",
"371 205 CURVE",
"371 211 OFFCURVE",
"372 217 OFFCURVE",
"372 223 CURVE",
"346 302 OFFCURVE",
"320 381 OFFCURVE",
"294 460 CURVE",
"208 460 OFFCURVE",
"123 460 OFFCURVE",
"37 460 CURVE",
"80 331 OFFCURVE",
"124 203 OFFCURVE",
"167 74 CURVE",
"194 6 OFFCURVE",
"218 0 OFFCURVE",
"280 0 CURVE",
"325 0 OFFCURVE",
"371 0 OFFCURVE",
"416 0 CURVE"
);
}
);
width = 671;
},
{
background = {
hints = (
{
horizontal = 1;
place = "{0, 171}";
type = Stem;
},
{
horizontal = 1;
place = "{460, -20}";
target = down;
type = TopGhost;
},
{
place = "{39, 437}";
type = Stem;
},
{
horizontal = 1;
place = "{75, 96}";
type = Stem;
},
{
place = "{32, 438}";
type = Stem;
}
);
paths = (
{
closed = 1;
nodes = (
"278 153 OFFCURVE",
"344 307 OFFCURVE",
"412 460 CURVE",
"406 460 OFFCURVE",
"400 460 OFFCURVE",
"395 460 CURVE",
"331 312 OFFCURVE",
"265 158 OFFCURVE",
"204 24 CURVE",
"204 24 OFFCURVE",
"200 15 OFFCURVE",
"200 15 CURVE",
"191 15 OFFCURVE",
"183 15 OFFCURVE",
"175 16 CURVE SMOOTH",
"160 18 OFFCURVE",
"134 19 OFFCURVE",
"127 64 CURVE SMOOTH",
"104 196 OFFCURVE",
"85 328 OFFCURVE",
"64 460 CURVE",
"57 460 OFFCURVE",
"49 460 OFFCURVE",
"42 460 CURVE",
"63 335 OFFCURVE",
"84 204 OFFCURVE",
"104 75 CURVE SMOOTH",
"107 55 OFFCURVE",
"115 1 OFFCURVE",
"175 0 CURVE SMOOTH",
"192 0 OFFCURVE",
"204 0 OFFCURVE",
"211 0 CURVE"
);
}
);
};
layerId = "B4E8C596-9C01-4F8A-BDA4-90320E25C0E6";
paths = (
{
closed = 1;
nodes = (
"278 153 OFFCURVE",
"344 307 OFFCURVE",
"412 460 CURVE",
"406 460 OFFCURVE",
"400 460 OFFCURVE",
"395 460 CURVE",
"331 312 OFFCURVE",
"265 158 OFFCURVE",
"204 24 CURVE",
"204 24 OFFCURVE",
"200 15 OFFCURVE",
"200 15 CURVE",
"191 15 OFFCURVE",
"183 15 OFFCURVE",
"175 16 CURVE SMOOTH",
"160 18 OFFCURVE",
"134 19 OFFCURVE",
"127 64 CURVE SMOOTH",
"104 196 OFFCURVE",
"85 328 OFFCURVE",
"64 460 CURVE",
"57 460 OFFCURVE",
"49 460 OFFCURVE",
"42 460 CURVE",
"63 335 OFFCURVE",
"84 204 OFFCURVE",
"104 75 CURVE SMOOTH",
"107 55 OFFCURVE",
"115 1 OFFCURVE",
"175 0 CURVE SMOOTH",
"192 0 OFFCURVE",
"204 0 OFFCURVE",
"211 0 CURVE"
);
}
);
width = 429;
}
);
note = V;
unicode = 0056;
},
{
color = 7;
glyphname = W;
lastChange = "2021-06-22 13:13:00 +0000";
layers = (
{
anchors = (
{
name = bottom;
position = "{403, 0}";
},
{
name = top;
position = "{482, 460}";
}
);
layerId = "C7668D88-AC50-4107-9C4B-DB5D26A8FA6C";
paths = (
{
closed = 1;
nodes = (
"65 82 LINE SMOOTH",
"71 4 OFFCURVE",
"112 0 OFFCURVE",
"169 0 CURVE SMOOTH",
"353 0 LINE",
"439 179 LINE",
"443 197 LINE",
"446 197 LINE",
"447 179 LINE",
"482 0 LINE",
"622 0 LINE SMOOTH",
"678 0 OFFCURVE",
"724 10 OFFCURVE",
"750 82 CURVE SMOOTH",
"889 460 LINE",
"834 460 OFFCURVE",
"779 460 OFFCURVE",
"724 460 CURVE",
"653 259 LINE",
"651 249 OFFCURVE",
"648 240 OFFCURVE",
"646 230 CURVE",
"647 269 LINE",
"610 460 LINE",
"385 460 LINE",
"295 269 LINE",
"286 230 LINE",
"286 240 OFFCURVE",
"287 249 OFFCURVE",
"287 259 CURVE",
"276 460 LINE",
"37 460 LINE"
);
}
);
width = 862;
},
{
anchors = (
{
name = bottom;
position = "{261, 0}";
},
{
name = top;
position = "{326, 460}";
}
);
background = {
hints = (
{
horizontal = 1;
place = "{0, 16}";
type = Stem;
},
{
horizontal = 1;
place = "{425, 35}";
type = Stem;
},
{
place = "{70, 22}";
type = Stem;
},
{
place = "{483, 24}";
type = Stem;
}
);
paths = (
{
closed = 1;
nodes = (
"48 81 LINE SMOOTH",
"47 -2 OFFCURVE",
"68 0 OFFCURVE",
"125 0 CURVE SMOOTH",
"166 0 LINE",
"306 404 LINE",
"314 425 LINE",
"314 425 LINE",
"317 398 LINE",
"347 0 LINE",
"381 0 LINE SMOOTH",
"437 0 OFFCURVE",
"464 -3 OFFCURVE",
"485 75 CURVE SMOOTH",
"589 460 LINE",
"575 460 OFFCURVE",
"574 460 OFFCURVE",
"565 460 CURVE",
"458 55 LINE",
"450 25 OFFCURVE",
"417 16 OFFCURVE",
"404 16 CURVE",
"364 16 LINE",
"331 460 LINE",
"307 460 LINE",
"152 16 LINE",
"115 16 LINE",
"86 16 OFFCURVE",
"68 21 OFFCURVE",
"68 72 CURVE",
"73 460 LINE",
"52 460 LINE"
);
}
);
};
layerId = "B4E8C596-9C01-4F8A-BDA4-90320E25C0E6";
paths = (
{
closed = 1;
nodes = (
"48 81 LINE SMOOTH",
"47 -2 OFFCURVE",
"68 0 OFFCURVE",
"125 0 CURVE SMOOTH",
"166 0 LINE",
"306 404 LINE",
"314 425 LINE",
"314 425 LINE",
"317 398 LINE",
"347 0 LINE",
"381 0 LINE SMOOTH",
"437 0 OFFCURVE",
"464 -3 OFFCURVE",
"485 75 CURVE SMOOTH",
"589 460 LINE",
"575 460 OFFCURVE",
"574 460 OFFCURVE",
"565 460 CURVE",
"458 55 LINE",
"450 25 OFFCURVE",
"417 16 OFFCURVE",
"404 16 CURVE",
"364 16 LINE",
"331 460 LINE",
"307 460 LINE",
"152 16 LINE",
"115 16 LINE",
"86 16 OFFCURVE",
"68 21 OFFCURVE",
"68 72 CURVE",
"73 460 LINE",
"52 460 LINE"
);
}
);
width = 577;
}
);
note = W;
unicode = 0057;
},
{
color = 7;
glyphname = X;
lastChange = "2021-06-22 13:13:00 +0000";
layers = (
{
layerId = "C7668D88-AC50-4107-9C4B-DB5D26A8FA6C";
paths = (
{
closed = 1;
nodes = (
"51 460 LINE",
"56 458 OFFCURVE",
"64 448 OFFCURVE",
"67 443 CURVE SMOOTH",
"226 218 LINE",
"71 81 LINE",
"56 65 OFFCURVE",
"5 21 OFFCURVE",
"-27 1 CURVE",
"105 0 LINE SMOOTH",
"165 0 OFFCURVE",
"197 6 OFFCURVE",
"243 48 CURVE SMOOTH",
"306 104 LINE",
"338 60 LINE SMOOTH",
"377 3 OFFCURVE",
"413 0 OFFCURVE",
"473 0 CURVE SMOOTH",
"690 0 LINE",
"670 5 OFFCURVE",
"635 65 OFFCURVE",
"635 65 CURVE",
"578 143 OFFCURVE",
"529 211 OFFCURVE",
"489 267 CURVE",
"612 377 OFFCURVE",
"659 418 OFFCURVE",
"705 460 CURVE",
"501 460 LINE",
"410 379 LINE",
"379 422 OFFCURVE",
"360 450 OFFCURVE",
"353 460 CURVE"
);
}
);
width = 727;
},
{
background = {
hints = (
{
horizontal = 1;
place = "{-1, 21}";
target = up;
type = BottomGhost;
},
{
place = "{5, 381}";
type = Stem;
}
);
paths = (
{
closed = 1;
nodes = (
"41 460 LINE",
"79 400 OFFCURVE",
"183 227 OFFCURVE",
"183 227 CURVE SMOOTH",
"183 227 LINE",
"43 74 LINE",
"43 74 OFFCURVE",
"-3 19 OFFCURVE",
"-27 0 CURVE",
"-9 0 LINE SMOOTH",
"-3 0 OFFCURVE",
"5 9 OFFCURVE",
"10 14 CURVE SMOOTH",
"191 214 LINE",
"191 214 LINE SMOOTH",
"233 151 OFFCURVE",
"311 -2 OFFCURVE",
"334 -1 CURVE SMOOTH",
"356 0 LINE",
"335 13 OFFCURVE",
"207 232 OFFCURVE",
"207 232 CURVE",
"207 232 OFFCURVE",
"207 232 OFFCURVE",
"207 232 CURVE",
"207 232 OFFCURVE",
"416 460 OFFCURVE",
"416 460 CURVE",
"394 460 LINE",
"199 246 LINE",
"178 278 OFFCURVE",
"68 460 OFFCURVE",
"68 460 CURVE"
);
}
);
};
layerId = "B4E8C596-9C01-4F8A-BDA4-90320E25C0E6";
paths = (
{
closed = 1;
nodes = (
"41 460 LINE",
"79 400 OFFCURVE",
"183 227 OFFCURVE",
"183 227 CURVE SMOOTH",
"183 227 LINE",
"43 74 LINE",
"43 74 OFFCURVE",
"-3 19 OFFCURVE",
"-27 0 CURVE",
"-9 0 LINE SMOOTH",
"-3 0 OFFCURVE",
"5 9 OFFCURVE",
"10 14 CURVE SMOOTH",
"191 214 LINE",
"191 214 LINE SMOOTH",
"233 151 OFFCURVE",
"311 -2 OFFCURVE",
"334 -1 CURVE SMOOTH",
"356 0 LINE",
"335 13 OFFCURVE",
"207 232 OFFCURVE",
"207 232 CURVE",
"207 232 OFFCURVE",
"207 232 OFFCURVE",
"207 232 CURVE",
"207 232 OFFCURVE",
"416 460 OFFCURVE",
"416 460 CURVE",
"394 460 LINE",
"199 246 LINE",
"178 278 OFFCURVE",
"68 460 OFFCURVE",
"68 460 CURVE"
);
}
);
width = 398;
}
);
note = X;
unicode = 0058;
},
{
color = 7;
glyphname = Y;
lastChange = "2021-06-22 13:13:00 +0000";
layers = (
{
anchors = (
{
name = bottom;
position = "{313, 0}";
},
{
name = top;
position = "{443, 460}";
},
{
name = topleft;
position = "{57, 460}";
}
);
background = {
hints = (
{
horizontal = 1;
place = "{0, 21}";
target = up;
type = BottomGhost;
},
{
place = "{245, 228}";
type = Stem;
}
);
paths = (
{
closed = 1;
nodes = (
"245 0 LINE",
"373 0 LINE SMOOTH",
"446 0 OFFCURVE",
"473 3 OFFCURVE",
"473 78 CURVE SMOOTH",
"473 181 LINE",
"677 431 LINE SMOOTH",
"687 442 OFFCURVE",
"698 455 OFFCURVE",
"710 460 CURVE",
"502 460 LINE",
"420 330 LINE",
"325 460 LINE",
"5 460 LINE",
"12 456 OFFCURVE",
"24 443 OFFCURVE",
"28 440 CURVE",
"245 180 LINE"
);
}
);
};
layerId = "C7668D88-AC50-4107-9C4B-DB5D26A8FA6C";
paths = (
{
closed = 1;
nodes = (
"342 0 LINE SMOOTH",
"420 0 OFFCURVE",
"443 10 OFFCURVE",
"452 78 CURVE SMOOTH",
"465 180 LINE",
"705 431 LINE",
"739 460 LINE",
"534 460 LINE",
"434 330 LINE",
"357 460 LINE",
"39 460 LINE",
"58 435 LINE",
"238 180 LINE",
"213 0 LINE"
);
}
);
width = 715;
},
{
anchors = (
{
name = bottom;
position = "{167, 0}";
},
{
name = top;
position = "{248, 460}";
},
{
name = topleft;
position = "{57, 460}";
}
);
background = {
paths = (
{
closed = 1;
nodes = (
"169 0 LINE SMOOTH",
"179 0 OFFCURVE",
"180 7 OFFCURVE",
"181 19 CURVE SMOOTH",
"205 190 LINE",
"395 433 LINE",
"416 460 LINE",
"397 460 LINE",
"200 209 LINE",
"78 460 LINE",
"56 460 LINE",
"69 435 LINE",
"185 190 LINE",
"159 0 LINE"
);
}
);
};
layerId = "B4E8C596-9C01-4F8A-BDA4-90320E25C0E6";
paths = (
{
closed = 1;
nodes = (
"169 0 LINE SMOOTH",
"179 0 OFFCURVE",
"179 7 OFFCURVE",
"181 19 CURVE SMOOTH",
"205 190 LINE",
"395 433 LINE",
"416 460 LINE",
"397 460 LINE",
"200 209 LINE",
"78 460 LINE",
"56 460 LINE",
"69 435 LINE",
"185 190 LINE",
"159 0 LINE"
);
}
);
width = 422;
}
);
note = Y;
unicode = 0059;
},
{
color = 7;
glyphname = Z;
lastChange = "2021-06-22 12:49:13 +0000";
layers = (
{
anchors = (
{
name = bottom;
position = "{287, 0}";
},
{
name = center;
position = "{319, 230}";
},
{
name = top;
position = "{352, 460}";
}
);
background = {
hints = (
{
horizontal = 1;
place = "{0, 118}";
type = Stem;
},
{
horizontal = 1;
place = "{342, 118}";
type = Stem;
},
{
place = "{10, 610}";
type = Stem;
}
);
paths = (
{
closed = 1;
nodes = (
"527 274 LINE SMOOTH",
"588 327 OFFCURVE",
"603 376 OFFCURVE",
"609 460 CURVE",
"95 460 LINE SMOOTH",
"22 460 OFFCURVE",
"23 434 OFFCURVE",
"23 398 CURVE SMOOTH",
"23 342 LINE",
"289 342 LINE",
"270 338 LINE",
"10 119 LINE",
"10 0 LINE",
"555 0 LINE SMOOTH",
"622 0 OFFCURVE",
"620 34 OFFCURVE",
"620 62 CURVE SMOOTH",
"620 118 LINE",
"326 118 LINE",
"345 122 LINE"
);
}
);
};
layerId = "C7668D88-AC50-4107-9C4B-DB5D26A8FA6C";
paths = (
{
closed = 1;
nodes = (
"330 122 LINE",
"534 274 LINE SMOOTH",
"631 346 OFFCURVE",
"641 456 OFFCURVE",
"641 460 CURVE",
"125 460 LINE SMOOTH",
"52 460 OFFCURVE",
"52 433 OFFCURVE",
"39 342 CURVE",
"305 342 LINE",
"301 341 OFFCURVE",
"288 339 OFFCURVE",
"285 338 CURVE",
"208 286 OFFCURVE",
"1 125 OFFCURVE",
"-6 118 CURVE",
"-22 0 LINE",
"496 0 LINE SMOOTH",
"588 0 OFFCURVE",
"588 5 OFFCURVE",
"604 118 CURVE",
"310 118 LINE"
);
}
);
width = 630;
},
{
anchors = (
{
name = bottom;
position = "{184, 0}";
},
{
name = center;
position = "{216, 230}";
},
{
name = top;
position = "{249, 460}";
}
);
background = {
paths = (
{
closed = 1;
nodes = (
"26 25 LINE",
"406 418 LINE SMOOTH",
"424 436 OFFCURVE",
"427 456 OFFCURVE",
"427 460 CURVE",
"92 460 LINE SMOOTH",
"77 460 OFFCURVE",
"76 452 OFFCURVE",
"75 443 CURVE",
"405 443 LINE",
"400 438 OFFCURVE",
"386 422 OFFCURVE",
"365 401 CURVE SMOOTH",
"261 292 OFFCURVE",
"-3 21 OFFCURVE",
"-3 21 CURVE",
"-6 0 LINE",
"343 0 LINE SMOOTH",
"364 0 OFFCURVE",
"367 2 OFFCURVE",
"369 17 CURVE",
"18 17 LINE"
);
}
);
};
layerId = "B4E8C596-9C01-4F8A-BDA4-90320E25C0E6";
paths = (
{
closed = 1;
nodes = (
"26 25 LINE",
"406 418 LINE SMOOTH",
"424 436 OFFCURVE",
"427 456 OFFCURVE",
"427 460 CURVE",
"92 460 LINE SMOOTH",
"77 460 OFFCURVE",
"76 452 OFFCURVE",
"75 443 CURVE",
"405 443 LINE",
"400 438 OFFCURVE",
"386 422 OFFCURVE",
"365 401 CURVE SMOOTH",
"261 292 OFFCURVE",
"-3 21 OFFCURVE",
"-3 21 CURVE",
"-6 0 LINE",
"343 0 LINE SMOOTH",
"364 0 OFFCURVE",
"367 2 OFFCURVE",
"369 17 CURVE",
"18 17 LINE"
);
}
);
width = 424;
}
);
note = Z;
unicode = 005A;
},
{
color = 7;
glyphname = bracketleft;
lastChange = "2021-06-22 13:13:00 +0000";
layers = (
{
layerId = "C7668D88-AC50-4107-9C4B-DB5D26A8FA6C";
paths = (
{
closed = 1;
nodes = (
"300 420 LINE SMOOTH",
"304 448 OFFCURVE",
"327 460 OFFCURVE",
"371 460 CURVE SMOOTH",
"409 460 LINE",
"419 534 LINE",
"79 534 LINE",
"-9 -98 LINE",
"-9 -98 OFFCURVE",
"330 -98 OFFCURVE",
"331 -97 CURVE",
"341 -22 LINE",
"303 -22 LINE SMOOTH",
"259 -22 OFFCURVE",
"240 -11 OFFCURVE",
"244 17 CURVE SMOOTH"
);
}
);
width = 410;
},
{
background = {
paths = (
{
closed = 1;
nodes = (
"97 473 LINE SMOOTH",
"101 506 OFFCURVE",
"111 520 OFFCURVE",
"147 520 CURVE SMOOTH",
"185 520 LINE",
"187 534 LINE",
"85 534 LINE",
"-3 -98 LINE",
"31 -98 OFFCURVE",
"65 -97 OFFCURVE",
"99 -97 CURVE",
"101 -83 LINE",
"63 -83 LINE SMOOTH",
"27 -83 OFFCURVE",
"20 -71 OFFCURVE",
"25 -38 CURVE SMOOTH"
);
}
);
};
layerId = "B4E8C596-9C01-4F8A-BDA4-90320E25C0E6";
paths = (
{
closed = 1;
nodes = (
"97 473 LINE SMOOTH",
"101 506 OFFCURVE",
"111 520 OFFCURVE",
"147 520 CURVE SMOOTH",
"185 520 LINE",
"187 534 LINE",
"85 534 LINE",
"-3 -98 LINE",
"31 -98 OFFCURVE",
"65 -97 OFFCURVE",
"99 -97 CURVE",
"101 -83 LINE",
"63 -83 LINE SMOOTH",
"27 -83 OFFCURVE",
"20 -71 OFFCURVE",
"25 -38 CURVE SMOOTH"
);
}
);
width = 235;
}
);
leftKerningGroup = bracketleft;
note = bracketleft;
rightKerningGroup = one;
unicode = 005B;
},
{
color = 7;
glyphname = backslash;
lastChange = "2021-06-22 13:13:00 +0000";
layers = (
{
layerId = "C7668D88-AC50-4107-9C4B-DB5D26A8FA6C";
paths = (
{
closed = 1;
nodes = (
"403 -38 LINE",
"220 559 LINE",
"77 559 LINE",
"261 -38 LINE"
);
}
);
width = 525;
},
{
background = {
paths = (
{
closed = 1;
nodes = (
"90 581 LINE",
"235 -38 LINE",
"254 -38 LINE",
"109 581 LINE"
);
}
);
};
layerId = "B4E8C596-9C01-4F8A-BDA4-90320E25C0E6";
paths = (
{
closed = 1;
nodes = (
"90 581 LINE",
"235 -38 LINE",
"254 -38 LINE",
"109 581 LINE"
);
}
);
width = 344;
}
);
note = backslash;
unicode = 005C;
},
{
color = 7;
glyphname = bracketright;
lastChange = "2021-06-22 13:13:00 +0000";
layers = (
{
layerId = "C7668D88-AC50-4107-9C4B-DB5D26A8FA6C";
paths = (
{
closed = 1;
nodes = (
"110 17 LINE SMOOTH",
"106 -11 OFFCURVE",
"83 -23 OFFCURVE",
"39 -23 CURVE SMOOTH",
"1 -23 LINE",
"-9 -98 LINE",
"331 -98 LINE",
"419 534 LINE",
"79 534 LINE",
"69 459 LINE",
"107 459 LINE SMOOTH",
"151 459 OFFCURVE",
"170 448 OFFCURVE",
"166 420 CURVE SMOOTH"
);
}
);
width = 410;
},
{
background = {
paths = (
{
closed = 1;
nodes = (
"87 -38 LINE SMOOTH",
"82 -71 OFFCURVE",
"73 -83 OFFCURVE",
"37 -83 CURVE SMOOTH",
"-1 -83 LINE",
"-3 -97 LINE",
"99 -98 LINE",
"187 534 LINE",
"85 534 LINE",
"83 520 LINE",
"121 520 LINE SMOOTH",
"157 520 OFFCURVE",
"163 506 OFFCURVE",
"159 473 CURVE SMOOTH"
);
}
);
};
layerId = "B4E8C596-9C01-4F8A-BDA4-90320E25C0E6";
paths = (
{
closed = 1;
nodes = (
"87 -38 LINE SMOOTH",
"82 -71 OFFCURVE",
"73 -83 OFFCURVE",
"37 -83 CURVE SMOOTH",
"-1 -83 LINE",
"-3 -97 LINE",
"99 -98 LINE",
"187 534 LINE",
"85 534 LINE",
"83 520 LINE",
"121 520 LINE SMOOTH",
"157 520 OFFCURVE",
"163 506 OFFCURVE",
"159 473 CURVE SMOOTH"
);
}
);
width = 235;
}
);
leftKerningGroup = bracketleft;
note = bracketright;
rightKerningGroup = one;
unicode = 005D;
},
{
color = 7;
glyphname = asciicircum;
lastChange = "2021-06-22 13:13:00 +0000";
layers = (
{
layerId = "C7668D88-AC50-4107-9C4B-DB5D26A8FA6C";
paths = (
{
closed = 1;
nodes = (
"221 360 LINE",
"296 229 LINE",
"385 229 LINE",
"281 460 LINE",
"186 460 LINE",
"19 229 LINE",
"103 229 LINE"
);
}
);
width = 436;
},
{
background = {
paths = (
{
closed = 1;
nodes = (
"170 443 LINE",
"236 229 LINE",
"254 229 LINE",
"180 460 LINE",
"163 460 LINE",
"26 229 LINE",
"41 229 LINE"
);
}
);
};
layerId = "B4E8C596-9C01-4F8A-BDA4-90320E25C0E6";
paths = (
{
closed = 1;
nodes = (
"170 443 LINE",
"236 229 LINE",
"254 229 LINE",
"180 460 LINE",
"163 460 LINE",
"26 229 LINE",
"41 229 LINE"
);
}
);
width = 312;
}
);
note = asciicircum;
unicode = 005E;
},
{
color = 7;
glyphname = underscore;
lastChange = "2021-06-22 13:13:00 +0000";
layers = (
{
layerId = "C7668D88-AC50-4107-9C4B-DB5D26A8FA6C";
paths = (
{
closed = 1;
nodes = (
"839 -200 LINE",
"851 -119 LINE",
"41 -119 LINE",
"29 -200 LINE"
);
}
);
width = 880;
},
{
background = {
paths = (
{
closed = 1;
nodes = (
"690 -165 LINE",
"692 -150 LINE",
"44 -150 LINE",
"42 -165 LINE"
);
}
);
};
layerId = "B4E8C596-9C01-4F8A-BDA4-90320E25C0E6";
paths = (
{
closed = 1;
nodes = (
"690 -165 LINE",
"692 -150 LINE",
"44 -150 LINE",
"42 -165 LINE"
);
}
);
width = 732;
}
);
note = underscore;
unicode = 005F;
},
{
color = 7;
glyphname = a;
lastChange = "2021-06-22 13:13:00 +0000";
layers = (
{
anchors = (
{
name = bottom;
position = "{263, 0}";
},
{
name = ogonek;
position = "{497, 10}";
},
{
name = top;
position = "{319, 399}";
}
);
layerId = "C7668D88-AC50-4107-9C4B-DB5D26A8FA6C";
paths = (
{
closed = 1;
nodes = (
"525 20 OFFCURVE",
"531 57 OFFCURVE",
"553 214 CURVE SMOOTH",
"572 348 OFFCURVE",
"535 388 OFFCURVE",
"437 398 CURVE SMOOTH",
"368 405 OFFCURVE",
"188 406 OFFCURVE",
"127 395 CURVE SMOOTH",
"93 389 OFFCURVE",
"77 368 OFFCURVE",
"71 327 CURVE SMOOTH",
"66 289 LINE",
"137 289 OFFCURVE",
"208 289 OFFCURVE",
"279 289 CURVE SMOOTH",
"350 289 OFFCURVE",
"367 279 OFFCURVE",
"355 230 CURVE",
"331 239 OFFCURVE",
"200 238 OFFCURVE",
"131 238 CURVE SMOOTH",
"49 238 OFFCURVE",
"30 204 OFFCURVE",
"17 111 CURVE SMOOTH",
"6 28 OFFCURVE",
"39 5 OFFCURVE",
"97 1 CURVE SMOOTH",
"215 -8 OFFCURVE",
"498 -4 OFFCURVE",
"525 20 CURVE"
);
},
{
closed = 1;
nodes = (
"226 79 OFFCURVE",
"219 84 OFFCURVE",
"225 129 CURVE SMOOTH",
"231 174 OFFCURVE",
"239 175 OFFCURVE",
"254 175 CURVE SMOOTH",
"265 175 OFFCURVE",
"335 174 OFFCURVE",
"341 170 CURVE",
"340 166 OFFCURVE",
"332 106 OFFCURVE",
"328 84 CURVE",
"321 80 OFFCURVE",
"250 79 OFFCURVE",
"241 79 CURVE SMOOTH"
);
}
);
width = 582;
},
{
anchors = (
{
name = bottom;
position = "{184, 0}";
},
{
name = ogonek;
position = "{355, 10}";
},
{
name = top;
position = "{240, 399}";
}
);
background = {
hints = (
{
horizontal = 1;
place = "{-4, 21}";
target = up;
type = BottomGhost;
},
{
horizontal = 1;
place = "{75, 96}";
type = Stem;
},
{
horizontal = 1;
place = "{460, -20}";
target = down;
type = TopGhost;
},
{
place = "{48, 383}";
type = Stem;
},
{
place = "{55, 98}";
type = Stem;
},
{
place = "{372, 98}";
type = Stem;
},
{
horizontal = 1;
place = "{0, 171}";
type = Stem;
},
{
horizontal = 1;
place = "{368, 97}";
type = Stem;
}
);
paths = (
{
closed = 1;
nodes = (
"365 69 OFFCURVE",
"370 115 OFFCURVE",
"389 248 CURVE SMOOTH",
"409 393 OFFCURVE",
"344 405 OFFCURVE",
"238 405 CURVE SMOOTH",
"198 405 OFFCURVE",
"151 400 OFFCURVE",
"127 394 CURVE SMOOTH",
"112 390 OFFCURVE",
"87 385 OFFCURVE",
"84 363 CURVE SMOOTH",
"83 356 LINE",
"104 381 OFFCURVE",
"195 390 OFFCURVE",
"240 390 CURVE SMOOTH",
"334 390 OFFCURVE",
"391 379 OFFCURVE",
"367 229 CURVE",
"353 235 OFFCURVE",
"265 243 OFFCURVE",
"198 243 CURVE SMOOTH",
"84 243 OFFCURVE",
"45 219 OFFCURVE",
"31 118 CURVE SMOOTH",
"18 28 OFFCURVE",
"42 -8 OFFCURVE",
"180 -8 CURVE SMOOTH",
"276 -8 OFFCURVE",
"354 -5 OFFCURVE",
"360 36 CURVE"
);
},
{
closed = 1;
nodes = (
"51 6 OFFCURVE",
"39 43 OFFCURVE",
"50 119 CURVE SMOOTH",
"64 222 OFFCURVE",
"107 228 OFFCURVE",
"217 228 CURVE SMOOTH",
"265 228 OFFCURVE",
"351 218 OFFCURVE",
"365 211 CURVE",
"364 203 OFFCURVE",
"346 69 OFFCURVE",
"342 39 CURVE",
"339 21 OFFCURVE",
"299 6 OFFCURVE",
"181 6 CURVE SMOOTH"
);
}
);
};
layerId = "B4E8C596-9C01-4F8A-BDA4-90320E25C0E6";
paths = (
{
closed = 1;
nodes = (
"365 69 OFFCURVE",
"370 115 OFFCURVE",
"389 248 CURVE SMOOTH",
"409 393 OFFCURVE",
"344 405 OFFCURVE",
"238 405 CURVE SMOOTH",
"198 405 OFFCURVE",
"151 400 OFFCURVE",
"127 394 CURVE SMOOTH",
"112 390 OFFCURVE",
"87 385 OFFCURVE",
"84 363 CURVE SMOOTH",
"83 356 LINE",
"104 381 OFFCURVE",
"195 390 OFFCURVE",
"240 390 CURVE SMOOTH",
"334 390 OFFCURVE",
"391 379 OFFCURVE",
"367 229 CURVE",
"353 235 OFFCURVE",
"265 243 OFFCURVE",
"198 243 CURVE SMOOTH",
"84 243 OFFCURVE",
"45 219 OFFCURVE",
"31 118 CURVE SMOOTH",
"18 28 OFFCURVE",
"42 -8 OFFCURVE",
"180 -8 CURVE SMOOTH",
"276 -8 OFFCURVE",
"354 -5 OFFCURVE",
"360 36 CURVE"
);
},
{
closed = 1;
nodes = (
"51 6 OFFCURVE",
"39 43 OFFCURVE",
"50 119 CURVE SMOOTH",
"64 222 OFFCURVE",
"107 228 OFFCURVE",
"217 228 CURVE SMOOTH",
"265 228 OFFCURVE",
"351 218 OFFCURVE",
"365 211 CURVE",
"364 203 OFFCURVE",
"346 69 OFFCURVE",
"342 39 CURVE",
"339 21 OFFCURVE",
"299 6 OFFCURVE",
"181 6 CURVE SMOOTH"
);
}
);
width = 424;
}
);
leftKerningGroup = a;
note = a;
unicode = 0061;
},
{
color = 7;
glyphname = b;
lastChange = "2021-06-22 13:13:00 +0000";
layers = (
{
layerId = "C7668D88-AC50-4107-9C4B-DB5D26A8FA6C";
paths = (
{
closed = 1;
nodes = (
"23 193 LINE SMOOTH",
"2 47 OFFCURVE",
"16 -5 OFFCURVE",
"246 -5 CURVE SMOOTH",
"444 -5 OFFCURVE",
"513 3 OFFCURVE",
"538 181 CURVE SMOOTH",
"541 197 OFFCURVE",
"543 212 OFFCURVE",
"545 228 CURVE SMOOTH",
"569 402 OFFCURVE",
"472 400 OFFCURVE",
"329 400 CURVE SMOOTH",
"312 400 OFFCURVE",
"305 401 OFFCURVE",
"259 398 CURVE",
"264 434 OFFCURVE",
"269 469 OFFCURVE",
"274 505 CURVE",
"205 505 OFFCURVE",
"135 505 OFFCURVE",
"66 505 CURVE"
);
},
{
closed = 1;
nodes = (
"235 102 OFFCURVE",
"217 103 OFFCURVE",
"226 165 CURVE SMOOTH",
"244 291 LINE",
"257 291 OFFCURVE",
"270 291 OFFCURVE",
"283 291 CURVE SMOOTH",
"328 291 OFFCURVE",
"347 291 OFFCURVE",
"339 237 CURVE SMOOTH",
"336 211 OFFCURVE",
"332 184 OFFCURVE",
"328 158 CURVE SMOOTH",
"320 115 OFFCURVE",
"306 102 OFFCURVE",
"267 102 CURVE SMOOTH"
);
}
);
width = 578;
},
{
background = {
paths = (
{
closed = 1;
nodes = (
"36 201 LINE SMOOTH",
"10 17 OFFCURVE",
"30 -2 OFFCURVE",
"163 -2 CURVE SMOOTH",
"266 -2 OFFCURVE",
"346 -2 OFFCURVE",
"375 203 CURVE SMOOTH",
"376 206 OFFCURVE",
"376 209 OFFCURVE",
"376 212 CURVE SMOOTH",
"396 365 OFFCURVE",
"341 400 OFFCURVE",
"228 400 CURVE SMOOTH",
"195 400 OFFCURVE",
"86 395 OFFCURVE",
"80 394 CURVE",
"85 431 OFFCURVE",
"90 468 OFFCURVE",
"96 505 CURVE",
"90 505 OFFCURVE",
"84 505 OFFCURVE",
"78 505 CURVE"
);
},
{
closed = 1;
nodes = (
"38 12 OFFCURVE",
"31 37 OFFCURVE",
"53 193 CURVE SMOOTH",
"79 380 LINE",
"86 381 OFFCURVE",
"192 385 OFFCURVE",
"234 385 CURVE SMOOTH",
"330 385 OFFCURVE",
"376 339 OFFCURVE",
"358 208 CURVE SMOOTH",
"358 206 OFFCURVE",
"357 204 OFFCURVE",
"357 203 CURVE SMOOTH",
"333 39 OFFCURVE",
"289 12 OFFCURVE",
"165 12 CURVE SMOOTH"
);
}
);
};
layerId = "B4E8C596-9C01-4F8A-BDA4-90320E25C0E6";
paths = (
{
closed = 1;
nodes = (
"36 201 LINE SMOOTH",
"10 17 OFFCURVE",
"30 -2 OFFCURVE",
"163 -2 CURVE SMOOTH",
"266 -2 OFFCURVE",
"346 -2 OFFCURVE",
"375 203 CURVE SMOOTH",
"376 206 OFFCURVE",
"376 209 OFFCURVE",
"376 212 CURVE SMOOTH",
"396 365 OFFCURVE",
"341 400 OFFCURVE",
"228 400 CURVE SMOOTH",
"195 400 OFFCURVE",
"86 395 OFFCURVE",
"80 394 CURVE",
"85 431 OFFCURVE",
"90 468 OFFCURVE",
"96 505 CURVE",
"90 505 OFFCURVE",
"84 505 OFFCURVE",
"78 505 CURVE"
);
},
{
closed = 1;
nodes = (
"38 12 OFFCURVE",
"31 37 OFFCURVE",
"53 193 CURVE SMOOTH",
"79 380 LINE",
"86 381 OFFCURVE",
"192 385 OFFCURVE",
"234 385 CURVE SMOOTH",
"330 385 OFFCURVE",
"376 339 OFFCURVE",
"358 208 CURVE SMOOTH",
"358 206 OFFCURVE",
"357 204 OFFCURVE",
"357 203 CURVE SMOOTH",
"333 39 OFFCURVE",
"289 12 OFFCURVE",
"165 12 CURVE SMOOTH"
);
}
);
width = 424;
}
);
leftKerningGroup = parenleft;
note = b;
unicode = 0062;
},
{
color = 7;
glyphname = c;
lastChange = "2021-06-22 13:13:00 +0000";
layers = (
{
anchors = (
{
name = bottom;
position = "{252, 0}";
},
{
name = top;
position = "{309, 399}";
}
);
background = {
hints = (
{
horizontal = 1;
place = "{-4, 104}";
type = Stem;
},
{
horizontal = 1;
place = "{301, 99}";
type = Stem;
},
{
place = "{30, 201}";
type = Stem;
}
);
paths = (
{
closed = 1;
nodes = (
"30 -10 OFFCURVE",
"144 -4 OFFCURVE",
"326 -4 CURVE SMOOTH",
"468 -4 OFFCURVE",
"506 -5 OFFCURVE",
"506 98 CURVE SMOOTH",
"506 112 LINE",
"499 109 OFFCURVE",
"437 100 OFFCURVE",
"408 100 CURVE SMOOTH",
"379 98 OFFCURVE",
"350 99 OFFCURVE",
"322 101 CURVE SMOOTH",
"259 107 OFFCURVE",
"231 124 OFFCURVE",
"231 198 CURVE SMOOTH",
"231 295 OFFCURVE",
"274 301 OFFCURVE",
"366 301 CURVE SMOOTH",
"412 301 OFFCURVE",
"483 297 OFFCURVE",
"506 289 CURVE",
"506 292 OFFCURVE",
"506 296 OFFCURVE",
"506 299 CURVE SMOOTH",
"506 402 OFFCURVE",
"462 400 OFFCURVE",
"322 400 CURVE SMOOTH",
"163 400 OFFCURVE",
"30 391 OFFCURVE",
"30 194 CURVE SMOOTH"
);
}
);
};
layerId = "C7668D88-AC50-4107-9C4B-DB5D26A8FA6C";
paths = (
{
closed = 1;
nodes = (
"8 29 OFFCURVE",
"77 -7 OFFCURVE",
"273 -7 CURVE SMOOTH",
"390 -7 OFFCURVE",
"476 -7 OFFCURVE",
"486 59 CURVE SMOOTH",
"494 112 LINE",
"471 105 OFFCURVE",
"405 100 OFFCURVE",
"365 100 CURVE SMOOTH",
"252 100 OFFCURVE",
"221 125 OFFCURVE",
"231 202 CURVE SMOOTH",
"242 279 OFFCURVE",
"281 304 OFFCURVE",
"394 304 CURVE SMOOTH",
"434 304 OFFCURVE",
"498 299 OFFCURVE",
"519 292 CURVE",
"531 375 OFFCURVE",
"508 390 OFFCURVE",
"468 395 CURVE SMOOTH",
"415 402 OFFCURVE",
"386 405 OFFCURVE",
"331 405 CURVE SMOOTH",
"135 405 OFFCURVE",
"56 367 OFFCURVE",
"32 200 CURVE SMOOTH"
);
}
);
width = 536;
},
{
anchors = (
{
name = bottom;
position = "{205, 0}";
},
{
name = top;
position = "{255, 399}";
}
);
background = {
paths = (
{
closed = 1;
nodes = (
"15 29 OFFCURVE",
"64 -7 OFFCURVE",
"206 -7 CURVE SMOOTH",
"251 -7 OFFCURVE",
"355 -2 OFFCURVE",
"358 22 CURVE SMOOTH",
"359 30 LINE",
"332 17 OFFCURVE",
"253 7 OFFCURVE",
"206 7 CURVE SMOOTH",
"72 7 OFFCURVE",
"37 55 OFFCURVE",
"57 200 CURVE SMOOTH",
"77 344 OFFCURVE",
"126 391 OFFCURVE",
"260 391 CURVE SMOOTH",
"307 391 OFFCURVE",
"384 382 OFFCURVE",
"407 369 CURVE",
"409 384 OFFCURVE",
"409 390 OFFCURVE",
"380 395 CURVE SMOOTH",
"342 403 OFFCURVE",
"304 405 OFFCURVE",
"264 405 CURVE SMOOTH",
"122 405 OFFCURVE",
"63 367 OFFCURVE",
"39 200 CURVE SMOOTH"
);
}
);
};
layerId = "B4E8C596-9C01-4F8A-BDA4-90320E25C0E6";
paths = (
{
closed = 1;
nodes = (
"15 29 OFFCURVE",
"64 -7 OFFCURVE",
"206 -7 CURVE SMOOTH",
"251 -7 OFFCURVE",
"355 -2 OFFCURVE",
"358 22 CURVE SMOOTH",
"359 30 LINE",
"332 17 OFFCURVE",
"253 7 OFFCURVE",
"206 7 CURVE SMOOTH",
"72 7 OFFCURVE",
"37 55 OFFCURVE",
"57 200 CURVE SMOOTH",
"77 344 OFFCURVE",
"126 391 OFFCURVE",
"260 391 CURVE SMOOTH",
"307 391 OFFCURVE",
"384 382 OFFCURVE",
"407 369 CURVE",
"409 384 OFFCURVE",
"409 390 OFFCURVE",
"380 395 CURVE SMOOTH",
"342 403 OFFCURVE",
"304 405 OFFCURVE",
"264 405 CURVE SMOOTH",
"122 405 OFFCURVE",
"63 367 OFFCURVE",
"39 200 CURVE SMOOTH"
);
}
);
width = 420;
}
);
leftKerningGroup = c;
note = c;
unicode = 0063;
},
{
color = 7;
glyphname = d;
lastChange = "2021-06-22 13:13:00 +0000";
layers = (
{
anchors = (
{
name = bottom;
position = "{262, 0}";
},
{
name = center;
position = "{290, 200}";
},
{
name = top;
position = "{397, 960}";
},
{
name = topright;
position = "{620, 505}";
}
);
layerId = "C7668D88-AC50-4107-9C4B-DB5D26A8FA6C";
paths = (
{
closed = 1;
nodes = (
"-5 0 OFFCURVE",
"74 -2 OFFCURVE",
"247 -2 CURVE SMOOTH",
"430 -2 OFFCURVE",
"516 18 OFFCURVE",
"542 201 CURVE SMOOTH",
"585 505 LINE",
"377 505 LINE",
"361 394 LINE",
"351 398 OFFCURVE",
"314 400 OFFCURVE",
"295 400 CURVE SMOOTH",
"132 400 OFFCURVE",
"46 366 OFFCURVE",
"22 198 CURVE SMOOTH"
);
},
{
closed = 1;
nodes = (
"219 102 OFFCURVE",
"220 134 OFFCURVE",
"232 215 CURVE SMOOTH",
"242 285 OFFCURVE",
"268 290 OFFCURVE",
"339 290 CURVE SMOOTH",
"341 290 OFFCURVE",
"344 290 OFFCURVE",
"346 290 CURVE",
"331 178 LINE SMOOTH",
"321 102 OFFCURVE",
"284 102 OFFCURVE",
"269 102 CURVE SMOOTH"
);
}
);
width = 579;
},
{
anchors = (
{
name = bottom;
position = "{184, 0}";
},
{
name = center;
position = "{212, 200}";
},
{
name = top;
position = "{319, 960}";
},
{
name = topright;
position = "{472, 505}";
}
);
background = {
paths = (
{
closed = 1;
nodes = (
"6 -7 OFFCURVE",
"73 -2 OFFCURVE",
"189 -2 CURVE SMOOTH",
"322 -2 OFFCURVE",
"348 17 OFFCURVE",
"374 201 CURVE SMOOTH",
"418 505 LINE",
"401 505 LINE",
"385 394 LINE",
"379 395 OFFCURVE",
"271 400 OFFCURVE",
"238 400 CURVE SMOOTH",
"123 400 OFFCURVE",
"58 364 OFFCURVE",
"35 203 CURVE SMOOTH"
);
},
{
closed = 1;
nodes = (
"57 12 OFFCURVE",
"30 37 OFFCURVE",
"53 199 CURVE SMOOTH",
"70 326 OFFCURVE",
"105 385 OFFCURVE",
"236 385 CURVE SMOOTH",
"279 385 OFFCURVE",
"376 379 OFFCURVE",
"383 378 CURVE",
"357 196 LINE SMOOTH",
"332 19 OFFCURVE",
"306 12 OFFCURVE",
"166 12 CURVE SMOOTH"
);
}
);
};
layerId = "B4E8C596-9C01-4F8A-BDA4-90320E25C0E6";
paths = (
{
closed = 1;
nodes = (
"6 -7 OFFCURVE",
"73 -2 OFFCURVE",
"189 -2 CURVE SMOOTH",
"322 -2 OFFCURVE",
"347 17 OFFCURVE",
"374 201 CURVE SMOOTH",
"418 505 LINE",
"401 505 LINE",
"385 394 LINE",
"379 395 OFFCURVE",
"271 400 OFFCURVE",
"238 400 CURVE SMOOTH",
"123 400 OFFCURVE",
"58 364 OFFCURVE",
"35 203 CURVE SMOOTH"
);
},
{
closed = 1;
nodes = (
"57 12 OFFCURVE",
"30 37 OFFCURVE",
"53 199 CURVE SMOOTH",
"70 326 OFFCURVE",
"105 385 OFFCURVE",
"236 385 CURVE SMOOTH",
"279 385 OFFCURVE",
"376 379 OFFCURVE",
"383 378 CURVE",
"357 196 LINE SMOOTH",
"332 19 OFFCURVE",
"306 12 OFFCURVE",
"166 12 CURVE SMOOTH"
);
}
);
width = 424;
}
);
note = d;
unicode = 0064;
},
{
color = 7;
glyphname = e;
lastChange = "2021-06-23 05:34:21 +0000";
layers = (
{
anchors = (
{
name = bottom;
position = "{262, 0}";
},
{
name = ogonek;
position = "{331, 10}";
},
{
name = top;
position = "{326, 399}";
}
);
layerId = "C7668D88-AC50-4107-9C4B-DB5D26A8FA6C";
paths = (
{
closed = 1;
nodes = (
"349 161 OFFCURVE",
"446 161 OFFCURVE",
"544 161 CURVE",
"549 198 OFFCURVE",
"554 236 OFFCURVE",
"560 273 CURVE SMOOTH",
"577 398 OFFCURVE",
"422 400 OFFCURVE",
"337 400 CURVE SMOOTH",
"170 400 OFFCURVE",
"56 380 OFFCURVE",
"28 185 CURVE SMOOTH",
"2 1 OFFCURVE",
"79 -5 OFFCURVE",
"268 -5 CURVE SMOOTH",
"407 -5 OFFCURVE",
"482 -2 OFFCURVE",
"505 22 CURVE SMOOTH",
"520 36 OFFCURVE",
"529 68 OFFCURVE",
"533 91 CURVE SMOOTH",
"534 101 OFFCURVE",
"536 109 OFFCURVE",
"536 114 CURVE",
"525 113 OFFCURVE",
"373 110 OFFCURVE",
"350 110 CURVE SMOOTH",
"250 110 OFFCURVE",
"226 106 OFFCURVE",
"238 189 CURVE SMOOTH",
"250 274 OFFCURVE",
"261 290 OFFCURVE",
"321 290 CURVE SMOOTH",
"377 290 OFFCURVE",
"375 265 OFFCURVE",
"370 226 CURVE",
"352 226 OFFCURVE",
"335 226 OFFCURVE",
"317 226 CURVE SMOOTH",
"262 226 OFFCURVE",
"255 188 OFFCURVE",
"251 161 CURVE"
);
}
);
width = 579;
},
{
anchors = (
{
name = bottom;
position = "{194, 0}";
},
{
name = ogonek;
position = "{217, 3}";
},
{
name = top;
position = "{252, 399}";
}
);
background = {
paths = (
{
closed = 1;
nodes = (
"194 197 OFFCURVE",
"293 197 OFFCURVE",
"391 197 CURVE",
"393 212 OFFCURVE",
"395 226 OFFCURVE",
"397 241 CURVE SMOOTH",
"410 351 OFFCURVE",
"375 405 OFFCURVE",
"262 405 CURVE SMOOTH",
"107 405 OFFCURVE",
"59 338 OFFCURVE",
"39 200 CURVE SMOOTH",
"15 29 OFFCURVE",
"64 -7 OFFCURVE",
"206 -7 CURVE SMOOTH",
"246 -7 OFFCURVE",
"284 -4 OFFCURVE",
"324 3 CURVE SMOOTH",
"351 8 OFFCURVE",
"357 14 OFFCURVE",
"358 22 CURVE SMOOTH",
"358 24 OFFCURVE",
"359 27 OFFCURVE",
"359 29 CURVE",
"332 16 OFFCURVE",
"254 8 OFFCURVE",
"207 8 CURVE SMOOTH",
"73 8 OFFCURVE",
"36 51 OFFCURVE",
"57 200 CURVE SMOOTH",
"76 336 OFFCURVE",
"126 391 OFFCURVE",
"261 391 CURVE SMOOTH",
"364 391 OFFCURVE",
"394 338 OFFCURVE",
"376 211 CURVE",
"287 211 OFFCURVE",
"198 211 OFFCURVE",
"109 211 CURVE SMOOTH",
"102 211 OFFCURVE",
"97 204 OFFCURVE",
"96 197 CURVE"
);
}
);
};
layerId = "B4E8C596-9C01-4F8A-BDA4-90320E25C0E6";
paths = (
{
closed = 1;
nodes = (
"194 197 OFFCURVE",
"293 197 OFFCURVE",
"391 197 CURVE",
"393 212 OFFCURVE",
"395 226 OFFCURVE",
"397 241 CURVE SMOOTH",
"410 351 OFFCURVE",
"375 405 OFFCURVE",
"262 405 CURVE SMOOTH",
"107 405 OFFCURVE",
"59 338 OFFCURVE",
"39 200 CURVE SMOOTH",
"15 29 OFFCURVE",
"64 -7 OFFCURVE",
"206 -7 CURVE SMOOTH",
"246 -7 OFFCURVE",
"284 -4 OFFCURVE",
"324 3 CURVE SMOOTH",
"351 8 OFFCURVE",
"357 14 OFFCURVE",
"358 22 CURVE SMOOTH",
"358 24 OFFCURVE",
"359 27 OFFCURVE",
"359 29 CURVE",
"332 16 OFFCURVE",
"254 8 OFFCURVE",
"207 8 CURVE SMOOTH",
"73 8 OFFCURVE",
"36 51 OFFCURVE",
"57 200 CURVE SMOOTH",
"76 336 OFFCURVE",
"126 391 OFFCURVE",
"261 391 CURVE SMOOTH",
"364 391 OFFCURVE",
"394 338 OFFCURVE",
"376 211 CURVE",
"287 211 OFFCURVE",
"198 211 OFFCURVE",
"109 211 CURVE SMOOTH",
"102 211 OFFCURVE",
"97 204 OFFCURVE",
"96 197 CURVE"
);
}
);
width = 424;
}
);
leftKerningGroup = e;
note = e;
rightKerningGroup = e;
unicode = 0065;
},
{
color = 7;
glyphname = f;
lastChange = "2021-06-22 13:13:00 +0000";
layers = (
{
layerId = "C7668D88-AC50-4107-9C4B-DB5D26A8FA6C";
paths = (
{
closed = 1;
nodes = (
"29 246 LINE",
"67 246 LINE",
"41 59 LINE SMOOTH",
"35 18 OFFCURVE",
"43 0 OFFCURVE",
"95 0 CURVE SMOOTH",
"240 0 LINE",
"275 246 LINE",
"462 246 LINE",
"477 352 LINE",
"290 352 LINE",
"292 365 LINE SMOOTH",
"294 383 OFFCURVE",
"302 399 OFFCURVE",
"331 399 CURVE SMOOTH",
"353 399 OFFCURVE",
"458 398 OFFCURVE",
"482 391 CURVE",
"497 497 LINE",
"431 503 OFFCURVE",
"300 510 OFFCURVE",
"214 505 CURVE SMOOTH",
"128 500 OFFCURVE",
"95 447 OFFCURVE",
"85 376 CURVE SMOOTH",
"82 352 LINE",
"44 352 LINE"
);
}
);
width = 483;
},
{
background = {
paths = (
{
closed = 1;
nodes = (
"54 338 LINE",
"85 338 LINE",
"40 15 LINE SMOOTH",
"38 2 OFFCURVE",
"41 0 OFFCURVE",
"49 0 CURVE SMOOTH",
"55 0 LINE",
"102 338 LINE",
"217 338 LINE",
"219 352 LINE",
"104 352 LINE",
"113 418 LINE SMOOTH",
"120 469 OFFCURVE",
"132 491 OFFCURVE",
"186 491 CURVE SMOOTH",
"214 491 OFFCURVE",
"238 484 OFFCURVE",
"238 484 CURVE",
"240 498 LINE",
"240 498 OFFCURVE",
"213 505 OFFCURVE",
"168 505 CURVE SMOOTH",
"116 505 OFFCURVE",
"103 467 OFFCURVE",
"97 424 CURVE SMOOTH",
"87 352 LINE",
"56 352 LINE"
);
}
);
};
layerId = "B4E8C596-9C01-4F8A-BDA4-90320E25C0E6";
paths = (
{
closed = 1;
nodes = (
"54 338 LINE",
"85 338 LINE",
"40 15 LINE SMOOTH",
"38 2 OFFCURVE",
"41 0 OFFCURVE",
"49 0 CURVE SMOOTH",
"55 0 LINE",
"102 338 LINE",
"217 338 LINE",
"219 352 LINE",
"104 352 LINE",
"113 418 LINE SMOOTH",
"120 469 OFFCURVE",
"132 491 OFFCURVE",
"186 491 CURVE SMOOTH",
"214 491 OFFCURVE",
"238 484 OFFCURVE",
"238 484 CURVE",
"240 498 LINE",
"240 498 OFFCURVE",
"213 505 OFFCURVE",
"168 505 CURVE SMOOTH",
"116 505 OFFCURVE",
"103 467 OFFCURVE",
"97 424 CURVE SMOOTH",
"87 352 LINE",
"56 352 LINE"
);
}
);
width = 244;
}
);
note = f;
rightKerningGroup = f;
unicode = 0066;
},
{
color = 7;
glyphname = g;
lastChange = "2021-06-22 13:13:00 +0000";
layers = (
{
anchors = (
{
name = bottom;
position = "{217, -350}";
},
{
name = top;
position = "{341, 399}";
}
);
layerId = "C7668D88-AC50-4107-9C4B-DB5D26A8FA6C";
paths = (
{
closed = 1;
nodes = (
"39 -7 OFFCURVE",
"34 -38 OFFCURVE",
"33 -47 CURVE SMOOTH",
"23 -120 OFFCURVE",
"159 -109 OFFCURVE",
"240 -109 CURVE SMOOTH",
"431 -109 OFFCURVE",
"527 -77 OFFCURVE",
"548 86 CURVE SMOOTH",
"559 166 OFFCURVE",
"570 246 OFFCURVE",
"581 326 CURVE SMOOTH",
"585 355 OFFCURVE",
"589 382 OFFCURVE",
"592 387 CURVE",
"569 389 OFFCURVE",
"420 401 OFFCURVE",
"368 401 CURVE SMOOTH",
"164 401 OFFCURVE",
"63 378 OFFCURVE",
"42 228 CURVE SMOOTH",
"19 70 OFFCURVE",
"79 49 OFFCURVE",
"220 49 CURVE SMOOTH",
"293 49 OFFCURVE",
"330 66 OFFCURVE",
"341 94 CURVE",
"325 -17 OFFCURVE",
"301 -21 OFFCURVE",
"204 -21 CURVE SMOOTH",
"145 -21 OFFCURVE",
"55 -7 OFFCURVE",
"40 0 CURVE"
);
},
{
closed = 1;
nodes = (
"358 212 LINE",
"350 152 OFFCURVE",
"313 142 OFFCURVE",
"295 142 CURVE SMOOTH",
"261 142 OFFCURVE",
"243 144 OFFCURVE",
"255 230 CURVE SMOOTH",
"262 282 OFFCURVE",
"277 294 OFFCURVE",
"315 294 CURVE SMOOTH",
"345 294 OFFCURVE",
"362 293 OFFCURVE",
"370 293 CURVE"
);
}
);
width = 588;
},
{
anchors = (
{
name = bottom;
position = "{137, -350}";
},
{
name = top;
position = "{264, 402}";
}
);
background = {
paths = (
{
closed = 1;
nodes = (
"35 -72 OFFCURVE",
"35 -76 OFFCURVE",
"34 -79 CURVE SMOOTH",
"31 -105 OFFCURVE",
"153 -111 OFFCURVE",
"177 -111 CURVE SMOOTH",
"238 -111 OFFCURVE",
"280 -99 OFFCURVE",
"308 -74 CURVE SMOOTH",
"364 -25 OFFCURVE",
"372 71 OFFCURVE",
"392 218 CURVE SMOOTH",
"402 286 OFFCURVE",
"415 382 OFFCURVE",
"419 390 CURVE",
"401 394 OFFCURVE",
"319 402 OFFCURVE",
"264 402 CURVE SMOOTH",
"135 402 OFFCURVE",
"75 379 OFFCURVE",
"53 222 CURVE SMOOTH",
"31 70 OFFCURVE",
"84 46 OFFCURVE",
"195 46 CURVE SMOOTH",
"226 46 OFFCURVE",
"313 51 OFFCURVE",
"358 101 CURVE",
"335 -60 OFFCURVE",
"278 -96 OFFCURVE",
"178 -96 CURVE SMOOTH",
"138 -96 OFFCURVE",
"65 -87 OFFCURVE",
"36 -69 CURVE"
);
},
{
closed = 1;
nodes = (
"360 141 LINE",
"342 69 OFFCURVE",
"234 61 OFFCURVE",
"190 61 CURVE SMOOTH",
"85 61 OFFCURVE",
"53 95 OFFCURVE",
"71 227 CURVE SMOOTH",
"89 351 OFFCURVE",
"136 387 OFFCURVE",
"259 387 CURVE SMOOTH",
"328 387 OFFCURVE",
"382 379 OFFCURVE",
"396 375 CURVE"
);
}
);
};
layerId = "B4E8C596-9C01-4F8A-BDA4-90320E25C0E6";
paths = (
{
closed = 1;
nodes = (
"35 -72 OFFCURVE",
"35 -76 OFFCURVE",
"34 -79 CURVE SMOOTH",
"31 -105 OFFCURVE",
"153 -111 OFFCURVE",
"177 -111 CURVE SMOOTH",
"238 -111 OFFCURVE",
"280 -99 OFFCURVE",
"308 -74 CURVE SMOOTH",
"364 -25 OFFCURVE",
"372 71 OFFCURVE",
"392 218 CURVE SMOOTH",
"402 286 OFFCURVE",
"415 382 OFFCURVE",
"419 390 CURVE",
"401 394 OFFCURVE",
"319 402 OFFCURVE",
"264 402 CURVE SMOOTH",
"135 402 OFFCURVE",
"75 379 OFFCURVE",
"53 222 CURVE SMOOTH",
"31 70 OFFCURVE",
"84 46 OFFCURVE",
"195 46 CURVE SMOOTH",
"226 46 OFFCURVE",
"313 51 OFFCURVE",
"358 101 CURVE",
"335 -60 OFFCURVE",
"278 -96 OFFCURVE",
"178 -96 CURVE SMOOTH",
"138 -96 OFFCURVE",
"65 -87 OFFCURVE",
"36 -69 CURVE"
);
},
{
closed = 1;
nodes = (
"360 141 LINE",
"342 69 OFFCURVE",
"234 61 OFFCURVE",
"190 61 CURVE SMOOTH",
"85 61 OFFCURVE",
"53 95 OFFCURVE",
"71 227 CURVE SMOOTH",
"89 351 OFFCURVE",
"136 387 OFFCURVE",
"259 387 CURVE SMOOTH",
"328 387 OFFCURVE",
"382 379 OFFCURVE",
"396 375 CURVE"
);
}
);
width = 427;
}
);
note = g;
rightKerningGroup = one;
unicode = 0067;
},
{
color = 7;
glyphname = h;
lastChange = "2021-06-22 13:13:00 +0000";
layers = (
{
anchors = (
{
name = bottom;
position = "{262, 0}";
},
{
name = center;
position = "{329, 480}";
},
{
name = top;
position = "{173, 505}";
}
);
layerId = "C7668D88-AC50-4107-9C4B-DB5D26A8FA6C";
paths = (
{
closed = 1;
nodes = (
"45 356 OFFCURVE",
"24 206 OFFCURVE",
"3 57 CURVE SMOOTH",
"-7 -10 OFFCURVE",
"19 0 OFFCURVE",
"202 0 CURVE",
"215 99 OFFCURVE",
"230 199 OFFCURVE",
"243 298 CURVE",
"245 302 OFFCURVE",
"280 306 OFFCURVE",
"289 306 CURVE SMOOTH",
"355 306 OFFCURVE",
"351 281 OFFCURVE",
"343 225 CURVE SMOOTH",
"333 150 OFFCURVE",
"322 75 OFFCURVE",
"312 0 CURVE",
"481 0 OFFCURVE",
"511 -15 OFFCURVE",
"525 80 CURVE SMOOTH",
"527 93 OFFCURVE",
"535 151 OFFCURVE",
"541 198 CURVE SMOOTH",
"563 350 OFFCURVE",
"555 398 OFFCURVE",
"329 398 CURVE SMOOTH",
"314 398 OFFCURVE",
"278 398 OFFCURVE",
"257 396 CURVE",
"262 432 OFFCURVE",
"267 469 OFFCURVE",
"273 505 CURVE",
"204 505 OFFCURVE",
"135 505 OFFCURVE",
"66 505 CURVE"
);
}
);
width = 579;
},
{
anchors = (
{
name = bottom;
position = "{170, 0}";
},
{
name = center;
position = "{139, 484}";
},
{
name = top;
position = "{85, 504}";
}
);
background = {
paths = (
{
closed = 1;
nodes = (
"55 343 OFFCURVE",
"32 182 OFFCURVE",
"10 21 CURVE SMOOTH",
"7 0 OFFCURVE",
"8 0 OFFCURVE",
"25 0 CURVE",
"42 123 OFFCURVE",
"59 245 OFFCURVE",
"76 368 CURVE",
"105 380 OFFCURVE",
"160 385 OFFCURVE",
"201 385 CURVE SMOOTH",
"301 385 OFFCURVE",
"350 362 OFFCURVE",
"335 250 CURVE SMOOTH",
"323 167 OFFCURVE",
"311 83 OFFCURVE",
"300 0 CURVE",
"318 0 OFFCURVE",
"318 0 OFFCURVE",
"322 31 CURVE SMOOTH",
"332 100 OFFCURVE",
"341 168 OFFCURVE",
"351 237 CURVE SMOOTH",
"364 330 OFFCURVE",
"364 399 OFFCURVE",
"202 399 CURVE SMOOTH",
"154 399 OFFCURVE",
"104 394 OFFCURVE",
"78 383 CURVE",
"84 423 OFFCURVE",
"90 464 OFFCURVE",
"95 504 CURVE",
"89 504 OFFCURVE",
"83 504 OFFCURVE",
"77 504 CURVE"
);
}
);
};
layerId = "B4E8C596-9C01-4F8A-BDA4-90320E25C0E6";
paths = (
{
closed = 1;
nodes = (
"55 343 OFFCURVE",
"32 182 OFFCURVE",
"10 21 CURVE SMOOTH",
"7 0 OFFCURVE",
"8 0 OFFCURVE",
"25 0 CURVE",
"42 123 OFFCURVE",
"59 245 OFFCURVE",
"76 368 CURVE",
"105 380 OFFCURVE",
"160 385 OFFCURVE",
"201 385 CURVE SMOOTH",
"301 385 OFFCURVE",
"350 362 OFFCURVE",
"335 250 CURVE SMOOTH",
"323 167 OFFCURVE",
"311 83 OFFCURVE",
"300 0 CURVE",
"318 0 OFFCURVE",
"318 0 OFFCURVE",
"322 31 CURVE SMOOTH",
"332 100 OFFCURVE",
"341 168 OFFCURVE",
"351 237 CURVE SMOOTH",
"364 330 OFFCURVE",
"364 399 OFFCURVE",
"202 399 CURVE SMOOTH",
"154 399 OFFCURVE",
"104 394 OFFCURVE",
"78 383 CURVE",
"84 423 OFFCURVE",
"90 464 OFFCURVE",
"95 504 CURVE",
"89 504 OFFCURVE",
"83 504 OFFCURVE",
"77 504 CURVE"
);
}
);
width = 395;
}
);
leftKerningGroup = bracketleft;
note = h;
rightKerningGroup = h;
unicode = 0068;
},
{
color = 7;
glyphname = i;
lastChange = "2021-06-23 05:30:41 +0000";
layers = (
{
anchors = (
{
name = bottom;
position = "{175, 0}";
}
);
layerId = "C7668D88-AC50-4107-9C4B-DB5D26A8FA6C";
paths = (
{
closed = 1;
nodes = (
"218 399 OFFCURVE",
"149 399 OFFCURVE",
"80 399 CURVE",
"74 360 OFFCURVE",
"52 207 OFFCURVE",
"41 132 CURVE SMOOTH",
"33 69 OFFCURVE",
"-12 -5 OFFCURVE",
"203 -5 CURVE SMOOTH",
"267 -5 OFFCURVE",
"293 5 OFFCURVE",
"304 7 CURVE",
"314 79 LINE",
"311 77 OFFCURVE",
"303 73 OFFCURVE",
"292 73 CURVE SMOOTH",
"242 73 OFFCURVE",
"245 99 OFFCURVE",
"252 152 CURVE SMOOTH",
"264 234 OFFCURVE",
"275 317 OFFCURVE",
"287 399 CURVE"
);
},
{
closed = 1;
nodes = (
"110 442 OFFCURVE",
"145 440 OFFCURVE",
"196 440 CURVE SMOOTH",
"246 440 OFFCURVE",
"281 442 OFFCURVE",
"288 494 CURVE SMOOTH",
"295 541 OFFCURVE",
"264 547 OFFCURVE",
"214 548 CURVE SMOOTH",
"164 548 OFFCURVE",
"124 543 OFFCURVE",
"117 494 CURVE SMOOTH"
);
}
);
width = 362;
},
{
anchors = (
{
name = bottom;
position = "{81, 0}";
}
);
background = {
paths = (
{
closed = 1;
nodes = (
"94 399 OFFCURVE",
"88 399 OFFCURVE",
"82 399 CURVE",
"67 299 OFFCURVE",
"53 198 OFFCURVE",
"39 98 CURVE SMOOTH",
"31 42 OFFCURVE",
"26 -3 OFFCURVE",
"74 -3 CURVE SMOOTH",
"82 -3 OFFCURVE",
"114 0 OFFCURVE",
"122 2 CURVE",
"124 16 LINE",
"118 13 OFFCURVE",
"94 11 OFFCURVE",
"87 11 CURVE SMOOTH",
"52 11 OFFCURVE",
"48 35 OFFCURVE",
"56 88 CURVE SMOOTH",
"70 192 OFFCURVE",
"85 295 OFFCURVE",
"100 399 CURVE"
);
},
{
closed = 1;
nodes = (
"82 465 OFFCURVE",
"93 464 OFFCURVE",
"100 464 CURVE SMOOTH",
"107 464 OFFCURVE",
"117 465 OFFCURVE",
"119 479 CURVE SMOOTH",
"121 494 OFFCURVE",
"112 495 OFFCURVE",
"103 495 CURVE SMOOTH",
"94 495 OFFCURVE",
"86 493 OFFCURVE",
"84 479 CURVE SMOOTH"
);
}
);
};
layerId = "B4E8C596-9C01-4F8A-BDA4-90320E25C0E6";
paths = (
{
closed = 1;
nodes = (
"94 399 OFFCURVE",
"88 399 OFFCURVE",
"82 399 CURVE",
"67 299 OFFCURVE",
"53 198 OFFCURVE",
"39 98 CURVE SMOOTH",
"31 42 OFFCURVE",
"26 -3 OFFCURVE",
"74 -3 CURVE SMOOTH",
"82 -3 OFFCURVE",
"114 0 OFFCURVE",
"122 2 CURVE",
"124 16 LINE",
"118 13 OFFCURVE",
"94 11 OFFCURVE",
"87 11 CURVE SMOOTH",
"52 11 OFFCURVE",
"48 35 OFFCURVE",
"56 88 CURVE SMOOTH",
"70 192 OFFCURVE",
"85 295 OFFCURVE",
"100 399 CURVE"
);
},
{
closed = 1;
nodes = (
"82 465 OFFCURVE",
"93 464 OFFCURVE",
"100 464 CURVE SMOOTH",
"107 464 OFFCURVE",
"117 465 OFFCURVE",
"119 479 CURVE SMOOTH",
"121 494 OFFCURVE",
"112 495 OFFCURVE",
"103 495 CURVE SMOOTH",
"94 495 OFFCURVE",
"86 493 OFFCURVE",
"84 479 CURVE SMOOTH"
);
}
);
width = 195;
}
);
leftKerningGroup = bracketleft;
note = i;
rightKerningGroup = i;
unicode = 0069;
},
{
color = 7;
glyphname = j;
lastChange = "2021-06-22 13:13:00 +0000";
layers = (
{
layerId = "C7668D88-AC50-4107-9C4B-DB5D26A8FA6C";
paths = (
{
closed = 1;
nodes = (
"-38 -46 OFFCURVE",
"-41 -70 OFFCURVE",
"-44 -94 CURVE",
"-34 -96 OFFCURVE",
"16 -106 OFFCURVE",
"80 -106 CURVE SMOOTH",
"295 -106 OFFCURVE",
"276 -3 OFFCURVE",
"284 60 CURVE SMOOTH",
"295 135 OFFCURVE",
"326 360 OFFCURVE",
"331 399 CURVE",
"286 399 OFFCURVE",
"240 399 OFFCURVE",
"195 399 CURVE SMOOTH",
"133 399 OFFCURVE",
"122 387 OFFCURVE",
"114 329 CURVE SMOOTH",
"101 236 OFFCURVE",
"88 144 OFFCURVE",
"75 51 CURVE SMOOTH",
"68 -2 OFFCURVE",
"63 -28 OFFCURVE",
"13 -28 CURVE SMOOTH",
"2 -28 OFFCURVE",
"-26 -25 OFFCURVE",
"-34 -22 CURVE"
);
},
{
closed = 1;
nodes = (
"150 442 OFFCURVE",
"185 440 OFFCURVE",
"236 440 CURVE SMOOTH",
"286 440 OFFCURVE",
"321 442 OFFCURVE",
"328 494 CURVE SMOOTH",
"335 541 OFFCURVE",
"304 547 OFFCURVE",
"254 548 CURVE SMOOTH",
"204 548 OFFCURVE",
"164 543 OFFCURVE",
"157 494 CURVE SMOOTH"
);
}
);
width = 344;
},
{
background = {
paths = (
{
closed = 1;
nodes = (
"-19 -73 OFFCURVE",
"-20 -77 OFFCURVE",
"-20 -82 CURVE",
"-12 -83 OFFCURVE",
"9 -85 OFFCURVE",
"28 -85 CURVE SMOOTH",
"83 -85 OFFCURVE",
"88 -50 OFFCURVE",
"99 27 CURVE SMOOTH",
"116 151 OFFCURVE",
"134 275 OFFCURVE",
"151 399 CURVE",
"149 399 OFFCURVE",
"147 399 OFFCURVE",
"145 399 CURVE SMOOTH",
"134 399 OFFCURVE",
"133 394 OFFCURVE",
"131 385 CURVE SMOOTH",
"114 259 OFFCURVE",
"96 132 OFFCURVE",
"78 6 CURVE SMOOTH",
"71 -47 OFFCURVE",
"65 -71 OFFCURVE",
"25 -71 CURVE SMOOTH",
"11 -71 OFFCURVE",
"-12 -69 OFFCURVE",
"-18 -68 CURVE"
);
},
{
closed = 1;
nodes = (
"135 465 OFFCURVE",
"145 464 OFFCURVE",
"152 464 CURVE SMOOTH",
"159 464 OFFCURVE",
"170 465 OFFCURVE",
"172 479 CURVE SMOOTH",
"174 494 OFFCURVE",
"165 495 OFFCURVE",
"156 495 CURVE SMOOTH",
"147 495 OFFCURVE",
"138 493 OFFCURVE",
"137 479 CURVE SMOOTH"
);
}
);
};
layerId = "B4E8C596-9C01-4F8A-BDA4-90320E25C0E6";
paths = (
{
closed = 1;
nodes = (
"-19 -73 OFFCURVE",
"-20 -77 OFFCURVE",
"-20 -82 CURVE",
"-12 -83 OFFCURVE",
"9 -85 OFFCURVE",
"28 -85 CURVE SMOOTH",
"83 -85 OFFCURVE",
"88 -50 OFFCURVE",
"99 27 CURVE SMOOTH",
"116 151 OFFCURVE",
"134 275 OFFCURVE",
"151 399 CURVE",
"149 399 OFFCURVE",
"147 399 OFFCURVE",
"145 399 CURVE SMOOTH",
"134 399 OFFCURVE",
"133 394 OFFCURVE",
"131 385 CURVE SMOOTH",
"114 259 OFFCURVE",
"96 132 OFFCURVE",
"78 6 CURVE SMOOTH",
"71 -47 OFFCURVE",
"65 -71 OFFCURVE",
"25 -71 CURVE SMOOTH",
"11 -71 OFFCURVE",
"-12 -69 OFFCURVE",
"-18 -68 CURVE"
);
},
{
closed = 1;
nodes = (
"135 465 OFFCURVE",
"145 464 OFFCURVE",
"152 464 CURVE SMOOTH",
"159 464 OFFCURVE",
"170 465 OFFCURVE",
"172 479 CURVE SMOOTH",
"174 494 OFFCURVE",
"165 495 OFFCURVE",
"156 495 CURVE SMOOTH",
"147 495 OFFCURVE",
"138 493 OFFCURVE",
"137 479 CURVE SMOOTH"
);
}
);
width = 193;
}
);
leftKerningGroup = bracketleft;
note = j;
rightKerningGroup = one;
unicode = 006A;
},
{
color = 7;
glyphname = k;
lastChange = "2021-06-22 13:13:00 +0000";
layers = (
{
layerId = "C7668D88-AC50-4107-9C4B-DB5D26A8FA6C";
paths = (
{
closed = 1;
nodes = (
"65 0 OFFCURVE",
"134 0 OFFCURVE",
"203 0 CURVE",
"208 39 OFFCURVE",
"213 77 OFFCURVE",
"219 116 CURVE",
"219 116 LINE SMOOTH",
"315 0 OFFCURVE",
"335 0 OFFCURVE",
"373 0 CURVE SMOOTH",
"455 0 OFFCURVE",
"539 -3 OFFCURVE",
"620 0 CURVE",
"617 2 OFFCURVE",
"592 23 OFFCURVE",
"601 15 CURVE",
"592 23 OFFCURVE",
"585 29 OFFCURVE",
"555 62 CURVE",
"465 164 OFFCURVE",
"432 210 OFFCURVE",
"398 249 CURVE",
"417 263 OFFCURVE",
"501 319 OFFCURVE",
"508 323 CURVE SMOOTH",
"561 358 OFFCURVE",
"622 394 OFFCURVE",
"628 399 CURVE",
"530 399 OFFCURVE",
"429 418 OFFCURVE",
"375 377 CURVE",
"375 383 OFFCURVE",
"241 272 OFFCURVE",
"241 276 CURVE",
"241 276 OFFCURVE",
"275 498 OFFCURVE",
"278 505 CURVE",
"229 505 OFFCURVE",
"179 505 OFFCURVE",
"136 505 CURVE SMOOTH",
"69 505 OFFCURVE",
"62 479 OFFCURVE",
"56 436 CURVE SMOOTH",
"51 401 OFFCURVE",
"-1 22 OFFCURVE",
"-4 0 CURVE"
);
}
);
width = 685;
},
{
background = {
paths = (
{
closed = 1;
nodes = (
"31 0 OFFCURVE",
"37 0 OFFCURVE",
"43 0 CURVE",
"48 42 OFFCURVE",
"54 84 OFFCURVE",
"60 126 CURVE",
"148 209 LINE",
"196 143 OFFCURVE",
"242 78 OFFCURVE",
"290 12 CURVE SMOOTH",
"298 2 OFFCURVE",
"301 -1 OFFCURVE",
"309 -1 CURVE SMOOTH",
"314 -1 OFFCURVE",
"323 0 OFFCURVE",
"323 0 CURVE",
"323 0 OFFCURVE",
"321 3 OFFCURVE",
"317 7 CURVE SMOOTH",
"294 40 OFFCURVE",
"196 176 OFFCURVE",
"163 223 CURVE",
"215 272 OFFCURVE",
"267 321 OFFCURVE",
"319 370 CURVE SMOOTH",
"330 381 OFFCURVE",
"346 395 OFFCURVE",
"352 399 CURVE",
"344 399 OFFCURVE",
"336 399 OFFCURVE",
"328 399 CURVE",
"196 272 OFFCURVE",
"92 173 OFFCURVE",
"63 146 CURVE",
"80 266 OFFCURVE",
"97 386 OFFCURVE",
"114 506 CURVE",
"111 506 OFFCURVE",
"109 506 OFFCURVE",
"106 506 CURVE SMOOTH",
"96 506 OFFCURVE",
"95 499 OFFCURVE",
"93 487 CURVE SMOOTH",
"70 325 OFFCURVE",
"47 162 OFFCURVE",
"25 0 CURVE"
);
}
);
};
layerId = "B4E8C596-9C01-4F8A-BDA4-90320E25C0E6";
paths = (
{
closed = 1;
nodes = (
"31 0 OFFCURVE",
"37 0 OFFCURVE",
"43 0 CURVE",
"48 42 OFFCURVE",
"54 84 OFFCURVE",
"60 126 CURVE",
"148 209 LINE",
"196 143 OFFCURVE",
"242 78 OFFCURVE",
"290 12 CURVE SMOOTH",
"298 2 OFFCURVE",
"301 -1 OFFCURVE",
"309 -1 CURVE SMOOTH",
"314 -1 OFFCURVE",
"323 0 OFFCURVE",
"323 0 CURVE",
"323 0 OFFCURVE",
"321 3 OFFCURVE",
"317 7 CURVE SMOOTH",
"294 40 OFFCURVE",
"196 176 OFFCURVE",
"163 223 CURVE",
"215 272 OFFCURVE",
"267 321 OFFCURVE",
"319 370 CURVE SMOOTH",
"330 381 OFFCURVE",
"346 395 OFFCURVE",
"352 399 CURVE",
"344 399 OFFCURVE",
"336 399 OFFCURVE",
"328 399 CURVE",
"196 272 OFFCURVE",
"92 173 OFFCURVE",
"63 146 CURVE",
"80 266 OFFCURVE",
"97 386 OFFCURVE",
"114 506 CURVE",
"111 506 OFFCURVE",
"109 506 OFFCURVE",
"106 506 CURVE SMOOTH",
"96 506 OFFCURVE",
"95 499 OFFCURVE",
"93 487 CURVE SMOOTH",
"70 325 OFFCURVE",
"47 162 OFFCURVE",
"25 0 CURVE"
);
}
);
width = 398;
}
);
leftKerningGroup = bracketleft;
note = k;
unicode = 006B;
},
{
color = 7;
glyphname = l;
lastChange = "2021-06-23 05:26:43 +0000";
layers = (
{
anchors = (
{
name = bottom;
position = "{134, 0}";
},
{
name = center;
position = "{201, 480}";
},
{
name = top;
position = "{182, 505}";
},
{
name = topright;
position = "{287, 505}";
}
);
layerId = "C7668D88-AC50-4107-9C4B-DB5D26A8FA6C";
paths = (
{
closed = 1;
nodes = (
"8 132 LINE SMOOTH",
"-1 69 OFFCURVE",
"-25 -5 OFFCURVE",
"169 -5 CURVE SMOOTH",
"233 -5 OFFCURVE",
"259 5 OFFCURVE",
"270 7 CURVE",
"280 79 LINE",
"277 77 OFFCURVE",
"263 73 OFFCURVE",
"253 73 CURVE SMOOTH",
"206 73 OFFCURVE",
"210 99 OFFCURVE",
"218 152 CURVE SMOOTH",
"257 426 LINE",
"257 426 OFFCURVE",
"269 498 OFFCURVE",
"272 505 CURVE",
"135 505 LINE SMOOTH",
"72 505 OFFCURVE",
"60 498 OFFCURVE",
"51 436 CURVE SMOOTH"
);
}
);
width = 324;
},
{
anchors = (
{
name = bottom;
position = "{70, 0}";
},
{
name = center;
position = "{137, 480}";
},
{
name = top;
position = "{108, 505}";
},
{
name = topright;
position = "{169, 505}";
}
);
background = {
paths = (
{
closed = 1;
nodes = (
"38 98 LINE SMOOTH",
"31 42 OFFCURVE",
"25 -3 OFFCURVE",
"73 -3 CURVE SMOOTH",
"81 -3 OFFCURVE",
"114 0 OFFCURVE",
"121 2 CURVE",
"123 16 LINE",
"118 13 OFFCURVE",
"93 11 OFFCURVE",
"86 11 CURVE SMOOTH",
"51 11 OFFCURVE",
"48 35 OFFCURVE",
"55 88 CURVE SMOOTH",
"110 476 LINE SMOOTH",
"112 496 OFFCURVE",
"115 505 OFFCURVE",
"115 505 CURVE",
"108 505 LINE SMOOTH",
"97 505 OFFCURVE",
"94 496 OFFCURVE",
"93 485 CURVE SMOOTH"
);
}
);
};
layerId = "B4E8C596-9C01-4F8A-BDA4-90320E25C0E6";
paths = (
{
closed = 1;
nodes = (
"38 98 LINE SMOOTH",
"30 42 OFFCURVE",
"25 -3 OFFCURVE",
"73 -3 CURVE SMOOTH",
"81 -3 OFFCURVE",
"114 0 OFFCURVE",
"121 2 CURVE",
"123 16 LINE",
"118 13 OFFCURVE",
"93 11 OFFCURVE",
"86 11 CURVE SMOOTH",
"51 11 OFFCURVE",
"47 35 OFFCURVE",
"55 88 CURVE SMOOTH",
"110 476 LINE SMOOTH",
"113 496 OFFCURVE",
"115 505 OFFCURVE",
"115 505 CURVE",
"108 505 LINE SMOOTH",
"97 505 OFFCURVE",
"95 496 OFFCURVE",
"93 485 CURVE SMOOTH"
);
}
);
width = 196;
}
);
note = l;
rightKerningGroup = i;
unicode = 006C;
},
{
color = 7;
glyphname = m;
lastChange = "2021-06-22 13:13:00 +0000";
layers = (
{
layerId = "C7668D88-AC50-4107-9C4B-DB5D26A8FA6C";
paths = (
{
closed = 1;
nodes = (
"41 276 OFFCURVE",
"26 174 OFFCURVE",
"12 73 CURVE SMOOTH",
"5 22 OFFCURVE",
"2 0 OFFCURVE",
"75 0 CURVE SMOOTH",
"120 0 OFFCURVE",
"164 0 OFFCURVE",
"209 0 CURVE",
"222 96 OFFCURVE",
"236 193 OFFCURVE",
"249 289 CURVE SMOOTH",
"251 301 OFFCURVE",
"262 303 OFFCURVE",
"276 303 CURVE SMOOTH",
"302 303 OFFCURVE",
"315 300 OFFCURVE",
"308 252 CURVE SMOOTH",
"298 178 OFFCURVE",
"287 103 OFFCURVE",
"277 29 CURVE SMOOTH",
"276 19 OFFCURVE",
"274 10 OFFCURVE",
"273 0 CURVE",
"342 0 OFFCURVE",
"412 0 OFFCURVE",
"481 0 CURVE",
"482 9 OFFCURVE",
"483 18 OFFCURVE",
"485 27 CURVE SMOOTH",
"497 115 OFFCURVE",
"509 203 OFFCURVE",
"522 291 CURVE SMOOTH",
"523 303 OFFCURVE",
"536 305 OFFCURVE",
"549 305 CURVE SMOOTH",
"574 305 OFFCURVE",
"586 300 OFFCURVE",
"580 252 CURVE SMOOTH",
"568 168 OFFCURVE",
"557 84 OFFCURVE",
"545 0 CURVE",
"590 0 OFFCURVE",
"634 0 OFFCURVE",
"679 0 CURVE SMOOTH",
"736 0 OFFCURVE",
"753 7 OFFCURVE",
"761 66 CURVE SMOOTH",
"770 126 OFFCURVE",
"778 185 OFFCURVE",
"786 245 CURVE SMOOTH",
"804 373 OFFCURVE",
"755 400 OFFCURVE",
"597 400 CURVE SMOOTH",
"561 400 OFFCURVE",
"487 396 OFFCURVE",
"443 343 CURVE",
"417 410 OFFCURVE",
"322 400 OFFCURVE",
"271 400 CURVE SMOOTH",
"237 400 OFFCURVE",
"110 392 OFFCURVE",
"55 377 CURVE"
);
}
);
width = 810;
},
{
background = {
paths = (
{
closed = 1;
nodes = (
"67 249 OFFCURVE",
"50 131 OFFCURVE",
"34 13 CURVE SMOOTH",
"32 1 OFFCURVE",
"37 0 OFFCURVE",
"45 0 CURVE SMOOTH",
"47 0 OFFCURVE",
"48 0 OFFCURVE",
"50 0 CURVE",
"66 116 OFFCURVE",
"82 233 OFFCURVE",
"99 349 CURVE",
"107 375 OFFCURVE",
"169 388 OFFCURVE",
"226 388 CURVE SMOOTH",
"283 388 OFFCURVE",
"327 360 OFFCURVE",
"324 336 CURVE SMOOTH",
"310 236 OFFCURVE",
"296 136 OFFCURVE",
"282 36 CURVE SMOOTH",
"280 21 OFFCURVE",
"277 5 OFFCURVE",
"276 0 CURVE",
"283 0 OFFCURVE",
"289 0 OFFCURVE",
"296 0 CURVE",
"295 5 OFFCURVE",
"297 20 OFFCURVE",
"300 36 CURVE SMOOTH",
"314 136 OFFCURVE",
"328 235 OFFCURVE",
"342 335 CURVE SMOOTH",
"346 368 OFFCURVE",
"424 388 OFFCURVE",
"472 388 CURVE SMOOTH",
"541 388 OFFCURVE",
"573 364 OFFCURVE",
"564 300 CURVE SMOOTH",
"550 200 OFFCURVE",
"536 100 OFFCURVE",
"522 0 CURVE",
"524 0 OFFCURVE",
"526 0 OFFCURVE",
"528 0 CURVE SMOOTH",
"536 0 OFFCURVE",
"540 4 OFFCURVE",
"542 13 CURVE SMOOTH",
"555 109 OFFCURVE",
"568 204 OFFCURVE",
"582 300 CURVE SMOOTH",
"592 370 OFFCURVE",
"567 403 OFFCURVE",
"473 403 CURVE SMOOTH",
"425 403 OFFCURVE",
"367 385 OFFCURVE",
"339 364 CURVE",
"321 385 OFFCURVE",
"280 402 OFFCURVE",
"230 402 CURVE SMOOTH",
"130 402 OFFCURVE",
"94 373 OFFCURVE",
"83 367 CURVE"
);
}
);
};
layerId = "B4E8C596-9C01-4F8A-BDA4-90320E25C0E6";
paths = (
{
closed = 1;
nodes = (
"67 249 OFFCURVE",
"50 131 OFFCURVE",
"34 13 CURVE SMOOTH",
"32 1 OFFCURVE",
"37 0 OFFCURVE",
"45 0 CURVE SMOOTH",
"47 0 OFFCURVE",
"48 0 OFFCURVE",
"50 0 CURVE",
"66 116 OFFCURVE",
"82 233 OFFCURVE",
"99 349 CURVE",
"107 375 OFFCURVE",
"169 388 OFFCURVE",
"226 388 CURVE SMOOTH",
"283 388 OFFCURVE",
"327 360 OFFCURVE",
"324 336 CURVE SMOOTH",
"310 236 OFFCURVE",
"296 136 OFFCURVE",
"282 36 CURVE SMOOTH",
"280 21 OFFCURVE",
"277 5 OFFCURVE",
"276 0 CURVE",
"283 0 OFFCURVE",
"289 0 OFFCURVE",
"296 0 CURVE",
"295 5 OFFCURVE",
"297 20 OFFCURVE",
"300 36 CURVE SMOOTH",
"314 136 OFFCURVE",
"328 235 OFFCURVE",
"342 335 CURVE SMOOTH",
"346 368 OFFCURVE",
"424 388 OFFCURVE",
"472 388 CURVE SMOOTH",
"541 388 OFFCURVE",
"573 364 OFFCURVE",
"564 300 CURVE SMOOTH",
"550 200 OFFCURVE",
"536 100 OFFCURVE",
"522 0 CURVE",
"524 0 OFFCURVE",
"526 0 OFFCURVE",
"528 0 CURVE SMOOTH",
"536 0 OFFCURVE",
"540 4 OFFCURVE",
"542 13 CURVE SMOOTH",
"555 109 OFFCURVE",
"568 204 OFFCURVE",
"582 300 CURVE SMOOTH",
"592 370 OFFCURVE",
"567 403 OFFCURVE",
"473 403 CURVE SMOOTH",
"425 403 OFFCURVE",
"367 385 OFFCURVE",
"339 364 CURVE",
"321 385 OFFCURVE",
"280 402 OFFCURVE",
"230 402 CURVE SMOOTH",
"130 402 OFFCURVE",
"94 373 OFFCURVE",
"83 367 CURVE"
);
}
);
width = 628;
}
);
note = m;
unicode = 006D;
},
{
color = 7;
glyphname = n;
lastChange = "2021-06-22 13:13:00 +0000";
layers = (
{
anchors = (
{
name = bottom;
position = "{253, 0}";
},
{
name = top;
position = "{309, 399}";
}
);
guideLines = (
{
angle = 82;
position = "{22, 135}";
}
);
layerId = "C7668D88-AC50-4107-9C4B-DB5D26A8FA6C";
paths = (
{
closed = 1;
nodes = (
"41 277 OFFCURVE",
"26 175 OFFCURVE",
"12 73 CURVE SMOOTH",
"5 25 OFFCURVE",
"6 -1 OFFCURVE",
"51 -1 CURVE SMOOTH",
"62 -1 OFFCURVE",
"204 0 OFFCURVE",
"209 0 CURVE",
"222 94 OFFCURVE",
"235 187 OFFCURVE",
"248 281 CURVE",
"259 288 OFFCURVE",
"278 293 OFFCURVE",
"292 293 CURVE SMOOTH",
"312 293 OFFCURVE",
"335 282 OFFCURVE",
"330 245 CURVE SMOOTH",
"320 171 OFFCURVE",
"310 98 OFFCURVE",
"299 24 CURVE SMOOTH",
"298 16 OFFCURVE",
"297 8 OFFCURVE",
"296 0 CURVE",
"298 0 OFFCURVE",
"419 -1 OFFCURVE",
"426 -1 CURVE SMOOTH",
"498 -1 OFFCURVE",
"505 15 OFFCURVE",
"513 75 CURVE SMOOTH",
"519 115 OFFCURVE",
"524 154 OFFCURVE",
"530 194 CURVE SMOOTH",
"553 358 OFFCURVE",
"545 402 OFFCURVE",
"306 402 CURVE SMOOTH",
"199 402 OFFCURVE",
"98 390 OFFCURVE",
"55 379 CURVE"
);
}
);
width = 561;
},
{
anchors = (
{
name = bottom;
position = "{190, 0}";
},
{
name = top;
position = "{246, 399}";
}
);
background = {
paths = (
{
closed = 1;
nodes = (
"67 249 OFFCURVE",
"50 131 OFFCURVE",
"34 13 CURVE SMOOTH",
"32 1 OFFCURVE",
"37 0 OFFCURVE",
"45 0 CURVE SMOOTH",
"47 0 OFFCURVE",
"48 0 OFFCURVE",
"50 0 CURVE",
"66 116 OFFCURVE",
"82 233 OFFCURVE",
"99 349 CURVE",
"107 375 OFFCURVE",
"178 388 OFFCURVE",
"252 388 CURVE SMOOTH",
"339 388 OFFCURVE",
"380 360 OFFCURVE",
"371 296 CURVE SMOOTH",
"359 209 OFFCURVE",
"347 121 OFFCURVE",
"335 34 CURVE SMOOTH",
"334 30 OFFCURVE",
"331 10 OFFCURVE",
"329 0 CURVE",
"330 0 OFFCURVE",
"331 0 OFFCURVE",
"332 0 CURVE SMOOTH",
"338 0 OFFCURVE",
"348 2 OFFCURVE",
"350 13 CURVE SMOOTH",
"363 107 OFFCURVE",
"376 202 OFFCURVE",
"389 296 CURVE SMOOTH",
"399 366 OFFCURVE",
"376 402 OFFCURVE",
"257 402 CURVE SMOOTH",
"127 402 OFFCURVE",
"94 373 OFFCURVE",
"83 367 CURVE"
);
}
);
};
guideLines = (
{
angle = 82;
position = "{6, -176}";
}
);
layerId = "B4E8C596-9C01-4F8A-BDA4-90320E25C0E6";
paths = (
{
closed = 1;
nodes = (
"67 249 OFFCURVE",
"50 131 OFFCURVE",
"34 13 CURVE SMOOTH",
"32 1 OFFCURVE",
"37 0 OFFCURVE",
"45 0 CURVE SMOOTH",
"47 0 OFFCURVE",
"48 0 OFFCURVE",
"50 0 CURVE",
"66 116 OFFCURVE",
"82 233 OFFCURVE",
"99 349 CURVE",
"107 375 OFFCURVE",
"178 388 OFFCURVE",
"252 388 CURVE SMOOTH",
"339 388 OFFCURVE",
"380 360 OFFCURVE",
"371 296 CURVE SMOOTH",
"359 209 OFFCURVE",
"347 121 OFFCURVE",
"335 34 CURVE SMOOTH",
"334 30 OFFCURVE",
"331 10 OFFCURVE",
"329 0 CURVE",
"330 0 OFFCURVE",
"331 0 OFFCURVE",
"332 0 CURVE SMOOTH",
"338 0 OFFCURVE",
"348 2 OFFCURVE",
"350 13 CURVE SMOOTH",
"363 107 OFFCURVE",
"376 202 OFFCURVE",
"389 296 CURVE SMOOTH",
"399 366 OFFCURVE",
"376 402 OFFCURVE",
"257 402 CURVE SMOOTH",
"127 402 OFFCURVE",
"94 373 OFFCURVE",
"83 367 CURVE"
);
}
);
width = 436;
}
);
note = n;
rightKerningGroup = h;
unicode = 006E;
},
{
color = 7;
glyphname = o;
lastChange = "2021-06-22 13:13:00 +0000";
layers = (
{
anchors = (
{
name = bottom;
position = "{261, 0}";
},
{
name = center;
position = "{289, 200}";
},
{
name = ogonek;
position = "{323, 10}";
},
{
name = top;
position = "{317, 399}";
},
{
name = topright;
position = "{420, 399}";
}
);
layerId = "C7668D88-AC50-4107-9C4B-DB5D26A8FA6C";
paths = (
{
closed = 1;
nodes = (
"0 12 OFFCURVE",
"109 -7 OFFCURVE",
"253 -7 CURVE SMOOTH",
"396 -7 OFFCURVE",
"524 7 OFFCURVE",
"551 199 CURVE SMOOTH",
"577 387 OFFCURVE",
"466 405 OFFCURVE",
"323 405 CURVE SMOOTH",
"182 405 OFFCURVE",
"53 391 OFFCURVE",
"26 199 CURVE SMOOTH"
);
},
{
closed = 1;
nodes = (
"338 103 OFFCURVE",
"312 90 OFFCURVE",
"274 90 CURVE SMOOTH",
"235 90 OFFCURVE",
"212 103 OFFCURVE",
"225 197 CURVE SMOOTH",
"238 291 OFFCURVE",
"265 304 OFFCURVE",
"304 304 CURVE SMOOTH",
"342 304 OFFCURVE",
"364 291 OFFCURVE",
"351 197 CURVE SMOOTH"
);
}
);
width = 578;
},
{
anchors = (
{
name = bottom;
position = "{184, 0}";
},
{
name = center;
position = "{212, 200}";
},
{
name = ogonek;
position = "{198, 7}";
},
{
name = top;
position = "{240, 399}";
},
{
name = topright;
position = "{299, 399}";
}
);
background = {
paths = (
{
closed = 1;
nodes = (
"9 14 OFFCURVE",
"82 -5 OFFCURVE",
"178 -5 CURVE SMOOTH",
"274 -5 OFFCURVE",
"362 9 OFFCURVE",
"389 199 CURVE SMOOTH",
"415 384 OFFCURVE",
"342 403 OFFCURVE",
"246 403 CURVE SMOOTH",
"150 403 OFFCURVE",
"62 389 OFFCURVE",
"35 199 CURVE SMOOTH"
);
},
{
closed = 1;
nodes = (
"346 31 OFFCURVE",
"285 9 OFFCURVE",
"184 9 CURVE SMOOTH",
"84 9 OFFCURVE",
"31 31 OFFCURVE",
"55 198 CURVE SMOOTH",
"78 366 OFFCURVE",
"138 389 OFFCURVE",
"238 389 CURVE SMOOTH",
"339 389 OFFCURVE",
"393 366 OFFCURVE",
"370 198 CURVE SMOOTH"
);
}
);
};
layerId = "B4E8C596-9C01-4F8A-BDA4-90320E25C0E6";
paths = (
{
closed = 1;
nodes = (
"9 14 OFFCURVE",
"82 -5 OFFCURVE",
"178 -5 CURVE SMOOTH",
"274 -5 OFFCURVE",
"362 9 OFFCURVE",
"389 199 CURVE SMOOTH",
"415 384 OFFCURVE",
"342 403 OFFCURVE",
"246 403 CURVE SMOOTH",
"150 403 OFFCURVE",
"62 389 OFFCURVE",
"35 199 CURVE SMOOTH"
);
},
{
closed = 1;
nodes = (
"346 31 OFFCURVE",
"285 9 OFFCURVE",
"184 9 CURVE SMOOTH",
"84 9 OFFCURVE",
"31 31 OFFCURVE",
"55 198 CURVE SMOOTH",
"78 366 OFFCURVE",
"138 389 OFFCURVE",
"238 389 CURVE SMOOTH",
"339 389 OFFCURVE",
"393 366 OFFCURVE",
"370 198 CURVE SMOOTH"
);
}
);
width = 424;
}
);
leftKerningGroup = e;
note = o;
rightKerningGroup = o;
unicode = 006F;
},
{
color = 7;
glyphname = p;
lastChange = "2021-06-22 13:13:00 +0000";
layers = (
{
guideLines = (
{
position = "{591, 106}";
}
);
layerId = "C7668D88-AC50-4107-9C4B-DB5D26A8FA6C";
paths = (
{
closed = 1;
nodes = (
"65 384 OFFCURVE",
"62 357 OFFCURVE",
"58 328 CURVE SMOOTH",
"41 204 LINE",
"-5 -107 LINE",
"204 -107 LINE",
"226 42 LINE",
"228 13 OFFCURVE",
"261 -3 OFFCURVE",
"333 -3 CURVE SMOOTH",
"474 -3 OFFCURVE",
"540 18 OFFCURVE",
"570 230 CURVE SMOOTH",
"591 380 OFFCURVE",
"497 403 OFFCURVE",
"293 403 CURVE SMOOTH",
"241 403 OFFCURVE",
"90 394 OFFCURVE",
"64 389 CURVE"
);
},
{
closed = 1;
nodes = (
"260 295 LINE",
"278 295 OFFCURVE",
"297 296 OFFCURVE",
"315 296 CURVE SMOOTH",
"354 296 OFFCURVE",
"366 284 OFFCURVE",
"358 232 CURVE SMOOTH",
"338 103 OFFCURVE",
"318 106 OFFCURVE",
"284 106 CURVE SMOOTH",
"266 106 OFFCURVE",
"232 107 OFFCURVE",
"248 214 CURVE SMOOTH"
);
}
);
width = 588;
},
{
background = {
paths = (
{
closed = 1;
nodes = (
"87 386 OFFCURVE",
"82 350 OFFCURVE",
"77 311 CURVE SMOOTH",
"55 158 LINE",
"17 -107 LINE",
"37 -107 LINE",
"68 114 LINE",
"78 60 OFFCURVE",
"141 50 OFFCURVE",
"209 50 CURVE SMOOTH",
"323 50 OFFCURVE",
"384 84 OFFCURVE",
"404 228 CURVE SMOOTH",
"426 380 OFFCURVE",
"370 402 OFFCURVE",
"245 402 CURVE SMOOTH",
"189 402 OFFCURVE",
"106 394 OFFCURVE",
"86 390 CURVE"
);
},
{
closed = 1;
nodes = (
"105 378 LINE",
"125 381 OFFCURVE",
"204 387 OFFCURVE",
"239 387 CURVE SMOOTH",
"367 387 OFFCURVE",
"404 355 OFFCURVE",
"387 231 CURVE SMOOTH",
"370 112 OFFCURVE",
"329 64 OFFCURVE",
"214 64 CURVE SMOOTH",
"155 64 OFFCURVE",
"62 66 OFFCURVE",
"78 185 CURVE SMOOTH"
);
}
);
};
layerId = "B4E8C596-9C01-4F8A-BDA4-90320E25C0E6";
paths = (
{
closed = 1;
nodes = (
"87 386 OFFCURVE",
"83 350 OFFCURVE",
"77 311 CURVE SMOOTH",
"55 158 LINE",
"17 -107 LINE",
"37 -107 LINE",
"60 62 LINE",
"70 8 OFFCURVE",
"133 -2 OFFCURVE",
"201 -2 CURVE SMOOTH",
"315 -2 OFFCURVE",
"376 32 OFFCURVE",
"404 228 CURVE SMOOTH",
"426 380 OFFCURVE",
"370 402 OFFCURVE",
"245 402 CURVE SMOOTH",
"189 402 OFFCURVE",
"106 394 OFFCURVE",
"86 390 CURVE"
);
},
{
closed = 1;
nodes = (
"105 378 LINE",
"125 381 OFFCURVE",
"204 387 OFFCURVE",
"239 387 CURVE SMOOTH",
"367 387 OFFCURVE",
"405 355 OFFCURVE",
"387 231 CURVE SMOOTH",
"362 60 OFFCURVE",
"321 12 OFFCURVE",
"206 12 CURVE SMOOTH",
"147 12 OFFCURVE",
"53 14 OFFCURVE",
"70 133 CURVE SMOOTH"
);
}
);
width = 437;
}
);
leftKerningGroup = bracketleft;
note = p;
unicode = 0070;
},
{
color = 7;
glyphname = q;
lastChange = "2021-06-22 13:13:00 +0000";
layers = (
{
layerId = "C7668D88-AC50-4107-9C4B-DB5D26A8FA6C";
paths = (
{
closed = 1;
nodes = (
"134 402 OFFCURVE",
"65 394 OFFCURVE",
"40 216 CURVE SMOOTH",
"37 200 OFFCURVE",
"35 185 OFFCURVE",
"33 169 CURVE SMOOTH",
"9 -5 OFFCURVE",
"106 -3 OFFCURVE",
"249 -3 CURVE SMOOTH",
"266 -3 OFFCURVE",
"273 -4 OFFCURVE",
"319 -1 CURVE",
"314 -37 OFFCURVE",
"309 -72 OFFCURVE",
"304 -108 CURVE",
"512 -108 LINE",
"526 -6 OFFCURVE",
"540 97 OFFCURVE",
"554 199 CURVE SMOOTH",
"557 219 OFFCURVE",
"575 358 OFFCURVE",
"588 401 CURVE",
"568 399 OFFCURVE",
"407 402 OFFCURVE",
"332 402 CURVE SMOOTH"
);
},
{
closed = 1;
nodes = (
"328 295 OFFCURVE",
"344 295 OFFCURVE",
"361 295 CURVE",
"352 232 OFFCURVE",
"343 169 OFFCURVE",
"334 106 CURVE",
"330 106 OFFCURVE",
"326 106 OFFCURVE",
"322 106 CURVE SMOOTH",
"250 106 OFFCURVE",
"231 106 OFFCURVE",
"244 199 CURVE SMOOTH",
"258 282 OFFCURVE",
"272 295 OFFCURVE",
"311 295 CURVE SMOOTH"
);
}
);
width = 582;
},
{
background = {
paths = (
{
closed = 1;
nodes = (
"177 400 OFFCURVE",
"98 398 OFFCURVE",
"69 210 CURVE SMOOTH",
"68 207 OFFCURVE",
"68 203 OFFCURVE",
"67 200 CURVE SMOOTH",
"44 32 OFFCURVE",
"98 -2 OFFCURVE",
"217 -2 CURVE SMOOTH",
"250 -2 OFFCURVE",
"348 3 OFFCURVE",
"362 4 CURVE",
"357 -33 OFFCURVE",
"352 -70 OFFCURVE",
"346 -107 CURVE",
"364 -107 LINE",
"386 48 OFFCURVE",
"408 202 OFFCURVE",
"430 357 CURVE SMOOTH",
"433 385 OFFCURVE",
"436 397 OFFCURVE",
"439 401 CURVE",
"432 398 OFFCURVE",
"340 400 OFFCURVE",
"280 400 CURVE SMOOTH"
);
},
{
closed = 1;
nodes = (
"397 386 OFFCURVE",
"400 384 OFFCURVE",
"415 384 CURVE",
"398 263 OFFCURVE",
"381 141 OFFCURVE",
"364 20 CURVE",
"357 19 OFFCURVE",
"250 12 OFFCURVE",
"208 12 CURVE SMOOTH",
"112 12 OFFCURVE",
"65 57 OFFCURVE",
"84 190 CURVE SMOOTH",
"108 359 OFFCURVE",
"152 386 OFFCURVE",
"277 386 CURVE SMOOTH"
);
}
);
};
layerId = "B4E8C596-9C01-4F8A-BDA4-90320E25C0E6";
paths = (
{
closed = 1;
nodes = (
"177 400 OFFCURVE",
"98 398 OFFCURVE",
"69 210 CURVE SMOOTH",
"68 207 OFFCURVE",
"68 203 OFFCURVE",
"67 200 CURVE SMOOTH",
"44 32 OFFCURVE",
"98 -2 OFFCURVE",
"217 -2 CURVE SMOOTH",
"250 -2 OFFCURVE",
"348 3 OFFCURVE",
"362 4 CURVE",
"357 -33 OFFCURVE",
"352 -70 OFFCURVE",
"346 -107 CURVE",
"364 -107 LINE",
"386 48 OFFCURVE",
"408 202 OFFCURVE",
"430 357 CURVE SMOOTH",
"433 385 OFFCURVE",
"436 397 OFFCURVE",
"439 401 CURVE",
"432 398 OFFCURVE",
"340 400 OFFCURVE",
"280 400 CURVE SMOOTH"
);
},
{
closed = 1;
nodes = (
"397 386 OFFCURVE",
"400 384 OFFCURVE",
"415 384 CURVE",
"398 263 OFFCURVE",
"381 141 OFFCURVE",
"364 20 CURVE",
"357 19 OFFCURVE",
"250 12 OFFCURVE",
"208 12 CURVE SMOOTH",
"112 12 OFFCURVE",
"65 57 OFFCURVE",
"84 190 CURVE SMOOTH",
"108 359 OFFCURVE",
"152 386 OFFCURVE",
"277 386 CURVE SMOOTH"
);
}
);
width = 463;
}
);
note = q;
rightKerningGroup = one;
unicode = 0071;
},
{
color = 7;
glyphname = r;
lastChange = "2021-06-22 13:13:00 +0000";
layers = (
{
anchors = (
{
name = bottom;
position = "{234, 0}";
},
{
name = top;
position = "{290, 399}";
}
);
layerId = "C7668D88-AC50-4107-9C4B-DB5D26A8FA6C";
paths = (
{
closed = 1;
nodes = (
"250 294 LINE",
"253 305 OFFCURVE",
"268 308 OFFCURVE",
"284 308 CURVE SMOOTH",
"301 308 OFFCURVE",
"315 304 OFFCURVE",
"308 254 CURVE SMOOTH",
"306 240 LINE",
"503 240 LINE",
"521 362 OFFCURVE",
"512 402 OFFCURVE",
"293 402 CURVE SMOOTH",
"195 402 OFFCURVE",
"99 390 OFFCURVE",
"55 379 CURVE",
"12 73 LINE SMOOTH",
"5 25 OFFCURVE",
"10 0 OFFCURVE",
"55 0 CURVE SMOOTH",
"209 0 LINE"
);
}
);
width = 524;
},
{
anchors = (
{
name = bottom;
position = "{144, 0}";
},
{
name = top;
position = "{200, 399}";
}
);
background = {
hints = (
{
horizontal = 1;
place = "{-4, 21}";
target = up;
type = BottomGhost;
},
{
horizontal = 1;
place = "{368, 97}";
type = Stem;
},
{
place = "{54, 98}";
type = Stem;
},
{
place = "{55, 98}";
type = Stem;
},
{
place = "{371, 98}";
type = Stem;
},
{
place = "{372, 98}";
type = Stem;
}
);
paths = (
{
closed = 1;
nodes = (
"93 365 LINE",
"117 376 OFFCURVE",
"157 388 OFFCURVE",
"204 388 CURVE SMOOTH",
"225 388 OFFCURVE",
"306 388 OFFCURVE",
"303 338 CURVE SMOOTH",
"302 324 LINE",
"320 324 LINE",
"325 361 OFFCURVE",
"322 402 OFFCURVE",
"206 402 CURVE SMOOTH",
"138 402 OFFCURVE",
"88 383 OFFCURVE",
"77 379 CURVE",
"26 15 LINE SMOOTH",
"24 4 OFFCURVE",
"30 0 OFFCURVE",
"40 0 CURVE SMOOTH",
"42 0 LINE"
);
}
);
};
layerId = "B4E8C596-9C01-4F8A-BDA4-90320E25C0E6";
paths = (
{
closed = 1;
nodes = (
"93 365 LINE",
"117 376 OFFCURVE",
"157 388 OFFCURVE",
"204 388 CURVE SMOOTH",
"225 388 OFFCURVE",
"306 388 OFFCURVE",
"303 338 CURVE SMOOTH",
"302 324 LINE",
"320 324 LINE",
"325 361 OFFCURVE",
"322 402 OFFCURVE",
"206 402 CURVE SMOOTH",
"138 402 OFFCURVE",
"88 383 OFFCURVE",
"77 379 CURVE",
"26 15 LINE SMOOTH",
"24 4 OFFCURVE",
"30 0 OFFCURVE",
"40 0 CURVE SMOOTH",
"42 0 LINE"
);
}
);
width = 343;
}
);
note = r;
rightKerningGroup = r;
unicode = 0072;
},
